<svg xmlns="http://www.w3.org/2000/svg" version="1.1" width="1024" height="768">
<rect x="0" y="0" width="1024" height="768" fill="#988d82" />
<g transform="scale(4.000000) translate(0.5 0.5)">
<polygon fill="#100000" fill-opacity="0.501961" points="-9,127 67,31 91,207" />
<polygon fill="#f0feff" fill-opacity="0.501961" points="271,0 145,78 -16,-1" />
<polygon fill="#000006" fill-opacity="0.501961" points="249,172 195,120 208,207" />
<polygon fill="#1a0300" fill-opacity="0.501961" points="103,120 12,111 40,207" />
<polygon fill="#ffeacb" fill-opacity="0.501961" points="200,162 101,92 193,207" />
<polygon fill="#d2d7ea" fill-opacity="0.501961" points="250,-16 -16,25 271,57" />
<polygon fill="#fffece" fill-opacity="0.501961" points="5,124 38,207 -16,185" />
<polygon fill="#351f00" fill-opacity="0.501961" points="80,200 29,198 45,24" />
<polygon fill="#ffffd7" fill-opacity="0.501961" points="113,148 107,188 62,207" />
<polygon fill="#9c846d" fill-opacity="0.501961" points="252,173 25,69 199,35" />
<polygon fill="#310c00" fill-opacity="0.501961" points="190,56 216,63 212,98" />
<polygon fill="#000010" fill-opacity="0.501961" points="162,207 145,207 148,144" />
<polygon fill="#293148" fill-opacity="0.501961" points="243,97 262,123 206,201" />
<polygon fill="#c1cad8" fill-opacity="0.501961" points="24,58 -16,-7 82,2" />
<polygon fill="#8d6435" fill-opacity="0.501961" points="21,78 114,111 122,166" />
<polygon fill="#bdaf91" fill-opacity="0.501961" points="82,137 209,156 159,111" />
<polygon fill="#af8c6b" fill-opacity="0.501961" points="96,47 98,152 51,25" />
<polygon fill="#6b5339" fill-opacity="0.501961" points="150,83 176,135 208,128" />
<polygon fill="#a0a9b4" fill-opacity="0.501961" points="237,84 244,157 190,99" />
<polygon fill="#ffffdb" fill-opacity="0.501961" points="271,136 246,169 253,199" />
<polygon fill="#401d06" fill-opacity="0.501961" points="68,40 50,92 39,40" />
<polygon fill="#554539" fill-opacity="0.501961" points="112,178 114,207 166,175" />
<polygon fill="#060a10" fill-opacity="0.501961" points="224,207 200,157 234,157" />
<polygon fill="#d9dfea" fill-opacity="0.501961" points="269,43 68,0 267,-11" />
<polygon fill="#e7d194" fill-opacity="0.501961" points="91,182 121,169 86,125" />
<polygon fill="#f8e6c4" fill-opacity="0.501961" points="191,149 212,207 164,186" />
<polygon fill="#ffebcc" fill-opacity="0.501961" points="129,136 115,123 131,93" />
<polygon fill="#c0c7d2" fill-opacity="0.501961" points="112,73 63,3 226,17" />
<polygon fill="#7f6b3e" fill-opacity="0.501961" points="-16,116 9,137 31,74" />
<polygon fill="#fae2c5" fill-opacity="0.501961" points="25,152 -7,142 26,178" />
<polygon fill="#ddd1cc" fill-opacity="0.501961" points="168,112 147,102 137,143" />
<polygon fill="#bda487" fill-opacity="0.501961" points="65,118 125,60 214,52" />
<polygon fill="#281b07" fill-opacity="0.501961" points="22,82 68,195 33,207" />
<polygon fill="#462d0e" fill-opacity="0.501961" points="83,126 89,177 19,81" />
<polygon fill="#474d60" fill-opacity="0.501961" points="242,118 251,207 225,194" />
<polygon fill="#30211d" fill-opacity="0.501961" points="222,94 215,71 195,78" />
<polygon fill="#979b20" fill-opacity="0.501961" points="167,154 196,150 176,137" />
<polygon fill="#7b5f4e" fill-opacity="0.501961" points="119,185 92,79 122,128" />
<polygon fill="#ecc4b4" fill-opacity="0.501961" points="84,71 78,38 66,54" />
<polygon fill="#aca59e" fill-opacity="0.501961" points="271,56 271,121 178,27" />
<polygon fill="#8e6d46" fill-opacity="0.501961" points="27,130 71,111 64,125" />
<polygon fill="#a2a4a3" fill-opacity="0.501961" points="-4,70 40,42 43,78" />
<polygon fill="#1a0600" fill-opacity="0.501961" points="81,99 62,86 75,110" />
<polygon fill="#b9a18b" fill-opacity="0.501961" points="159,124 129,188 108,167" />
<polygon fill="#211508" fill-opacity="0.501961" points="40,169 94,120 10,135" />
<polygon fill="#964426" fill-opacity="0.501961" points="138,122 133,83 145,84" />
<polygon fill="#efd8c1" fill-opacity="0.501961" points="191,101 210,114 208,89" />
<polygon fill="#37697c" fill-opacity="0.501961" points="235,111 212,122 215,105" />
<polygon fill="#50545f" fill-opacity="0.501961" points="170,207 132,173 164,175" />
<polygon fill="#b9bdc4" fill-opacity="0.501961" points="-3,37 -16,1 119,30" />
<polygon fill="#fccfaf" fill-opacity="0.501961" points="150,74 120,74 152,86" />
<polygon fill="#78511f" fill-opacity="0.501961" points="67,192 77,137 88,179" />
<polygon fill="#76747d" fill-opacity="0.501961" points="197,153 251,159 263,126" />
<polygon fill="#282326" fill-opacity="0.501961" points="243,128 254,132 240,95" />
<polygon fill="#adaab6" fill-opacity="0.501961" points="155,174 174,144 147,118" />
<polygon fill="#edd6c2" fill-opacity="0.501961" points="83,203 92,156 112,157" />
<polygon fill="#724a33" fill-opacity="0.501961" points="77,39 44,35 57,57" />
<polygon fill="#593c1b" fill-opacity="0.501961" points="27,74 78,90 13,127" />
<polygon fill="#939086" fill-opacity="0.501961" points="-11,35 14,120 28,36" />
<polygon fill="#887563" fill-opacity="0.501961" points="249,67 241,84 197,69" />
<polygon fill="#f2fafc" fill-opacity="0.501961" points="210,56 220,63 220,72" />
<polygon fill="#f3e0c3" fill-opacity="0.501961" points="164,171 181,154 173,207" />
<polygon fill="#7b7a67" fill-opacity="0.501961" points="81,101 86,39 106,86" />
<polygon fill="#9e9385" fill-opacity="0.501961" points="169,34 143,74 208,94" />
<polygon fill="#000000" fill-opacity="0.501961" points="201,57 195,64 207,59" />
<polygon fill="#a29f35" fill-opacity="0.501961" points="117,151 85,151 84,134" />
<polygon fill="#ecf8ef" fill-opacity="0.501961" points="8,86 -16,75 -16,106" />
<polygon fill="#3c3035" fill-opacity="0.501961" points="218,133 206,149 196,133" />
<polygon fill="#ced2db" fill-opacity="0.501961" points="258,100 243,86 218,84" />
<polygon fill="#ffd9a2" fill-opacity="0.501961" points="113,108 103,98 113,87" />
<polygon fill="#915427" fill-opacity="0.501961" points="84,99 62,62 46,72" />
<polygon fill="#302111" fill-opacity="0.501961" points="24,168 34,145 91,207" />
<polygon fill="#714528" fill-opacity="0.501961" points="151,115 130,115 147,108" />
<polygon fill="#fff5d9" fill-opacity="0.501961" points="130,100 128,118 118,110" />
<polygon fill="#454349" fill-opacity="0.501961" points="220,141 238,145 196,164" />
<polygon fill="#d9c1b4" fill-opacity="0.501961" points="114,120 117,138 165,120" />
<polygon fill="#766962" fill-opacity="0.501961" points="205,98 176,132 199,118" />
<polygon fill="#d6b18f" fill-opacity="0.501961" points="135,111 151,88 152,107" />
<polygon fill="#d0c37b" fill-opacity="0.501961" points="191,135 164,134 203,153" />
<polygon fill="#000000" fill-opacity="0.501961" points="48,99 56,114 40,122" />
<polygon fill="#6f5b3f" fill-opacity="0.501961" points="119,98 82,134 99,132" />
<polygon fill="#575532" fill-opacity="0.501961" points="154,86 153,102 167,112" />
<polygon fill="#ddba8e" fill-opacity="0.501961" points="211,116 188,118 211,126" />
<polygon fill="#b0a283" fill-opacity="0.501961" points="183,32 200,39 191,75" />
<polygon fill="#392417" fill-opacity="0.501961" points="199,81 195,61 214,95" />
<polygon fill="#f0bc9b" fill-opacity="0.501961" points="96,114 82,96 97,96" />
<polygon fill="#cb8a5c" fill-opacity="0.501961" points="202,61 199,76 210,71" />
<polygon fill="#9aacba" fill-opacity="0.501961" points="83,69 84,91 71,73" />
<polygon fill="#e0c8ac" fill-opacity="0.501961" points="24,152 -16,146 24,207" />
<polygon fill="#6c6570" fill-opacity="0.501961" points="163,123 170,140 164,145" />
<polygon fill="#3e3531" fill-opacity="0.501961" points="146,147 149,134 152,160" />
<polygon fill="#d9dfe8" fill-opacity="0.501961" points="271,-16 271,79 215,-6" />
<polygon fill="#241200" fill-opacity="0.501961" points="23,152 10,138 19,122" />
<polygon fill="#2e1b13" fill-opacity="0.501961" points="52,39 41,51 61,73" />
<polygon fill="#4c423a" fill-opacity="0.501961" points="128,207 125,191 163,171" />
<polygon fill="#a26752" fill-opacity="0.501961" points="90,101 92,120 61,118" />
<polygon fill="#49341f" fill-opacity="0.501961" points="49,140 12,129 102,117" />
<polygon fill="#4c504f" fill-opacity="0.501961" points="198,156 204,185 211,175" />
<polygon fill="#6d5633" fill-opacity="0.501961" points="169,132 188,108 188,135" />
<polygon fill="#e4ccae" fill-opacity="0.501961" points="78,189 114,162 101,207" />
<polygon fill="#ac8452" fill-opacity="0.501961" points="45,72 48,87 23,74" />
<polygon fill="#6d5f40" fill-opacity="0.501961" points="8,90 20,122 -12,143" />
<polygon fill="#d4d9e2" fill-opacity="0.501961" points="145,52 145,-16 109,45" />
<polygon fill="#c9b69f" fill-opacity="0.501961" points="135,156 146,125 146,172" />
<polygon fill="#a5b8cd" fill-opacity="0.501961" points="139,71 77,39 140,50" />
<polygon fill="#0a0601" fill-opacity="0.501961" points="215,175 209,207 246,207" />
<polygon fill="#5e3219" fill-opacity="0.501961" points="238,175 246,162 232,156" />
<polygon fill="#6c5147" fill-opacity="0.501961" points="119,147 111,105 105,142" />
<polygon fill="#e3d2b8" fill-opacity="0.501961" points="164,166 196,151 205,207" />
<polygon fill="#200b00" fill-opacity="0.501961" points="212,70 208,59 215,65" />
<polygon fill="#c7c2c2" fill-opacity="0.501961" points="173,136 149,95 152,117" />
<polygon fill="#f5dcbf" fill-opacity="0.501961" points="8,135 -10,140 15,150" />
<polygon fill="#e09862" fill-opacity="0.501961" points="136,109 126,95 131,74" />
<polygon fill="#d8c6a2" fill-opacity="0.501961" points="106,121 107,128 94,139" />
<polygon fill="#e1c9aa" fill-opacity="0.501961" points="189,141 187,136 199,127" />
<polygon fill="#4e5e7b" fill-opacity="0.501961" points="214,96 221,90 221,70" />
<polygon fill="#8f8886" fill-opacity="0.501961" points="255,126 246,162 233,152" />
<polygon fill="#af9688" fill-opacity="0.501961" points="120,103 109,139 123,135" />
<polygon fill="#a4acb5" fill-opacity="0.501961" points="48,32 18,56 19,73" />
<polygon fill="#aea19b" fill-opacity="0.501961" points="215,114 235,122 213,148" />
<polygon fill="#96512d" fill-opacity="0.501961" points="211,129 190,147 203,119" />
<polygon fill="#949caf" fill-opacity="0.501961" points="245,101 253,52 271,144" />
<polygon fill="#fffae7" fill-opacity="0.501961" points="195,107 192,103 199,95" />
<polygon fill="#675132" fill-opacity="0.501961" points="118,108 117,99 125,102" />
<polygon fill="#8e7d6c" fill-opacity="0.501961" points="188,98 200,124 136,80" />
<polygon fill="#f1c8aa" fill-opacity="0.501961" points="69,115 84,108 77,107" />
<polygon fill="#1a1816" fill-opacity="0.501961" points="146,166 149,151 155,180" />
<polygon fill="#130900" fill-opacity="0.501961" points="84,172 86,153 81,154" />
<polygon fill="#3d2b19" fill-opacity="0.501961" points="38,76 52,110 19,101" />
<polygon fill="#1f0d00" fill-opacity="0.501961" points="66,90 68,83 51,88" />
<polygon fill="#672812" fill-opacity="0.501961" points="132,109 140,112 139,121" />
<polygon fill="#c3c8d2" fill-opacity="0.501961" points="193,20 199,43 264,26" />
<polygon fill="#edd3ba" fill-opacity="0.501961" points="128,104 134,139 114,110" />
<polygon fill="#a57e50" fill-opacity="0.501961" points="69,83 44,64 56,83" />
<polygon fill="#ddd0b7" fill-opacity="0.501961" points="27,154 -4,141 17,176" />
<polygon fill="#a3907c" fill-opacity="0.501961" points="235,33 252,72 221,69" />
<polygon fill="#266e8f" fill-opacity="0.501961" points="228,108 215,114 231,119" />
<polygon fill="#795631" fill-opacity="0.501961" points="80,122 43,83 58,117" />
<polygon fill="#6e2609" fill-opacity="0.501961" points="114,114 101,102 112,120" />
<polygon fill="#a56943" fill-opacity="0.501961" points="74,68 69,97 63,48" />
<polygon fill="#9d938b" fill-opacity="0.501961" points="43,62 35,43 21,82" />
<polygon fill="#bcc2ca" fill-opacity="0.501961" points="80,14 -14,8 33,42" />
<polygon fill="#63626c" fill-opacity="0.501961" points="271,124 238,106 240,91" />
<polygon fill="#bd8b63" fill-opacity="0.501961" points="57,39 75,36 41,30" />
<polygon fill="#000000" fill-opacity="0.501961" points="51,87 55,84 48,73" />
<polygon fill="#a7a250" fill-opacity="0.501961" points="11,127 6,135 -8,128" />
<polygon fill="#20232b" fill-opacity="0.501961" points="198,153 217,178 241,169" />
<polygon fill="#9f9f49" fill-opacity="0.501961" points="166,139 195,138 193,151" />
<polygon fill="#b9b1ac" fill-opacity="0.501961" points="240,108 207,104 236,90" />
<polygon fill="#cf9d6e" fill-opacity="0.501961" points="84,90 83,104 69,71" />
<polygon fill="#e9d0b2" fill-opacity="0.501961" points="271,143 246,166 254,197" />
<polygon fill="#897567" fill-opacity="0.501961" points="136,132 131,159 138,157" />
<polygon fill="#3e5875" fill-opacity="0.501961" points="223,172 246,172 249,193" />
<polygon fill="#9095a6" fill-opacity="0.501961" points="221,152 232,155 213,156" />
<polygon fill="#1f1104" fill-opacity="0.501961" points="15,139 36,164 85,128" />
<polygon fill="#b7ac8e" fill-opacity="0.501961" points="132,79 108,74 127,53" />
<polygon fill="#f1e1c8" fill-opacity="0.501961" points="88,167 88,156 104,159" />
<polygon fill="#7d664f" fill-opacity="0.501961" points="144,173 151,193 130,171" />
<polygon fill="#ffe0c5" fill-opacity="0.501961" points="146,73 149,80 132,77" />
<polygon fill="#978e82" fill-opacity="0.501961" points="167,117 202,48 165,81" />
<polygon fill="#d6c1a3" fill-opacity="0.501961" points="33,207 27,173 -16,155" />
<polygon fill="#23181a" fill-opacity="0.501961" points="201,68 195,64 198,78" />
<polygon fill="#877d61" fill-opacity="0.501961" points="78,61 102,57 103,106" />
<polygon fill="#423f3d" fill-opacity="0.501961" points="102,203 119,178 119,192" />
<polygon fill="#bfb7b3" fill-opacity="0.501961" points="149,134 168,167 156,169" />
<polygon fill="#e9a068" fill-opacity="0.501961" points="200,75 202,77 203,69" />
<polygon fill="#73694c" fill-opacity="0.501961" points="150,92 161,80 169,116" />
<polygon fill="#70707e" fill-opacity="0.501961" points="243,121 241,144 214,145" />
<polygon fill="#b29a7e" fill-opacity="0.501961" points="122,128 133,172 120,192" />
<polygon fill="#3d3228" fill-opacity="0.501961" points="-5,127 7,114 7,126" />
<polygon fill="#919496" fill-opacity="0.501961" points="167,80 192,101 197,77" />
<polygon fill="#9e5735" fill-opacity="0.501961" points="148,97 132,92 137,105" />
<polygon fill="#acbfcd" fill-opacity="0.501961" points="7,76 10,81 -12,84" />
<polygon fill="#392f31" fill-opacity="0.501961" points="254,159 247,153 248,159" />
<polygon fill="#7f582f" fill-opacity="0.501961" points="82,161 74,168 76,134" />
<polygon fill="#b8bbc6" fill-opacity="0.501961" points="101,47 100,17 31,17" />
<polygon fill="#94856f" fill-opacity="0.501961" points="12,41 17,62 22,29" />
<polygon fill="#372919" fill-opacity="0.501961" points="73,152 39,155 58,207" />
<polygon fill="#362110" fill-opacity="0.501961" points="205,93 214,69 214,85" />
<polygon fill="#f1d0c0" fill-opacity="0.501961" points="70,46 77,60 84,56" />
<polygon fill="#2b1d08" fill-opacity="0.501961" points="10,132 34,115 15,148" />
<polygon fill="#7e7468" fill-opacity="0.501961" points="226,83 245,84 224,62" />
<polygon fill="#a79a5e" fill-opacity="0.501961" points="97,51 87,54 114,76" />
<polygon fill="#a59d9b" fill-opacity="0.501961" points="153,85 148,40 137,66" />
<polygon fill="#d3bbae" fill-opacity="0.501961" points="200,153 195,149 209,151" />
<polygon fill="#e1e1ed" fill-opacity="0.501961" points="142,126 132,121 136,131" />
<polygon fill="#da9b68" fill-opacity="0.501961" points="102,106 103,90 111,106" />
<polygon fill="#ac9d6b" fill-opacity="0.501961" points="113,148 87,153 114,156" />
<polygon fill="#9ebad0" fill-opacity="0.501961" points="123,51 113,74 102,50" />
<polygon fill="#2a231b" fill-opacity="0.501961" points="199,144 198,135 206,135" />
<polygon fill="#dba288" fill-opacity="0.501961" points="133,88 145,88 150,93" />
<polygon fill="#fff6e4" fill-opacity="0.501961" points="208,99 205,105 209,110" />
<polygon fill="#babd5e" fill-opacity="0.501961" points="103,139 102,149 85,135" />
<polygon fill="#af9a76" fill-opacity="0.501961" points="218,49 189,44 169,69" />
<polygon fill="#5b606d" fill-opacity="0.501961" points="145,187 159,195 165,166" />
<polygon fill="#282b32" fill-opacity="0.501961" points="222,177 207,175 241,152" />
<polygon fill="#877c6b" fill-opacity="0.501961" points="23,68 4,94 15,109" />
<polygon fill="#7a725b" fill-opacity="0.501961" points="90,117 82,134 101,133" />
<polygon fill="#cdd0d7" fill-opacity="0.501961" points="117,-8 185,42 3,-2" />
<polygon fill="#76665b" fill-opacity="0.501961" points="167,115 176,128 200,88" />
<polygon fill="#a9b0ba" fill-opacity="0.501961" points="214,63 222,66 225,84" />
<polygon fill="#faf6ed" fill-opacity="0.501961" points="215,56 208,57 219,62" />
<polygon fill="#ddccb7" fill-opacity="0.501961" points="157,127 138,134 142,115" />
<polygon fill="#efddc3" fill-opacity="0.501961" points="168,158 197,155 165,177" />
<polygon fill="#000000" fill-opacity="0.501961" points="21,207 58,196 32,187" />
<polygon fill="#7b562d" fill-opacity="0.501961" points="23,82 17,104 34,76" />
<polygon fill="#f6e3d0" fill-opacity="0.501961" points="177,136 192,135 186,138" />
<polygon fill="#564340" fill-opacity="0.501961" points="142,84 131,86 146,88" />
<polygon fill="#b4adad" fill-opacity="0.501961" points="162,111 150,153 165,165" />
<polygon fill="#fcc187" fill-opacity="0.501961" points="199,64 199,67 205,64" />
<polygon fill="#503d28" fill-opacity="0.501961" points="116,175 111,174 117,181" />
<polygon fill="#583d1d" fill-opacity="0.501961" points="61,181 88,182 70,161" />
<polygon fill="#1f1107" fill-opacity="0.501961" points="54,64 49,67 41,47" />
<polygon fill="#dac9ab" fill-opacity="0.501961" points="75,207 79,186 112,169" />
<polygon fill="#c7b39f" fill-opacity="0.501961" points="135,138 131,107 125,150" />
<polygon fill="#d8c8ad" fill-opacity="0.501961" points="200,183 163,171 177,207" />
<polygon fill="#9b6046" fill-opacity="0.501961" points="131,107 135,121 142,123" />
<polygon fill="#68512e" fill-opacity="0.501961" points="49,121 23,130 36,134" />
<polygon fill="#87492e" fill-opacity="0.501961" points="80,71 71,70 67,61" />
<polygon fill="#585660" fill-opacity="0.501961" points="218,134 206,150 210,131" />
<polygon fill="#7f7a77" fill-opacity="0.501961" points="224,105 213,108 209,134" />
<polygon fill="#261811" fill-opacity="0.501961" points="79,102 71,86 73,106" />
<polygon fill="#fcbd83" fill-opacity="0.501961" points="175,130 177,138 172,134" />
<polygon fill="#a3a7ad" fill-opacity="0.501961" points="23,75 39,74 21,49" />
<polygon fill="#5b3a27" fill-opacity="0.501961" points="56,75 52,41 65,68" />
<polygon fill="#a48f78" fill-opacity="0.501961" points="160,53 178,74 143,90" />
<polygon fill="#d2d9bd" fill-opacity="0.501961" points="101,129 104,133 94,130" />
<polygon fill="#262428" fill-opacity="0.501961" points="250,127 244,134 242,118" />
<polygon fill="#694d3d" fill-opacity="0.501961" points="103,138 107,149 117,141" />
<polygon fill="#ffd0b0" fill-opacity="0.501961" points="97,117 96,114 90,115" />
<polygon fill="#ffe5c0" fill-opacity="0.501961" points="108,99 112,92 115,103" />
<polygon fill="#201b15" fill-opacity="0.501961" points="205,164 197,154 228,164" />
<polygon fill="#160d01" fill-opacity="0.501961" points="87,164 81,138 80,153" />
<polygon fill="#686d79" fill-opacity="0.501961" points="221,72 225,95 212,94" />
<polygon fill="#b8a89b" fill-opacity="0.501961" points="199,125 189,119 189,114" />
<polygon fill="#c4b29d" fill-opacity="0.501961" points="150,123 138,173 136,143" />
<polygon fill="#73615d" fill-opacity="0.501961" points="138,132 135,148 134,139" />
<polygon fill="#e1e6ee" fill-opacity="0.501961" points="269,5 165,4 211,-16" />
<polygon fill="#c7b9a8" fill-opacity="0.501961" points="215,105 214,93 222,111" />
<polygon fill="#b2aaa6" fill-opacity="0.501961" points="239,55 236,29 211,58" />
<polygon fill="#bea487" fill-opacity="0.501961" points="135,102 159,114 131,109" />
<polygon fill="#fff8ed" fill-opacity="0.501961" points="237,85 231,88 243,87" />
<polygon fill="#bbab9c" fill-opacity="0.501961" points="148,49 171,38 179,58" />
<polygon fill="#919083" fill-opacity="0.501961" points="120,95 131,86 97,74" />
<polygon fill="#aba8a6" fill-opacity="0.501961" points="254,151 242,152 246,144" />
<polygon fill="#b2b3bb" fill-opacity="0.501961" points="249,47 259,104 271,66" />
<polygon fill="#6c4922" fill-opacity="0.501961" points="28,178 41,188 30,171" />
<polygon fill="#000004" fill-opacity="0.501961" points="81,207 77,187 57,196" />
<polygon fill="#cfbe9d" fill-opacity="0.501961" points="209,117 217,132 199,116" />
<polygon fill="#586a64" fill-opacity="0.501961" points="202,116 207,113 210,116" />
<polygon fill="#998e91" fill-opacity="0.501961" points="172,148 161,165 171,156" />
<polygon fill="#c2bebe" fill-opacity="0.501961" points="152,106 168,125 163,109" />
<polygon fill="#d1c9c2" fill-opacity="0.501961" points="163,164 156,170 150,148" />
<polygon fill="#96836d" fill-opacity="0.501961" points="93,62 83,46 75,48" />
<polygon fill="#c2c6cf" fill-opacity="0.501961" points="45,-13 8,41 3,-1" />
<polygon fill="#171006" fill-opacity="0.501961" points="41,203 68,200 60,180" />
<polygon fill="#a86439" fill-opacity="0.501961" points="236,167 234,161 240,163" />
<polygon fill="#5c3108" fill-opacity="0.501961" points="25,169 27,161 33,171" />
<polygon fill="#88847e" fill-opacity="0.501961" points="80,58 96,73 90,97" />
<polygon fill="#9193a1" fill-opacity="0.501961" points="228,153 237,155 240,147" />
<polygon fill="#b0b7be" fill-opacity="0.501961" points="21,29 29,49 56,25" />
<polygon fill="#1a0e06" fill-opacity="0.501961" points="76,127 83,123 80,140" />
<polygon fill="#aa9a87" fill-opacity="0.501961" points="219,59 205,53 211,36" />
<polygon fill="#6f6648" fill-opacity="0.501961" points="96,132 104,126 100,99" />
<polygon fill="#63482c" fill-opacity="0.501961" points="77,133 78,128 92,132" />
<polygon fill="#885f3b" fill-opacity="0.501961" points="85,125 82,141 88,157" />
<polygon fill="#77542f" fill-opacity="0.501961" points="75,118 64,96 32,82" />
<polygon fill="#010000" fill-opacity="0.501961" points="205,66 208,66 208,68" />
<polygon fill="#43301c" fill-opacity="0.501961" points="22,137 36,129 3,134" />
<polygon fill="#2b1604" fill-opacity="0.501961" points="62,89 67,98 71,98" />
<polygon fill="#ac9e89" fill-opacity="0.501961" points="208,53 185,63 185,26" />
<polygon fill="#697b92" fill-opacity="0.501961" points="237,189 248,181 247,197" />
<polygon fill="#9e5941" fill-opacity="0.501961" points="145,91 145,102 131,90" />
<polygon fill="#cdd0d9" fill-opacity="0.501961" points="218,42 249,13 205,15" />
<polygon fill="#bdc3ce" fill-opacity="0.501961" points="216,27 206,48 184,25" />
<polygon fill="#eebf98" fill-opacity="0.501961" points="132,84 146,71 129,72" />
<polygon fill="#463c30" fill-opacity="0.501961" points="143,203 137,191 141,173" />
<polygon fill="#87644a" fill-opacity="0.501961" points="39,42 55,33 69,41" />
<polygon fill="#a0653e" fill-opacity="0.501961" points="85,108 93,101 86,101" />
<polygon fill="#998565" fill-opacity="0.501961" points="233,59 221,64 248,85" />
<polygon fill="#503d2c" fill-opacity="0.501961" points="181,124 188,115 187,125" />
<polygon fill="#a28d76" fill-opacity="0.501961" points="115,175 122,149 134,187" />
<polygon fill="#bc917c" fill-opacity="0.501961" points="65,58 78,64 68,46" />
<polygon fill="#c48a66" fill-opacity="0.501961" points="212,69 205,70 212,75" />
<polygon fill="#908a82" fill-opacity="0.501961" points="179,76 207,95 188,58" />
<polygon fill="#1c1309" fill-opacity="0.501961" points="40,91 52,119 49,98" />
<polygon fill="#d7aa79" fill-opacity="0.501961" points="48,31 39,39 59,32" />
<polygon fill="#170e03" fill-opacity="0.501961" points="32,152 70,135 72,152" />
<polygon fill="#7a777d" fill-opacity="0.501961" points="216,157 205,154 225,152" />
<polygon fill="#704d28" fill-opacity="0.501961" points="73,171 74,137 81,150" />
<polygon fill="#958d8a" fill-opacity="0.501961" points="154,137 153,149 159,155" />
<polygon fill="#98846d" fill-opacity="0.501961" points="85,173 81,173 82,168" />
<polygon fill="#a27442" fill-opacity="0.501961" points="63,94 73,109 66,106" />
<polygon fill="#906c48" fill-opacity="0.501961" points="41,46 44,64 38,55" />
<polygon fill="#392013" fill-opacity="0.501961" points="213,92 204,86 205,73" />
<polygon fill="#d7a55f" fill-opacity="0.501961" points="42,78 36,73 43,71" />
<polygon fill="#919037" fill-opacity="0.501961" points="174,147 190,150 170,152" />
<polygon fill="#776a67" fill-opacity="0.501961" points="111,161 119,143 118,162" />
<polygon fill="#6d676e" fill-opacity="0.501961" points="196,111 205,97 202,107" />
<polygon fill="#1d0f08" fill-opacity="0.501961" points="212,61 205,57 198,60" />
<polygon fill="#f7e3ce" fill-opacity="0.501961" points="193,105 206,96 200,96" />
<polygon fill="#785031" fill-opacity="0.501961" points="59,94 78,89 72,82" />
<polygon fill="#bbc5d5" fill-opacity="0.501961" points="125,58 89,38 146,49" />
<polygon fill="#b2a082" fill-opacity="0.501961" points="133,71 111,89 126,58" />
<polygon fill="#906737" fill-opacity="0.501961" points="21,120 16,106 10,122" />
<polygon fill="#4f4e55" fill-opacity="0.501961" points="239,103 249,118 244,95" />
<polygon fill="#e8c891" fill-opacity="0.501961" points="86,148 97,144 88,144" />
<polygon fill="#daa785" fill-opacity="0.501961" points="145,102 149,93 147,83" />
<polygon fill="#8f9234" fill-opacity="0.501961" points="97,147 86,151 110,151" />
<polygon fill="#49341d" fill-opacity="0.501961" points="21,113 38,82 47,113" />
<polygon fill="#3f373a" fill-opacity="0.501961" points="212,153 223,146 236,146" />
<polygon fill="#2c1d0e" fill-opacity="0.501961" points="63,173 59,121 50,139" />
<polygon fill="#fff2d0" fill-opacity="0.501961" points="129,98 128,113 123,110" />
<polygon fill="#765b4d" fill-opacity="0.501961" points="231,112 232,119 227,118" />
<polygon fill="#b2a08d" fill-opacity="0.501961" points="146,168 131,174 146,142" />
<polygon fill="#3f9bb7" fill-opacity="0.501961" points="227,113 225,107 233,110" />
<polygon fill="#bfc0c0" fill-opacity="0.501961" points="187,38 180,49 164,32" />
<polygon fill="#6a4e31" fill-opacity="0.501961" points="53,91 27,77 47,78" />
<polygon fill="#74613a" fill-opacity="0.501961" points="170,116 177,134 189,133" />
<polygon fill="#4a4345" fill-opacity="0.501961" points="234,161 216,162 242,151" />
<polygon fill="#dadce0" fill-opacity="0.501961" points="111,36 156,28 162,41" />
<polygon fill="#b1a08f" fill-opacity="0.501961" points="124,146 132,166 134,136" />
<polygon fill="#5d5546" fill-opacity="0.501961" points="10,127 11,101 -4,107" />
<polygon fill="#86714f" fill-opacity="0.501961" points="115,87 120,104 114,103" />
<polygon fill="#a57a4e" fill-opacity="0.501961" points="52,76 67,76 59,86" />
<polygon fill="#a1997b" fill-opacity="0.501961" points="84,132 88,124 89,132" />
<polygon fill="#ccc6c6" fill-opacity="0.501961" points="150,119 149,139 162,110" />
<polygon fill="#c9b8a5" fill-opacity="0.501961" points="193,95 194,110 189,111" />
<polygon fill="#5a4339" fill-opacity="0.501961" points="94,120 83,119 93,127" />
<polygon fill="#b97447" fill-opacity="0.501961" points="133,93 128,89 129,78" />
<polygon fill="#352011" fill-opacity="0.501961" points="49,40 41,51 48,68" />
<polygon fill="#84715e" fill-opacity="0.501961" points="181,115 169,86 171,114" />
<polygon fill="#946b5c" fill-opacity="0.501961" points="77,121 93,107 75,114" />
<polygon fill="#9bb0cd" fill-opacity="0.501961" points="19,58 30,56 25,67" />
<polygon fill="#2c0600" fill-opacity="0.501961" points="132,110 140,114 134,114" />
<polygon fill="#dac3a0" fill-opacity="0.501961" points="-16,133 6,144 9,136" />
<polygon fill="#cebb9c" fill-opacity="0.501961" points="101,175 89,170 86,188" />
<polygon fill="#7f7256" fill-opacity="0.501961" points="103,97 85,94 99,85" />
<polygon fill="#837d76" fill-opacity="0.501961" points="271,125 271,102 247,126" />
<polygon fill="#846d57" fill-opacity="0.501961" points="134,157 131,174 137,189" />
<polygon fill="#7c5d38" fill-opacity="0.501961" points="54,119 34,126 55,126" />
<polygon fill="#dba76d" fill-opacity="0.501961" points="200,120 197,124 209,120" />
<polygon fill="#dbbd9d" fill-opacity="0.501961" points="124,141 122,123 132,135" />
<polygon fill="#decdb3" fill-opacity="0.501961" points="207,207 197,157 177,164" />
<polygon fill="#dcc9ad" fill-opacity="0.501961" points="29,190 27,171 -2,190" />
<polygon fill="#9b938a" fill-opacity="0.501961" points="43,60 35,45 17,87" />
<polygon fill="#e7d6ca" fill-opacity="0.501961" points="183,134 172,137 169,134" />
<polygon fill="#847c7f" fill-opacity="0.501961" points="160,133 159,121 157,127" />
<polygon fill="#9c8763" fill-opacity="0.501961" points="188,52 174,68 189,70" />
<polygon fill="#6d7687" fill-opacity="0.501961" points="169,198 140,207 164,178" />
<polygon fill="#c77556" fill-opacity="0.501961" points="110,106 116,116 114,104" />
<polygon fill="#220904" fill-opacity="0.501961" points="113,116 108,113 110,117" />
<polygon fill="#2c3139" fill-opacity="0.501961" points="199,207 211,177 220,202" />
<polygon fill="#eed1a3" fill-opacity="0.501961" points="114,89 109,95 105,89" />
<polygon fill="#847668" fill-opacity="0.501961" points="105,207 111,173 116,185" />
<polygon fill="#ded0b5" fill-opacity="0.501961" points="26,153 9,148 20,172" />
<polygon fill="#4e5050" fill-opacity="0.501961" points="210,167 207,195 199,162" />
<polygon fill="#979ca2" fill-opacity="0.501961" points="80,86 71,73 81,68" />
<polygon fill="#e0d1be" fill-opacity="0.501961" points="139,124 157,120 143,116" />
<polygon fill="#7b6658" fill-opacity="0.501961" points="112,118 112,145 105,134" />
<polygon fill="#b2b5b5" fill-opacity="0.501961" points="93,38 71,29 81,44" />
<polygon fill="#e1d1a5" fill-opacity="0.501961" points="85,134 100,135 91,137" />
<polygon fill="#b19b94" fill-opacity="0.501961" points="118,111 122,112 119,119" />
<polygon fill="#b0b054" fill-opacity="0.501961" points="86,139 101,144 103,134" />
<polygon fill="#b5aa9e" fill-opacity="0.501961" points="152,160 155,175 163,167" />
<polygon fill="#615c62" fill-opacity="0.501961" points="245,153 237,153 242,147" />
<polygon fill="#9a856d" fill-opacity="0.501961" points="199,91 212,93 199,84" />
<polygon fill="#ffe4c8" fill-opacity="0.501961" points="92,105 97,106 96,101" />
<polygon fill="#333d4e" fill-opacity="0.501961" points="240,169 241,176 218,176" />
<polygon fill="#cbba9d" fill-opacity="0.501961" points="115,154 105,151 101,154" />
<polygon fill="#a0644d" fill-opacity="0.501961" points="213,134 195,124 199,134" />
<polygon fill="#3e2d16" fill-opacity="0.501961" points="22,118 15,115 26,109" />
<polygon fill="#67584c" fill-opacity="0.501961" points="206,149 194,135 198,146" />
<polygon fill="#6b5f61" fill-opacity="0.501961" points="168,141 164,136 163,142" />
<polygon fill="#e7d6be" fill-opacity="0.501961" points="176,168 197,154 195,169" />
<polygon fill="#c3bbb5" fill-opacity="0.501961" points="218,136 216,142 222,135" />
<polygon fill="#e5d8af" fill-opacity="0.501961" points="207,117 210,123 209,114" />
<polygon fill="#8c7a62" fill-opacity="0.501961" points="-12,28 4,51 -1,74" />
<polygon fill="#b9a892" fill-opacity="0.501961" points="191,154 174,157 173,152" />
<polygon fill="#d9c184" fill-opacity="0.501961" points="92,150 102,144 95,144" />
<polygon fill="#4e371b" fill-opacity="0.501961" points="62,181 66,190 86,175" />
<polygon fill="#bfc5d1" fill-opacity="0.501961" points="127,19 51,7 108,46" />
<polygon fill="#150e05" fill-opacity="0.501961" points="41,123 55,115 27,113" />
<polygon fill="#cdb798" fill-opacity="0.501961" points="-13,186 27,179 -16,167" />
<polygon fill="#120e0b" fill-opacity="0.501961" points="215,82 213,78 202,85" />
<polygon fill="#a8a3a2" fill-opacity="0.501961" points="155,110 164,114 170,135" />
<polygon fill="#623620" fill-opacity="0.501961" points="216,76 202,81 203,73" />
<polygon fill="#271b0b" fill-opacity="0.501961" points="54,87 44,78 51,78" />
<polygon fill="#b97c47" fill-opacity="0.501961" points="246,139 248,132 249,139" />
<polygon fill="#f1e9d1" fill-opacity="0.501961" points="6,90 6,86 -4,86" />
<polygon fill="#89796d" fill-opacity="0.501961" points="173,101 179,128 180,107" />
<polygon fill="#37363e" fill-opacity="0.501961" points="151,183 158,175 148,176" />
<polygon fill="#d4b394" fill-opacity="0.501961" points="54,36 66,30 75,35" />
<polygon fill="#352d27" fill-opacity="0.501961" points="243,125 259,127 248,129" />
<polygon fill="#444451" fill-opacity="0.501961" points="242,113 239,91 244,101" />
<polygon fill="#b9b6b5" fill-opacity="0.501961" points="218,65 232,30 219,41" />
<polygon fill="#a99569" fill-opacity="0.501961" points="225,190 227,206 245,207" />
<polygon fill="#854823" fill-opacity="0.501961" points="136,106 138,108 141,108" />
<polygon fill="#4d463e" fill-opacity="0.501961" points="217,69 214,64 215,76" />
<polygon fill="#908c90" fill-opacity="0.501961" points="240,159 243,150 249,162" />
<polygon fill="#9e8d82" fill-opacity="0.501961" points="228,54 237,64 227,39" />
<polygon fill="#8a8187" fill-opacity="0.501961" points="162,122 166,142 172,141" />
<polygon fill="#f8eee0" fill-opacity="0.501961" points="206,108 209,108 211,114" />
<polygon fill="#75747c" fill-opacity="0.501961" points="238,117 223,147 243,125" />
<polygon fill="#816e60" fill-opacity="0.501961" points="172,131 167,121 171,107" />
<polygon fill="#201c21" fill-opacity="0.501961" points="241,111 243,121 245,119" />
<polygon fill="#9f9699" fill-opacity="0.501961" points="235,39 251,60 248,77" />
<polygon fill="#2a2421" fill-opacity="0.501961" points="147,162 147,143 152,160" />
<polygon fill="#a8a297" fill-opacity="0.501961" points="203,88 192,72 192,85" />
<polygon fill="#a5947b" fill-opacity="0.501961" points="187,43 210,59 196,42" />
<polygon fill="#593c20" fill-opacity="0.501961" points="65,108 61,116 57,92" />
<polygon fill="#dda574" fill-opacity="0.501961" points="129,95 132,86 134,106" />
<polygon fill="#decdb3" fill-opacity="0.501961" points="171,205 165,160 197,173" />
<polygon fill="#3d1707" fill-opacity="0.501961" points="202,69 199,72 201,67" />
<polygon fill="#261b0c" fill-opacity="0.501961" points="12,143 28,129 20,122" />
<polygon fill="#5c412e" fill-opacity="0.501961" points="53,37 63,62 44,39" />
<polygon fill="#8f745e" fill-opacity="0.501961" points="142,111 151,105 148,111" />
<polygon fill="#404b57" fill-opacity="0.501961" points="227,187 238,188 241,181" />
<polygon fill="#140f0c" fill-opacity="0.501961" points="72,110 73,96 78,103" />
<polygon fill="#dcccb4" fill-opacity="0.501961" points="145,109 143,106 154,108" />
<polygon fill="#101114" fill-opacity="0.501961" points="197,71 195,64 198,59" />
<polygon fill="#c1c9d6" fill-opacity="0.501961" points="183,20 184,33 135,33" />
<polygon fill="#bba999" fill-opacity="0.501961" points="195,135 190,132 190,123" />
<polygon fill="#a2a4ac" fill-opacity="0.501961" points="156,54 131,72 137,55" />
<polygon fill="#392211" fill-opacity="0.501961" points="81,130 71,139 73,117" />
<polygon fill="#6f5029" fill-opacity="0.501961" points="73,160 72,175 87,183" />
<polygon fill="#0d0b09" fill-opacity="0.501961" points="221,181 212,188 230,185" />
<polygon fill="#70512d" fill-opacity="0.501961" points="46,110 35,100 45,105" />
<polygon fill="#52473a" fill-opacity="0.501961" points="151,207 145,189 111,190" />
<polygon fill="#9d9684" fill-opacity="0.501961" points="10,82 19,94 -1,81" />
<polygon fill="#a99889" fill-opacity="0.501961" points="12,43 6,55 -1,28" />
<polygon fill="#7d675c" fill-opacity="0.501961" points="199,128 197,111 191,130" />
<polygon fill="#4b474d" fill-opacity="0.501961" points="231,143 237,147 214,154" />
<polygon fill="#baab9e" fill-opacity="0.501961" points="214,129 227,119 221,116" />
<polygon fill="#322617" fill-opacity="0.501961" points="87,182 83,178 83,168" />
<polygon fill="#5a5234" fill-opacity="0.501961" points="164,102 161,107 153,101" />
<polygon fill="#7f522c" fill-opacity="0.501961" points="82,99 77,94 76,97" />
<polygon fill="#878582" fill-opacity="0.501961" points="180,62 196,88 191,102" />
<polygon fill="#538aaa" fill-opacity="0.501961" points="213,110 212,117 211,113" />
<polygon fill="#949190" fill-opacity="0.501961" points="4,63 -4,78 41,70" />
<polygon fill="#ca8c6a" fill-opacity="0.501961" points="137,117 139,122 135,123" />
<polygon fill="#baaa98" fill-opacity="0.501961" points="191,49 197,59 193,62" />
<polygon fill="#8a5643" fill-opacity="0.501961" points="77,113 84,123 86,115" />
<polygon fill="#3f2612" fill-opacity="0.501961" points="29,77 26,77 22,84" />
<polygon fill="#eadbc7" fill-opacity="0.501961" points="14,148 28,156 5,150" />
<polygon fill="#ddb99d" fill-opacity="0.501961" points="74,112 77,108 75,116" />
<polygon fill="#a19383" fill-opacity="0.501961" points="133,151 130,188 120,186" />
<polygon fill="#ba845a" fill-opacity="0.501961" points="64,63 67,74 67,61" />
<polygon fill="#735a43" fill-opacity="0.501961" points="124,104 123,99 115,107" />
<polygon fill="#83726f" fill-opacity="0.501961" points="220,115 211,127 211,115" />
<polygon fill="#8d8a7d" fill-opacity="0.501961" points="198,165 201,167 202,166" />
<polygon fill="#935c3a" fill-opacity="0.501961" points="60,53 64,52 64,67" />
<polygon fill="#a2a4ac" fill-opacity="0.501961" points="245,94 250,107 249,97" />
<polygon fill="#9499a2" fill-opacity="0.501961" points="269,112 240,81 263,77" />
<polygon fill="#9f9ea5" fill-opacity="0.501961" points="213,104 233,75 227,98" />
<polygon fill="#9c958a" fill-opacity="0.501961" points="128,85 127,99 109,82" />
<polygon fill="#533b22" fill-opacity="0.501961" points="21,87 40,119 26,107" />
<polygon fill="#11141e" fill-opacity="0.501961" points="203,158 228,165 221,173" />
<polygon fill="#be9777" fill-opacity="0.501961" points="105,117 108,114 105,123" />
<polygon fill="#736f63" fill-opacity="0.501961" points="10,90 10,97 -2,97" />
<polygon fill="#aaadae" fill-opacity="0.501961" points="29,46 49,25 41,40" />
<polygon fill="#93825a" fill-opacity="0.501961" points="113,83 103,87 114,88" />
<polygon fill="#d4d9e1" fill-opacity="0.501961" points="124,27 144,31 146,55" />
<polygon fill="#9e624c" fill-opacity="0.501961" points="86,106 77,112 95,107" />
<polygon fill="#97764a" fill-opacity="0.501961" points="25,88 20,96 14,98" />
<polygon fill="#d3d6df" fill-opacity="0.501961" points="74,4 154,-16 234,21" />
<polygon fill="#aaa098" fill-opacity="0.501961" points="164,39 179,60 161,66" />
<polygon fill="#bfbfc0" fill-opacity="0.501961" points="250,45 235,27 239,47" />
<polygon fill="#dcd5d0" fill-opacity="0.501961" points="249,91 229,86 242,85" />
<polygon fill="#ccc3c0" fill-opacity="0.501961" points="168,153 160,152 157,137" />
<polygon fill="#f8dcca" fill-opacity="0.501961" points="79,51 83,57 76,55" />
<polygon fill="#8e6842" fill-opacity="0.501961" points="63,77 57,85 48,69" />
<polygon fill="#89785e" fill-opacity="0.501961" points="79,57 99,78 101,63" />
<polygon fill="#8ea3ae" fill-opacity="0.501961" points="4,99 -11,103 -13,78" />
<polygon fill="#8a8688" fill-opacity="0.501961" points="242,101 239,89 243,90" />
<polygon fill="#e9d8ba" fill-opacity="0.501961" points="105,187 113,204 79,189" />
<polygon fill="#2a87ac" fill-opacity="0.501961" points="221,115 227,110 217,112" />
<polygon fill="#bdae9f" fill-opacity="0.501961" points="147,39 155,46 144,46" />
<polygon fill="#8b633c" fill-opacity="0.501961" points="85,163 89,152 85,152" />
<polygon fill="#3e2811" fill-opacity="0.501961" points="43,66 52,75 45,71" />
<polygon fill="#a39076" fill-opacity="0.501961" points="178,81 179,66 142,69" />
<polygon fill="#96654a" fill-opacity="0.501961" points="69,37 73,38 73,44" />
<polygon fill="#aeab99" fill-opacity="0.501961" points="86,37 97,51 83,44" />
<polygon fill="#241807" fill-opacity="0.501961" points="10,133 32,120 19,122" />
<polygon fill="#c2b5a4" fill-opacity="0.501961" points="233,100 235,112 237,94" />
<polygon fill="#755c48" fill-opacity="0.501961" points="147,172 131,196 137,174" />
<polygon fill="#0d0500" fill-opacity="0.501961" points="61,143 27,152 47,153" />
<polygon fill="#914323" fill-opacity="0.501961" points="102,105 112,108 109,113" />
<polygon fill="#4d3526" fill-opacity="0.501961" points="74,107 69,95 72,81" />
<polygon fill="#82754e" fill-opacity="0.501961" points="150,92 159,86 155,81" />
<polygon fill="#8d7b65" fill-opacity="0.501961" points="14,90 28,77 8,84" />
<polygon fill="#b7a075" fill-opacity="0.501961" points="171,70 182,46 197,47" />
<polygon fill="#666365" fill-opacity="0.501961" points="142,207 152,203 147,169" />
<polygon fill="#000000" fill-opacity="0.501961" points="84,128 82,123 78,124" />
<polygon fill="#392715" fill-opacity="0.501961" points="75,131 32,140 40,128" />
<polygon fill="#b2aa68" fill-opacity="0.501961" points="-7,128 9,131 -10,133" />
<polygon fill="#d2bfaa" fill-opacity="0.501961" points="200,113 205,112 207,99" />
<polygon fill="#a79c94" fill-opacity="0.501961" points="225,121 231,140 210,128" />
<polygon fill="#4b3822" fill-opacity="0.501961" points="117,149 114,150 118,144" />
<polygon fill="#dfcdb2" fill-opacity="0.501961" points="109,162 88,155 97,207" />
</g>
</svg>