<svg xmlns="http://www.w3.org/2000/svg" version="1.1" width="1024" height="768">
<rect x="0" y="0" width="1024" height="768" fill="#988d82" />
<g transform="scale(4.000000) translate(0.5 0.5)">
<polygon fill="#110000" fill-opacity="0.501961" points="-14,123 68,34 90,207" />
<polygon fill="#f0ffff" fill-opacity="0.501961" points="-16,-1 146,77 271,0" />
<polygon fill="#000008" fill-opacity="0.501961" points="209,207 194,116 249,175" />
<polygon fill="#1a0300" fill-opacity="0.501961" points="102,120 13,109 39,207" />
<polygon fill="#d2d8eb" fill-opacity="0.501961" points="246,-16 -16,24 271,56" />
<polygon fill="#ffeacc" fill-opacity="0.501961" points="102,93 200,163 192,207" />
<polygon fill="#ffffcf" fill-opacity="0.501961" points="-15,186 36,202 4,123" />
<polygon fill="#95816e" fill-opacity="0.501961" points="49,76 194,34 271,168" />
<polygon fill="#362000" fill-opacity="0.501961" points="81,207 27,207 46,24" />
<polygon fill="#ffffd4" fill-opacity="0.501961" points="62,207 110,186 109,150" />
<polygon fill="#00000b" fill-opacity="0.501961" points="148,144 146,188 162,207" />
<polygon fill="#381604" fill-opacity="0.501961" points="214,59 214,97 186,62" />
<polygon fill="#2f3850" fill-opacity="0.501961" points="264,117 242,98 217,185" />
<polygon fill="#bdc5d0" fill-opacity="0.501961" points="-16,3 41,80 41,-13" />
<polygon fill="#a5805a" fill-opacity="0.501961" points="104,53 131,207 41,21" />
<polygon fill="#d2b69e" fill-opacity="0.501961" points="167,110 137,168 103,86" />
<polygon fill="#684020" fill-opacity="0.501961" points="35,43 64,35 64,140" />
<polygon fill="#a9b3ba" fill-opacity="0.501961" points="228,141 242,83 188,98" />
<polygon fill="#ffffdd" fill-opacity="0.501961" points="252,203 270,138 247,167" />
<polygon fill="#ebd49b" fill-opacity="0.501961" points="95,207 85,124 115,165" />
<polygon fill="#4b4647" fill-opacity="0.501961" points="161,171 108,188 171,204" />
<polygon fill="#53350c" fill-opacity="0.501961" points="45,207 85,120 88,178" />
<polygon fill="#f6e5c2" fill-opacity="0.501961" points="162,186 195,145 206,206" />
<polygon fill="#0d1018" fill-opacity="0.501961" points="239,155 198,163 222,200" />
<polygon fill="#897753" fill-opacity="0.501961" points="238,157 155,80 172,152" />
<polygon fill="#885e3f" fill-opacity="0.501961" points="33,126 126,96 109,126" />
<polygon fill="#c1c4c9" fill-opacity="0.501961" points="152,80 116,81 68,-9" />
<polygon fill="#fff6d5" fill-opacity="0.501961" points="24,169 26,152 5,147" />
<polygon fill="#e1e7f2" fill-opacity="0.501961" points="265,-4 264,52 156,-15" />
<polygon fill="#8d7c50" fill-opacity="0.501961" points="-16,149 21,120 18,71" />
<polygon fill="#c0a495" fill-opacity="0.501961" points="74,22 64,62 100,124" />
<polygon fill="#944e2b" fill-opacity="0.501961" points="148,113 133,78 132,121" />
<polygon fill="#c2ba9e" fill-opacity="0.501961" points="114,131 209,154 155,112" />
<polygon fill="#c3c9d4" fill-opacity="0.501961" points="114,-16 33,47 -14,5" />
<polygon fill="#b4a28b" fill-opacity="0.501961" points="195,24 98,84 194,83" />
<polygon fill="#2d1e08" fill-opacity="0.501961" points="32,78 11,140 70,199" />
<polygon fill="#dddbd5" fill-opacity="0.501961" points="224,50 219,70 208,55" />
<polygon fill="#767b88" fill-opacity="0.501961" points="205,157 256,156 217,79" />
<polygon fill="#85582f" fill-opacity="0.501961" points="27,77 84,125 73,61" />
<polygon fill="#6a4f3b" fill-opacity="0.501961" points="173,134 163,104 204,127" />
<polygon fill="#484652" fill-opacity="0.501961" points="191,126 245,160 250,204" />
<polygon fill="#999994" fill-opacity="0.501961" points="-6,82 46,74 20,24" />
<polygon fill="#5c4839" fill-opacity="0.501961" points="105,144 121,157 110,109" />
<polygon fill="#140800" fill-opacity="0.501961" points="79,98 76,108 50,81" />
<polygon fill="#ffefce" fill-opacity="0.501961" points="126,141 120,110 131,97" />
<polygon fill="#a6b0c3" fill-opacity="0.501961" points="262,132 269,8 242,87" />
<polygon fill="#22100b" fill-opacity="0.501961" points="41,44 65,47 48,68" />
<polygon fill="#2d201d" fill-opacity="0.501961" points="196,81 222,93 216,71" />
<polygon fill="#231609" fill-opacity="0.501961" points="27,137 32,199 90,121" />
<polygon fill="#b7b2bb" fill-opacity="0.501961" points="165,109 157,175 142,116" />
<polygon fill="#2e2b2e" fill-opacity="0.501961" points="244,134 254,128 239,90" />
<polygon fill="#a39a4e" fill-opacity="0.501961" points="83,120 120,157 88,154" />
<polygon fill="#b1bed2" fill-opacity="0.501961" points="114,63 37,8 155,51" />
<polygon fill="#dbc7b6" fill-opacity="0.501961" points="190,107 201,93 237,102" />
<polygon fill="#d69c7d" fill-opacity="0.501961" points="98,111 96,97 62,116" />
<polygon fill="#585331" fill-opacity="0.501961" points="153,83 155,103 172,115" />
<polygon fill="#a6aa2a" fill-opacity="0.501961" points="173,137 172,153 201,148" />
<polygon fill="#ffd7a4" fill-opacity="0.501961" points="117,113 100,90 112,93" />
<polygon fill="#afa294" fill-opacity="0.501961" points="265,73 241,41 157,39" />
<polygon fill="#040000" fill-opacity="0.501961" points="207,58 190,66 200,57" />
<polygon fill="#ae9b8b" fill-opacity="0.501961" points="112,130 197,136 124,152" />
<polygon fill="#645445" fill-opacity="0.501961" points="108,191 134,197 111,172" />
<polygon fill="#7c7d69" fill-opacity="0.501961" points="86,38 81,99 107,91" />
<polygon fill="#c7b098" fill-opacity="0.501961" points="235,120 199,115 221,138" />
<polygon fill="#dacab3" fill-opacity="0.501961" points="133,110 156,110 151,98" />
<polygon fill="#5e544f" fill-opacity="0.501961" points="166,187 140,171 121,198" />
<polygon fill="#e9f7f1" fill-opacity="0.501961" points="7,88 -16,63 -16,103" />
<polygon fill="#d9dce7" fill-opacity="0.501961" points="208,19 158,-16 47,2" />
<polygon fill="#e4d3ba" fill-opacity="0.501961" points="171,207 163,158 199,148" />
<polygon fill="#855e31" fill-opacity="0.501961" points="77,134 85,183 70,176" />
<polygon fill="#e7d1c1" fill-opacity="0.501961" points="88,154 104,207 111,156" />
<polygon fill="#ffe3d0" fill-opacity="0.501961" points="82,56 75,61 71,46" />
<polygon fill="#6f5634" fill-opacity="0.501961" points="21,133 66,113 47,134" />
<polygon fill="#18191b" fill-opacity="0.501961" points="225,201 225,158 198,155" />
<polygon fill="#342517" fill-opacity="0.501961" points="23,165 59,207 76,147" />
<polygon fill="#e5caae" fill-opacity="0.501961" points="3,204 28,157 -9,128" />
<polygon fill="#ffcca0" fill-opacity="0.501961" points="127,82 152,79 136,69" />
<polygon fill="#e0dbda" fill-opacity="0.501961" points="222,84 244,84 237,93" />
<polygon fill="#3b6c7f" fill-opacity="0.501961" points="231,112 213,108 212,122" />
<polygon fill="#c88b62" fill-opacity="0.501961" points="219,75 200,63 202,72" />
<polygon fill="#5e2411" fill-opacity="0.501961" points="130,107 139,122 140,114" />
<polygon fill="#000000" fill-opacity="0.501961" points="48,86 49,73 57,90" />
<polygon fill="#6f4a38" fill-opacity="0.501961" points="48,38 77,38 59,57" />
<polygon fill="#a28d77" fill-opacity="0.501961" points="136,129 116,200 137,178" />
<polygon fill="#938875" fill-opacity="0.501961" points="22,72 10,94 13,122" />
<polygon fill="#e0cfc2" fill-opacity="0.501961" points="127,120 164,113 142,136" />
<polygon fill="#93918b" fill-opacity="0.501961" points="199,84 165,113 191,53" />
<polygon fill="#624f32" fill-opacity="0.501961" points="4,129 39,111 -16,96" />
<polygon fill="#b08759" fill-opacity="0.501961" points="59,86 66,79 46,67" />
<polygon fill="#3a312c" fill-opacity="0.501961" points="148,139 154,170 144,181" />
<polygon fill="#0e0100" fill-opacity="0.501961" points="79,139 85,166 87,154" />
<polygon fill="#515555" fill-opacity="0.501961" points="213,172 198,157 205,186" />
<polygon fill="#9b8b7c" fill-opacity="0.501961" points="190,115 191,148 204,100" />
<polygon fill="#fae1c1" fill-opacity="0.501961" points="94,182 79,186 78,207" />
<polygon fill="#908c90" fill-opacity="0.501961" points="175,144 161,175 163,126" />
<polygon fill="#674e39" fill-opacity="0.501961" points="117,117 98,99 97,127" />
<polygon fill="#bbbfc8" fill-opacity="0.501961" points="-16,36 9,2 130,27" />
<polygon fill="#fff1db" fill-opacity="0.501961" points="208,101 202,109 211,114" />
<polygon fill="#1e1000" fill-opacity="0.501961" points="76,151 15,147 12,129" />
<polygon fill="#413130" fill-opacity="0.501961" points="202,144 194,136 221,133" />
<polygon fill="#c0c3c9" fill-opacity="0.501961" points="242,32 124,53 207,10" />
<polygon fill="#af9d7d" fill-opacity="0.501961" points="189,69 205,49 184,26" />
<polygon fill="#9b9da0" fill-opacity="0.501961" points="-14,89 41,70 39,37" />
<polygon fill="#f1dbbc" fill-opacity="0.501961" points="182,138 193,137 197,129" />
<polygon fill="#a75f40" fill-opacity="0.501961" points="145,83 124,80 143,105" />
<polygon fill="#2e1e13" fill-opacity="0.501961" points="205,85 213,97 215,71" />
<polygon fill="#fffbe2" fill-opacity="0.501961" points="194,99 203,94 193,108" />
<polygon fill="#c5a176" fill-opacity="0.501961" points="115,70 134,108 129,59" />
<polygon fill="#918f99" fill-opacity="0.501961" points="250,145 231,157 209,157" />
<polygon fill="#a8acaa" fill-opacity="0.501961" points="68,71 82,71 82,92" />
<polygon fill="#4c6989" fill-opacity="0.501961" points="251,199 245,170 219,207" />
<polygon fill="#281909" fill-opacity="0.501961" points="86,123 58,122 55,162" />
<polygon fill="#dbc3a4" fill-opacity="0.501961" points="28,172 31,205 -16,154" />
<polygon fill="#6e3b1c" fill-opacity="0.501961" points="232,155 235,170 247,164" />
<polygon fill="#b8a48e" fill-opacity="0.501961" points="106,175 147,170 146,134" />
<polygon fill="#a39ea0" fill-opacity="0.501961" points="211,147 240,125 239,107" />
<polygon fill="#576275" fill-opacity="0.501961" points="163,168 168,200 132,207" />
<polygon fill="#000000" fill-opacity="0.501961" points="50,102 39,122 54,112" />
<polygon fill="#d5c89b" fill-opacity="0.501961" points="91,138 102,137 108,122" />
<polygon fill="#76562f" fill-opacity="0.501961" points="69,130 33,73 73,104" />
<polygon fill="#725f45" fill-opacity="0.501961" points="189,92 190,135 169,132" />
<polygon fill="#a99479" fill-opacity="0.501961" points="36,49 44,78 29,71" />
<polygon fill="#6f6d70" fill-opacity="0.501961" points="261,161 271,127 240,91" />
<polygon fill="#e7d4ba" fill-opacity="0.501961" points="191,156 213,207 164,159" />
<polygon fill="#433d43" fill-opacity="0.501961" points="209,154 223,142 238,146" />
<polygon fill="#676e7c" fill-opacity="0.501961" points="208,98 221,96 221,74" />
<polygon fill="#e2d2b6" fill-opacity="0.501961" points="9,135 28,176 -16,136" />
<polygon fill="#786d58" fill-opacity="0.501961" points="127,100 114,91 115,109" />
<polygon fill="#23150e" fill-opacity="0.501961" points="73,111 71,90 80,100" />
<polygon fill="#ae4e2e" fill-opacity="0.501961" points="200,137 198,121 211,127" />
<polygon fill="#000000" fill-opacity="0.501961" points="199,74 198,63 195,67" />
<polygon fill="#857763" fill-opacity="0.501961" points="225,81 223,57 252,87" />
<polygon fill="#d6dae3" fill-opacity="0.501961" points="100,41 147,19 143,51" />
<polygon fill="#978877" fill-opacity="0.501961" points="188,65 153,55 169,116" />
<polygon fill="#a4b5c2" fill-opacity="0.501961" points="110,67 90,45 157,55" />
<polygon fill="#988b76" fill-opacity="0.501961" points="20,33 -16,58 27,50" />
<polygon fill="#bfb9b8" fill-opacity="0.501961" points="170,148 155,176 150,140" />
<polygon fill="#16100a" fill-opacity="0.501961" points="77,189 83,207 33,188" />
<polygon fill="#f8e7af" fill-opacity="0.501961" points="175,139 188,136 169,134" />
<polygon fill="#1e7497" fill-opacity="0.501961" points="222,106 227,119 230,110" />
<polygon fill="#160b00" fill-opacity="0.501961" points="63,91 58,86 66,83" />
<polygon fill="#e0b28c" fill-opacity="0.501961" points="103,87 103,102 125,115" />
<polygon fill="#e4b991" fill-opacity="0.501961" points="96,98 97,110 78,94" />
<polygon fill="#97624e" fill-opacity="0.501961" points="84,102 95,100 75,119" />
<polygon fill="#5b4d43" fill-opacity="0.501961" points="163,175 139,193 133,173" />
<polygon fill="#190600" fill-opacity="0.501961" points="204,57 214,64 212,68" />
<polygon fill="#ecb998" fill-opacity="0.501961" points="145,80 155,109 145,96" />
<polygon fill="#7d531f" fill-opacity="0.501961" points="35,75 15,116 21,84" />
<polygon fill="#73696b" fill-opacity="0.501961" points="199,115 206,95 192,114" />
<polygon fill="#362414" fill-opacity="0.501961" points="48,143 5,134 89,123" />
<polygon fill="#807b6d" fill-opacity="0.501961" points="24,75 -16,111 15,108" />
<polygon fill="#daaf99" fill-opacity="0.501961" points="71,112 80,104 84,111" />
<polygon fill="#a76845" fill-opacity="0.501961" points="64,54 62,81 78,69" />
<polygon fill="#f4f7f2" fill-opacity="0.501961" points="210,56 216,65 220,63" />
<polygon fill="#ecdfc3" fill-opacity="0.501961" points="24,151 25,167 16,151" />
<polygon fill="#bdbabe" fill-opacity="0.501961" points="152,104 171,137 165,111" />
<polygon fill="#684a44" fill-opacity="0.501961" points="82,134 84,129 102,134" />
<polygon fill="#b0a54d" fill-opacity="0.501961" points="105,148 85,152 83,132" />
<polygon fill="#c0ae93" fill-opacity="0.501961" points="196,147 183,155 208,151" />
<polygon fill="#0b0a0a" fill-opacity="0.501961" points="238,198 214,175 211,191" />
<polygon fill="#64441f" fill-opacity="0.501961" points="28,179 46,190 30,172" />
<polygon fill="#3b2519" fill-opacity="0.501961" points="60,72 52,35 41,54" />
<polygon fill="#a1b4c7" fill-opacity="0.501961" points="35,37 26,68 17,61" />
<polygon fill="#ada749" fill-opacity="0.501961" points="193,152 197,141 168,136" />
<polygon fill="#cbd0db" fill-opacity="0.501961" points="221,41 153,11 250,11" />
<polygon fill="#4b4650" fill-opacity="0.501961" points="247,153 252,157 244,165" />
<polygon fill="#550c00" fill-opacity="0.501961" points="104,107 109,116 114,117" />
<polygon fill="#b78d6e" fill-opacity="0.501961" points="81,38 57,41 42,30" />
<polygon fill="#211b1c" fill-opacity="0.501961" points="244,128 241,110 250,128" />
<polygon fill="#847466" fill-opacity="0.501961" points="200,88 178,121 163,105" />
<polygon fill="#fff6d7" fill-opacity="0.501961" points="121,108 127,117 129,100" />
<polygon fill="#bcbabd" fill-opacity="0.501961" points="74,47 94,41 80,19" />
<polygon fill="#39332b" fill-opacity="0.501961" points="120,191 119,179 112,174" />
<polygon fill="#988674" fill-opacity="0.501961" points="120,189 137,137 135,181" />
<polygon fill="#4d3419" fill-opacity="0.501961" points="39,77 45,114 18,103" />
<polygon fill="#928c8d" fill-opacity="0.501961" points="249,131 239,148 262,158" />
<polygon fill="#dbb77f" fill-opacity="0.501961" points="197,124 199,116 211,121" />
<polygon fill="#111823" fill-opacity="0.501961" points="216,171 244,170 203,157" />
<polygon fill="#c6926a" fill-opacity="0.501961" points="198,65 204,63 213,74" />
<polygon fill="#985a3e" fill-opacity="0.501961" points="143,111 139,123 133,120" />
<polygon fill="#716160" fill-opacity="0.501961" points="120,138 120,163 112,161" />
<polygon fill="#b2aca8" fill-opacity="0.501961" points="207,100 235,109 238,92" />
<polygon fill="#e4bb9b" fill-opacity="0.501961" points="97,114 95,97 91,118" />
<polygon fill="#a59e89" fill-opacity="0.501961" points="127,56 108,81 126,101" />
<polygon fill="#876853" fill-opacity="0.501961" points="128,93 124,104 103,111" />
<polygon fill="#e0dcda" fill-opacity="0.501961" points="245,86 252,96 236,86" />
<polygon fill="#e4a777" fill-opacity="0.501961" points="204,62 200,77 205,69" />
<polygon fill="#986756" fill-opacity="0.501961" points="80,121 73,113 96,106" />
<polygon fill="#dfc8b8" fill-opacity="0.501961" points="139,125 112,102 130,141" />
<polygon fill="#0c0500" fill-opacity="0.501961" points="28,149 55,147 27,159" />
<polygon fill="#a79586" fill-opacity="0.501961" points="168,74 170,35 143,71" />
<polygon fill="#363338" fill-opacity="0.501961" points="143,85 133,85 140,88" />
<polygon fill="#42392d" fill-opacity="0.501961" points="-16,128 7,116 9,126" />
<polygon fill="#ba9d90" fill-opacity="0.501961" points="111,127 120,113 124,137" />
<polygon fill="#573f24" fill-opacity="0.501961" points="87,180 60,167 65,191" />
<polygon fill="#ffeee6" fill-opacity="0.501961" points="89,136 85,134 93,134" />
<polygon fill="#976b3c" fill-opacity="0.501961" points="58,89 73,115 70,100" />
<polygon fill="#96563b" fill-opacity="0.501961" points="138,108 147,89 134,94" />
<polygon fill="#d3a793" fill-opacity="0.501961" points="72,47 67,54 80,70" />
<polygon fill="#decbb0" fill-opacity="0.501961" points="113,163 95,207 87,156" />
<polygon fill="#b9a597" fill-opacity="0.501961" points="189,124 194,108 189,109" />
<polygon fill="#9c9541" fill-opacity="0.501961" points="14,127 5,134 -16,131" />
<polygon fill="#402218" fill-opacity="0.501961" points="210,69 214,64 196,69" />
<polygon fill="#000000" fill-opacity="0.501961" points="31,187 30,195 59,197" />
<polygon fill="#d6c2a9" fill-opacity="0.501961" points="147,134 135,161 141,119" />
<polygon fill="#675038" fill-opacity="0.501961" points="151,114 140,112 139,115" />
<polygon fill="#ffe5cc" fill-opacity="0.501961" points="146,75 131,76 148,80" />
<polygon fill="#827153" fill-opacity="0.501961" points="102,94 110,124 94,130" />
<polygon fill="#fae5b9" fill-opacity="0.501961" points="112,89 114,102 106,99" />
<polygon fill="#66483a" fill-opacity="0.501961" points="106,148 120,143 104,138" />
<polygon fill="#5e5458" fill-opacity="0.501961" points="164,132 164,145 168,139" />
<polygon fill="#4e4352" fill-opacity="0.501961" points="139,141 136,140 137,133" />
<polygon fill="#aa9f9a" fill-opacity="0.501961" points="235,45 200,56 256,57" />
<polygon fill="#8f9090" fill-opacity="0.501961" points="185,102 180,70 201,83" />
<polygon fill="#9d9897" fill-opacity="0.501961" points="154,131 150,149 160,155" />
<polygon fill="#aea9aa" fill-opacity="0.501961" points="148,38 130,74 158,53" />
<polygon fill="#6d6346" fill-opacity="0.501961" points="153,103 168,111 157,78" />
<polygon fill="#9f9486" fill-opacity="0.501961" points="29,55 36,41 44,63" />
<polygon fill="#4b3c29" fill-opacity="0.501961" points="141,185 149,207 69,207" />
<polygon fill="#cc895c" fill-opacity="0.501961" points="135,87 128,77 131,107" />
<polygon fill="#37485d" fill-opacity="0.501961" points="240,185 219,175 241,170" />
<polygon fill="#917c68" fill-opacity="0.501961" points="144,172 148,172 145,187" />
<polygon fill="#787580" fill-opacity="0.501961" points="240,141 208,150 240,122" />
<polygon fill="#e7ceb0" fill-opacity="0.501961" points="266,138 255,207 247,172" />
<polygon fill="#7c552c" fill-opacity="0.501961" points="81,152 74,134 75,152" />
<polygon fill="#572e04" fill-opacity="0.501961" points="25,170 33,168 27,158" />
<polygon fill="#446162" fill-opacity="0.501961" points="207,111 202,116 208,116" />
<polygon fill="#655345" fill-opacity="0.501961" points="105,116 82,119 93,128" />
<polygon fill="#cbc56c" fill-opacity="0.501961" points="103,146 88,148 100,133" />
<polygon fill="#dbcaaf" fill-opacity="0.501961" points="198,181 164,174 172,195" />
<polygon fill="#a8957c" fill-opacity="0.501961" points="220,62 208,49 212,37" />
<polygon fill="#ab957c" fill-opacity="0.501961" points="120,153 134,187 119,188" />
<polygon fill="#19191e" fill-opacity="0.501961" points="147,177 154,176 149,152" />
<polygon fill="#caa188" fill-opacity="0.501961" points="108,122 106,117 104,126" />
<polygon fill="#b59c84" fill-opacity="0.501961" points="112,150 109,157 85,154" />
<polygon fill="#7d593d" fill-opacity="0.501961" points="62,43 50,35 43,39" />
<polygon fill="#caced7" fill-opacity="0.501961" points="186,42 -15,-2 122,-16" />
<polygon fill="#a06640" fill-opacity="0.501961" points="241,166 232,165 238,159" />
<polygon fill="#a99a89" fill-opacity="0.501961" points="184,155 165,159 165,153" />
<polygon fill="#c6a980" fill-opacity="0.501961" points="45,77 24,72 40,71" />
<polygon fill="#dbb993" fill-opacity="0.501961" points="70,33 53,29 42,35" />
<polygon fill="#8d8679" fill-opacity="0.501961" points="8,86 17,50 19,97" />
<polygon fill="#bfc0c4" fill-opacity="0.501961" points="271,54 267,74 227,26" />
<polygon fill="#cd945b" fill-opacity="0.501961" points="82,103 88,97 75,82" />
<polygon fill="#b3a490" fill-opacity="0.501961" points="104,184 110,190 113,179" />
<polygon fill="#837b6b" fill-opacity="0.501961" points="103,88 84,97 84,44" />
<polygon fill="#8d9da7" fill-opacity="0.501961" points="85,60 83,84 76,74" />
<polygon fill="#a48e69" fill-opacity="0.501961" points="232,55 220,63 248,80" />
<polygon fill="#f0d9c1" fill-opacity="0.501961" points="208,96 192,100 200,95" />
<polygon fill="#98987f" fill-opacity="0.501961" points="127,100 104,60 100,76" />
<polygon fill="#454249" fill-opacity="0.501961" points="244,146 239,157 233,157" />
<polygon fill="#b9bfc9" fill-opacity="0.501961" points="0,26 124,35 73,11" />
<polygon fill="#180f04" fill-opacity="0.501961" points="45,121 47,97 57,115" />
<polygon fill="#aebac6" fill-opacity="0.501961" points="217,71 220,65 218,79" />
<polygon fill="#c79e8a" fill-opacity="0.501961" points="145,86 133,89 150,90" />
<polygon fill="#a36941" fill-opacity="0.501961" points="69,94 64,66 71,76" />
<polygon fill="#1e1207" fill-opacity="0.501961" points="200,139 196,135 205,137" />
<polygon fill="#312213" fill-opacity="0.501961" points="59,204 26,167 65,149" />
<polygon fill="#6a4b2a" fill-opacity="0.501961" points="50,91 61,124 64,90" />
<polygon fill="#877d76" fill-opacity="0.501961" points="212,92 221,117 211,124" />
<polygon fill="#b29676" fill-opacity="0.501961" points="149,101 130,106 134,110" />
<polygon fill="#190c00" fill-opacity="0.501961" points="10,133 15,125 22,126" />
<polygon fill="#201207" fill-opacity="0.501961" points="84,156 82,121 75,129" />
<polygon fill="#2a7ea5" fill-opacity="0.501961" points="212,113 227,110 228,115" />
<polygon fill="#d8dce5" fill-opacity="0.501961" points="248,-16 271,26 102,0" />
<polygon fill="#afa771" fill-opacity="0.501961" points="98,52 78,46 108,66" />
<polygon fill="#847b7f" fill-opacity="0.501961" points="160,138 158,126 161,131" />
<polygon fill="#f0dec4" fill-opacity="0.501961" points="196,157 165,175 169,157" />
<polygon fill="#757d8c" fill-opacity="0.501961" points="141,207 171,207 165,179" />
<polygon fill="#857761" fill-opacity="0.501961" points="13,95 8,125 18,109" />
<polygon fill="#e8b18a" fill-opacity="0.501961" points="150,83 130,82 130,76" />
<polygon fill="#a5a9b1" fill-opacity="0.501961" points="233,106 223,106 223,77" />
<polygon fill="#533c2b" fill-opacity="0.501961" points="211,77 215,66 216,77" />
<polygon fill="#432e18" fill-opacity="0.501961" points="85,133 53,128 71,118" />
<polygon fill="#a3a3a3" fill-opacity="0.501961" points="239,156 244,156 250,167" />
<polygon fill="#ffe4c9" fill-opacity="0.501961" points="75,43 72,46 79,46" />
<polygon fill="#aabbd0" fill-opacity="0.501961" points="122,46 138,71 139,49" />
<polygon fill="#b39b68" fill-opacity="0.501961" points="192,54 183,48 169,75" />
<polygon fill="#825930" fill-opacity="0.501961" points="87,153 89,168 85,167" />
<polygon fill="#513526" fill-opacity="0.501961" points="64,70 59,49 43,40" />
<polygon fill="#62443a" fill-opacity="0.501961" points="148,84 140,88 132,85" />
<polygon fill="#ead9bc" fill-opacity="0.501961" points="110,156 88,157 89,169" />
<polygon fill="#ffa840" fill-opacity="0.501961" points="173,133 176,134 174,129" />
<polygon fill="#020000" fill-opacity="0.501961" points="85,169 84,157 82,161" />
<polygon fill="#401a0a" fill-opacity="0.501961" points="132,110 139,110 141,115" />
<polygon fill="#a89e93" fill-opacity="0.501961" points="-11,18 9,58 11,38" />
<polygon fill="#9b993b" fill-opacity="0.501961" points="95,149 116,146 112,152" />
<polygon fill="#bac2ce" fill-opacity="0.501961" points="189,26 205,46 216,30" />
<polygon fill="#d8c8ae" fill-opacity="0.501961" points="8,152 26,152 18,194" />
<polygon fill="#2f1606" fill-opacity="0.501961" points="206,79 197,76 211,90" />
<polygon fill="#a8957e" fill-opacity="0.501961" points="83,168 82,172 79,173" />
<polygon fill="#cab697" fill-opacity="0.501961" points="-1,184 27,179 -16,166" />
<polygon fill="#afa49b" fill-opacity="0.501961" points="231,130 222,117 216,143" />
<polygon fill="#bdbcbd" fill-opacity="0.501961" points="227,56 213,43 225,36" />
<polygon fill="#807c70" fill-opacity="0.501961" points="198,164 202,177 202,166" />
<polygon fill="#c3bab7" fill-opacity="0.501961" points="159,172 171,144 152,164" />
<polygon fill="#d29364" fill-opacity="0.501961" points="203,74 206,65 199,75" />
<polygon fill="#c6bbab" fill-opacity="0.501961" points="221,109 214,92 214,105" />
<polygon fill="#9d876f" fill-opacity="0.501961" points="168,96 157,61 149,76" />
<polygon fill="#dccbb0" fill-opacity="0.501961" points="151,207 197,164 208,206" />
<polygon fill="#715733" fill-opacity="0.501961" points="31,128 48,121 34,134" />
<polygon fill="#292a2f" fill-opacity="0.501961" points="205,193 218,157 237,156" />
<polygon fill="#511e0f" fill-opacity="0.501961" points="210,76 205,72 203,79" />
<polygon fill="#231405" fill-opacity="0.501961" points="10,136 66,144 20,150" />
<polygon fill="#594b49" fill-opacity="0.501961" points="203,150 211,139 195,140" />
<polygon fill="#895731" fill-opacity="0.501961" points="76,98 78,89 82,100" />
<polygon fill="#fffffd" fill-opacity="0.501961" points="210,57 219,62 214,57" />
<polygon fill="#47465b" fill-opacity="0.501961" points="240,104 239,98 244,96" />
<polygon fill="#150d04" fill-opacity="0.501961" points="37,122 51,119 25,110" />
<polygon fill="#c5b49f" fill-opacity="0.501961" points="146,163 146,127 137,141" />
<polygon fill="#877a60" fill-opacity="0.501961" points="101,102 100,62 80,57" />
<polygon fill="#372311" fill-opacity="0.501961" points="71,83 46,88 60,91" />
<polygon fill="#b6b2b1" fill-opacity="0.501961" points="255,152 246,152 245,147" />
<polygon fill="#977f74" fill-opacity="0.501961" points="122,146 121,129 110,133" />
<polygon fill="#5f646f" fill-opacity="0.501961" points="215,68 224,89 217,95" />
<polygon fill="#cfcac9" fill-opacity="0.501961" points="155,107 163,110 149,138" />
<polygon fill="#29180c" fill-opacity="0.501961" points="45,63 58,67 43,42" />
<polygon fill="#e0cfb4" fill-opacity="0.501961" points="82,98 93,100 99,96" />
<polygon fill="#969190" fill-opacity="0.501961" points="121,79 119,100 128,96" />
<polygon fill="#160200" fill-opacity="0.501961" points="197,65 201,58 204,59" />
<polygon fill="#8e612a" fill-opacity="0.501961" points="20,120 9,132 14,117" />
<polygon fill="#9ea1a0" fill-opacity="0.501961" points="168,79 183,83 186,94" />
<polygon fill="#2e1f12" fill-opacity="0.501961" points="75,108 80,102 63,92" />
<polygon fill="#949096" fill-opacity="0.501961" points="218,101 221,91 238,89" />
<polygon fill="#9fa048" fill-opacity="0.501961" points="200,151 172,149 175,140" />
<polygon fill="#937047" fill-opacity="0.501961" points="49,93 44,85 44,75" />
<polygon fill="#b5a99d" fill-opacity="0.501961" points="177,64 154,49 170,33" />
<polygon fill="#f5d6c6" fill-opacity="0.501961" points="69,47 81,54 78,57" />
<polygon fill="#543f2d" fill-opacity="0.501961" points="188,124 187,115 179,128" />
<polygon fill="#887f74" fill-opacity="0.501961" points="186,57 179,69 190,94" />
<polygon fill="#756353" fill-opacity="0.501961" points="136,158 135,149 132,163" />
<polygon fill="#bba787" fill-opacity="0.501961" points="137,73 122,57 112,83" />
<polygon fill="#e1cfb1" fill-opacity="0.501961" points="68,207 83,183 110,192" />
<polygon fill="#873c1f" fill-opacity="0.501961" points="116,118 103,108 111,107" />
<polygon fill="#7f4f3e" fill-opacity="0.501961" points="205,133 188,122 210,129" />
<polygon fill="#b7a490" fill-opacity="0.501961" points="134,135 122,137 129,175" />
<polygon fill="#978663" fill-opacity="0.501961" points="230,207 225,189 239,207" />
<polygon fill="#ceb899" fill-opacity="0.501961" points="110,177 88,175 87,182" />
<polygon fill="#8b6e56" fill-opacity="0.501961" points="137,186 131,187 137,173" />
<polygon fill="#efebca" fill-opacity="0.501961" points="201,117 211,119 209,116" />
<polygon fill="#86653b" fill-opacity="0.501961" points="29,77 25,88 38,75" />
<polygon fill="#7a4f1f" fill-opacity="0.501961" points="86,175 89,171 85,168" />
<polygon fill="#464046" fill-opacity="0.501961" points="231,151 236,145 221,147" />
<polygon fill="#f9d5b2" fill-opacity="0.501961" points="130,108 122,117 123,138" />
<polygon fill="#abbec8" fill-opacity="0.501961" points="9,79 -4,84 3,77" />
<polygon fill="#b1b8c0" fill-opacity="0.501961" points="24,35 57,23 30,48" />
<polygon fill="#444a5c" fill-opacity="0.501961" points="154,187 147,167 146,202" />
<polygon fill="#dbb898" fill-opacity="0.501961" points="76,110 72,110 75,116" />
<polygon fill="#dad9e4" fill-opacity="0.501961" points="132,124 137,131 141,123" />
<polygon fill="#decdb1" fill-opacity="0.501961" points="-16,181 26,207 29,183" />
<polygon fill="#6e757f" fill-opacity="0.501961" points="230,188 246,185 239,198" />
<polygon fill="#705f42" fill-opacity="0.501961" points="115,101 120,107 125,103" />
<polygon fill="#d9b47a" fill-opacity="0.501961" points="106,102 103,91 111,88" />
<polygon fill="#f5e3d2" fill-opacity="0.501961" points="208,96 210,113 205,109" />
<polygon fill="#877565" fill-opacity="0.501961" points="173,104 163,102 171,130" />
<polygon fill="#4a331c" fill-opacity="0.501961" points="27,88 39,119 20,99" />
<polygon fill="#aaa29e" fill-opacity="0.501961" points="166,129 154,108 165,114" />
<polygon fill="#9c8f89" fill-opacity="0.501961" points="246,87 249,62 234,34" />
<polygon fill="#c2c9d6" fill-opacity="0.501961" points="197,10 151,25 178,40" />
<polygon fill="#cbcdcf" fill-opacity="0.501961" points="216,67 224,71 216,58" />
<polygon fill="#9a9695" fill-opacity="0.501961" points="22,78 34,73 39,43" />
<polygon fill="#4b3e2b" fill-opacity="0.501961" points="115,142 117,138 117,149" />
<polygon fill="#7e808c" fill-opacity="0.501961" points="250,98 257,107 246,103" />
<polygon fill="#d0bfa3" fill-opacity="0.501961" points="113,153 104,151 97,154" />
<polygon fill="#8d8475" fill-opacity="0.501961" points="217,107 227,105 216,112" />
<polygon fill="#c5c9cf" fill-opacity="0.501961" points="2,-16 -6,18 127,21" />
<polygon fill="#c09c7d" fill-opacity="0.501961" points="150,110 144,96 152,82" />
<polygon fill="#6e471c" fill-opacity="0.501961" points="41,64 45,64 47,77" />
<polygon fill="#563522" fill-opacity="0.501961" points="75,99 69,96 72,82" />
<polygon fill="#c5bfc0" fill-opacity="0.501961" points="156,131 169,153 157,143" />
<polygon fill="#625744" fill-opacity="0.501961" points="0,108 12,127 8,96" />
<polygon fill="#70737f" fill-opacity="0.501961" points="244,125 227,146 236,118" />
<polygon fill="#91933e" fill-opacity="0.501961" points="106,145 101,151 89,150" />
<polygon fill="#64544c" fill-opacity="0.501961" points="225,116 229,120 230,117" />
<polygon fill="#d4d8e0" fill-opacity="0.501961" points="134,38 145,55 146,25" />
<polygon fill="#e9c194" fill-opacity="0.501961" points="137,105 126,97 131,96" />
<polygon fill="#573f21" fill-opacity="0.501961" points="74,172 81,169 87,182" />
<polygon fill="#795032" fill-opacity="0.501961" points="88,149 83,142 85,153" />
<polygon fill="#190d00" fill-opacity="0.501961" points="61,135 60,154 76,132" />
<polygon fill="#f7e2d0" fill-opacity="0.501961" points="196,105 204,96 191,104" />
<polygon fill="#8a887c" fill-opacity="0.501961" points="82,69 95,70 92,95" />
<polygon fill="#271b1d" fill-opacity="0.501961" points="194,66 199,69 200,77" />
<polygon fill="#6d6548" fill-opacity="0.501961" points="158,85 151,93 167,113" />
<polygon fill="#504d3b" fill-opacity="0.501961" points="194,99 196,94 194,92" />
<polygon fill="#9e999b" fill-opacity="0.501961" points="136,56 142,70 151,52" />
<polygon fill="#c07b5d" fill-opacity="0.501961" points="114,109 114,104 101,103" />
<polygon fill="#674a33" fill-opacity="0.501961" points="91,132 83,134 77,129" />
<polygon fill="#96624b" fill-opacity="0.501961" points="74,116 98,111 80,121" />
<polygon fill="#2a1909" fill-opacity="0.501961" points="13,145 27,152 18,132" />
<polygon fill="#94949f" fill-opacity="0.501961" points="225,154 242,154 237,150" />
<polygon fill="#dcd0be" fill-opacity="0.501961" points="147,106 151,95 152,99" />
<polygon fill="#e3d0b4" fill-opacity="0.501961" points="141,130 148,115 141,115" />
<polygon fill="#735c3b" fill-opacity="0.501961" points="181,133 191,134 181,103" />
<polygon fill="#21160a" fill-opacity="0.501961" points="58,88 48,79 44,66" />
<polygon fill="#807154" fill-opacity="0.501961" points="86,96 99,83 100,96" />
<polygon fill="#cdb4aa" fill-opacity="0.501961" points="200,153 205,153 195,145" />
<polygon fill="#2d2724" fill-opacity="0.501961" points="242,129 245,125 255,128" />
<polygon fill="#a96739" fill-opacity="0.501961" points="199,74 202,79 207,80" />
<polygon fill="#b17452" fill-opacity="0.501961" points="140,98 146,93 146,102" />
<polygon fill="#bca287" fill-opacity="0.501961" points="111,172 118,158 115,176" />
<polygon fill="#d6cece" fill-opacity="0.501961" points="97,133 106,128 102,132" />
<polygon fill="#fff7dd" fill-opacity="0.501961" points="-16,91 6,88 -16,82" />
<polygon fill="#616574" fill-opacity="0.501961" points="249,147 266,142 271,155" />
<polygon fill="#abaf4e" fill-opacity="0.501961" points="104,138 86,136 90,144" />
<polygon fill="#8e7d70" fill-opacity="0.501961" points="183,98 203,114 193,118" />
<polygon fill="#d0d4dd" fill-opacity="0.501961" points="269,37 271,9 167,10" />
<polygon fill="#74593f" fill-opacity="0.501961" points="143,109 149,109 149,111" />
<polygon fill="#835f38" fill-opacity="0.501961" points="59,118 57,101 50,96" />
<polygon fill="#b5aca4" fill-opacity="0.501961" points="221,117 213,129 233,121" />
<polygon fill="#d7be83" fill-opacity="0.501961" points="93,143 105,147 88,146" />
<polygon fill="#ead8c7" fill-opacity="0.501961" points="192,101 198,102 199,94" />
<polygon fill="#bac1c9" fill-opacity="0.501961" points="8,17 33,13 7,41" />
<polygon fill="#5f5f6b" fill-opacity="0.501961" points="215,124 213,114 210,115" />
<polygon fill="#eadcc7" fill-opacity="0.501961" points="15,153 10,141 -5,150" />
<polygon fill="#a09283" fill-opacity="0.501961" points="168,111 160,53 174,68" />
<polygon fill="#7a6962" fill-opacity="0.501961" points="240,139 252,128 271,128" />
<polygon fill="#836f5b" fill-opacity="0.501961" points="169,86 171,104 173,94" />
<polygon fill="#b6a692" fill-opacity="0.501961" points="139,144 133,173 146,171" />
<polygon fill="#c9b5a1" fill-opacity="0.501961" points="207,112 206,99 201,111" />
<polygon fill="#ab793c" fill-opacity="0.501961" points="39,77 47,75 42,67" />
<polygon fill="#884b2c" fill-opacity="0.501961" points="71,65 77,69 72,71" />
<polygon fill="#a1b7c7" fill-opacity="0.501961" points="103,52 115,75 120,55" />
<polygon fill="#d3cbc5" fill-opacity="0.501961" points="150,151 156,152 161,163" />
<polygon fill="#a89987" fill-opacity="0.501961" points="218,63 237,37 231,60" />
<polygon fill="#afa089" fill-opacity="0.501961" points="193,67 183,29 199,43" />
<polygon fill="#a69f92" fill-opacity="0.501961" points="94,52 87,39 78,47" />
<polygon fill="#93926e" fill-opacity="0.501961" points="86,131 99,131 88,124" />
<polygon fill="#766868" fill-opacity="0.501961" points="165,132 163,126 163,134" />
<polygon fill="#3a2b19" fill-opacity="0.501961" points="48,179 71,172 41,155" />
<polygon fill="#d1ccc6" fill-opacity="0.501961" points="160,118 152,102 154,127" />
<polygon fill="#8c684e" fill-opacity="0.501961" points="55,34 67,42 44,37" />
<polygon fill="#928750" fill-opacity="0.501961" points="9,127 -16,133 8,135" />
<polygon fill="#635b3f" fill-opacity="0.501961" points="102,121 99,130 83,120" />
<polygon fill="#9d9746" fill-opacity="0.501961" points="169,154 192,150 173,148" />
<polygon fill="#7d665b" fill-opacity="0.501961" points="116,116 112,130 104,135" />
<polygon fill="#52524e" fill-opacity="0.501961" points="210,181 208,196 200,171" />
<polygon fill="#171415" fill-opacity="0.501961" points="152,162 148,145 147,163" />
<polygon fill="#e3e8ef" fill-opacity="0.501961" points="232,-16 271,3 193,2" />
<polygon fill="#e0b181" fill-opacity="0.501961" points="199,66 206,64 202,63" />
<polygon fill="#a9c1ce" fill-opacity="0.501961" points="-15,95 -16,114 2,98" />
<polygon fill="#cfc0a8" fill-opacity="0.501961" points="134,128 131,109 126,129" />
<polygon fill="#4e2f20" fill-opacity="0.501961" points="214,62 203,67 208,62" />
<polygon fill="#473118" fill-opacity="0.501961" points="15,115 26,120 44,98" />
<polygon fill="#000003" fill-opacity="0.501961" points="57,196 76,188 77,194" />
<polygon fill="#63361d" fill-opacity="0.501961" points="244,162 239,168 244,169" />
<polygon fill="#bbbdbe" fill-opacity="0.501961" points="185,38 175,50 186,45" />
<polygon fill="#b7a995" fill-opacity="0.501961" points="48,31 38,48 35,43" />
<polygon fill="#9d5833" fill-opacity="0.501961" points="82,106 89,103 81,102" />
<polygon fill="#b4a090" fill-opacity="0.501961" points="151,46 146,40 148,56" />
<polygon fill="#6e5741" fill-opacity="0.501961" points="172,120 180,134 174,105" />
<polygon fill="#8e9299" fill-opacity="0.501961" points="238,79 253,96 271,95" />
<polygon fill="#707581" fill-opacity="0.501961" points="148,181 148,196 155,207" />
<polygon fill="#a4998a" fill-opacity="0.501961" points="194,84 207,95 190,65" />
<polygon fill="#afa7a7" fill-opacity="0.501961" points="221,40 235,32 271,74" />
<polygon fill="#989a9b" fill-opacity="0.501961" points="81,81 69,72 76,71" />
<polygon fill="#6c5a4a" fill-opacity="0.501961" points="209,89 212,94 202,86" />
<polygon fill="#dcad92" fill-opacity="0.501961" points="81,109 79,107 84,100" />
<polygon fill="#bba497" fill-opacity="0.501961" points="113,128 121,109 120,136" />
<polygon fill="#8e8178" fill-opacity="0.501961" points="177,125 181,128 178,118" />
<polygon fill="#170e04" fill-opacity="0.501961" points="66,192 48,177 61,183" />
<polygon fill="#837656" fill-opacity="0.501961" points="162,89 154,82 152,93" />
<polygon fill="#8b867f" fill-opacity="0.501961" points="5,61 23,38 16,62" />
<polygon fill="#d9dcde" fill-opacity="0.501961" points="132,36 162,33 162,41" />
<polygon fill="#85786b" fill-opacity="0.501961" points="223,64 225,78 250,79" />
<polygon fill="#836339" fill-opacity="0.501961" points="81,179 85,181 73,186" />
<polygon fill="#526378" fill-opacity="0.501961" points="248,181 246,172 238,183" />
<polygon fill="#7c5741" fill-opacity="0.501961" points="71,44 74,39 57,40" />
<polygon fill="#280b02" fill-opacity="0.501961" points="201,69 202,71 197,70" />
<polygon fill="#ad7d5e" fill-opacity="0.501961" points="66,68 63,51 69,46" />
<polygon fill="#271709" fill-opacity="0.501961" points="52,104 35,95 47,107" />
<polygon fill="#a8764f" fill-opacity="0.501961" points="70,87 68,63 65,79" />
<polygon fill="#3a3e49" fill-opacity="0.501961" points="159,175 148,177 151,185" />
<polygon fill="#a46240" fill-opacity="0.501961" points="199,136 207,132 197,124" />
<polygon fill="#979c96" fill-opacity="0.501961" points="19,54 28,52 22,31" />
<polygon fill="#e0b990" fill-opacity="0.501961" points="135,110 139,111 134,106" />
<polygon fill="#a88e72" fill-opacity="0.501961" points="120,179 110,154 125,172" />
<polygon fill="#413229" fill-opacity="0.501961" points="149,145 148,138 147,145" />
<polygon fill="#c1c8d4" fill-opacity="0.501961" points="102,9 97,47 129,53" />
<polygon fill="#61636b" fill-opacity="0.501961" points="214,86 220,75 218,98" />
<polygon fill="#a37857" fill-opacity="0.501961" points="142,108 130,106 130,101" />
<polygon fill="#170d06" fill-opacity="0.501961" points="200,58 207,59 194,62" />
<polygon fill="#dccbb0" fill-opacity="0.501961" points="271,146 250,196 248,164" />
<polygon fill="#f1d9b6" fill-opacity="0.501961" points="94,105 89,105 97,102" />
<polygon fill="#7a5730" fill-opacity="0.501961" points="17,105 18,101 30,110" />
<polygon fill="#eebd9f" fill-opacity="0.501961" points="96,114 94,118 91,115" />
<polygon fill="#e0cfb5" fill-opacity="0.501961" points="165,162 197,161 169,192" />
<polygon fill="#555d67" fill-opacity="0.501961" points="230,172 243,197 235,203" />
<polygon fill="#5a504e" fill-opacity="0.501961" points="246,157 255,159 243,151" />
<polygon fill="#4c4644" fill-opacity="0.501961" points="228,160 225,163 215,160" />
<polygon fill="#cbb7a0" fill-opacity="0.501961" points="147,142 137,141 147,130" />
<polygon fill="#b6826b" fill-opacity="0.501961" points="140,78 141,85 134,81" />
<polygon fill="#a79172" fill-opacity="0.501961" points="190,142 196,131 196,137" />
<polygon fill="#fee5c9" fill-opacity="0.501961" points="129,99 129,113 120,120" />
<polygon fill="#9d8c7c" fill-opacity="0.501961" points="209,93 209,102 212,98" />
<polygon fill="#654724" fill-opacity="0.501961" points="46,105 46,112 35,98" />
<polygon fill="#c8c1b5" fill-opacity="0.501961" points="206,58 212,55 204,56" />
<polygon fill="#1c120c" fill-opacity="0.501961" points="78,103 72,106 74,93" />
<polygon fill="#8c99a2" fill-opacity="0.501961" points="106,77 111,81 100,85" />
<polygon fill="#af825a" fill-opacity="0.501961" points="247,140 248,133 245,138" />
<polygon fill="#e5d8c0" fill-opacity="0.501961" points="25,159 14,149 26,155" />
</g>
</svg>