<svg xmlns="http://www.w3.org/2000/svg" version="1.1" width="1024" height="768">
<rect x="0" y="0" width="1024" height="768" fill="#988d82" />
<g transform="scale(4.000000) translate(0.5 0.5)">
<polygon fill="#0e0000" fill-opacity="0.501961" points="91,207 -9,126 65,31" />
<polygon fill="#f0ffff" fill-opacity="0.501961" points="271,0 146,77 -16,-1" />
<polygon fill="#000004" fill-opacity="0.501961" points="195,123 249,170 209,207" />
<polygon fill="#1c0400" fill-opacity="0.501961" points="104,118 40,207 11,111" />
<polygon fill="#d2d8eb" fill-opacity="0.501961" points="-16,23 271,57 249,-16" />
<polygon fill="#fde8cb" fill-opacity="0.501961" points="201,164 191,207 100,91" />
<polygon fill="#fffecf" fill-opacity="0.501961" points="-16,186 39,207 4,125" />
<polygon fill="#ffffd4" fill-opacity="0.501961" points="106,207 111,147 72,197" />
<polygon fill="#856f59" fill-opacity="0.501961" points="231,95 120,66 193,30" />
<polygon fill="#351f00" fill-opacity="0.501961" points="46,25 28,207 81,207" />
<polygon fill="#1b191e" fill-opacity="0.501961" points="149,145 133,206 161,206" />
<polygon fill="#2c3248" fill-opacity="0.501961" points="211,198 260,122 243,95" />
<polygon fill="#997146" fill-opacity="0.501961" points="125,172 20,69 100,58" />
<polygon fill="#c0c8d6" fill-opacity="0.501961" points="75,-9 -16,3 26,65" />
<polygon fill="#3b1808" fill-opacity="0.501961" points="190,58 213,100 216,61" />
<polygon fill="#8a734f" fill-opacity="0.501961" points="240,158 145,68 179,151" />
<polygon fill="#b3a08c" fill-opacity="0.501961" points="54,26 68,74 208,89" />
<polygon fill="#ffffda" fill-opacity="0.501961" points="270,148 254,207 246,165" />
<polygon fill="#cab593" fill-opacity="0.501961" points="213,156 125,92 122,138" />
<polygon fill="#53340d" fill-opacity="0.501961" points="89,178 83,120 46,207" />
<polygon fill="#ecd69a" fill-opacity="0.501961" points="118,168 91,185 86,127" />
<polygon fill="#0b1728" fill-opacity="0.501961" points="249,177 204,155 217,207" />
<polygon fill="#bbbcbf" fill-opacity="0.501961" points="192,99 203,120 271,74" />
<polygon fill="#4a2009" fill-opacity="0.501961" points="42,40 40,59 81,39" />
<polygon fill="#e0e6f0" fill-opacity="0.501961" points="166,-3 271,-2 261,49" />
<polygon fill="#f8e6c4" fill-opacity="0.501961" points="187,150 164,189 212,204" />
<polygon fill="#fde5c9" fill-opacity="0.501961" points="27,154 21,173 -16,134" />
<polygon fill="#4e3413" fill-opacity="0.501961" points="-3,129 47,73 86,104" />
<polygon fill="#857045" fill-opacity="0.501961" points="-16,118 32,73 9,138" />
<polygon fill="#a8532a" fill-opacity="0.501961" points="136,122 149,83 128,83" />
<polygon fill="#bfad95" fill-opacity="0.501961" points="180,26 223,48 68,113" />
<polygon fill="#544e4d" fill-opacity="0.501961" points="168,200 106,188 164,171" />
<polygon fill="#a0a6a9" fill-opacity="0.501961" points="45,76 2,71 36,36" />
<polygon fill="#9f704e" fill-opacity="0.501961" points="69,109 31,129 115,112" />
<polygon fill="#c0b8bc" fill-opacity="0.501961" points="155,177 145,91 167,118" />
<polygon fill="#201405" fill-opacity="0.501961" points="90,120 25,139 32,198" />
<polygon fill="#6f5741" fill-opacity="0.501961" points="208,129 150,90 177,134" />
<polygon fill="#d8bfac" fill-opacity="0.501961" points="113,107 146,123 146,175" />
<polygon fill="#e8eced" fill-opacity="0.501961" points="221,72 210,58 219,53" />
<polygon fill="#adbcd0" fill-opacity="0.501961" points="113,70 152,56 45,2" />
<polygon fill="#fff5d6" fill-opacity="0.501961" points="125,132 118,111 130,99" />
<polygon fill="#858f9a" fill-opacity="0.501961" points="207,113 228,72 252,162" />
<polygon fill="#585a68" fill-opacity="0.501961" points="243,131 251,206 227,185" />
<polygon fill="#7d7858" fill-opacity="0.501961" points="100,109 107,61 82,43" />
<polygon fill="#98a121" fill-opacity="0.501961" points="170,154 195,149 176,137" />
<polygon fill="#755135" fill-opacity="0.501961" points="127,99 95,131 100,108" />
<polygon fill="#251c1e" fill-opacity="0.501961" points="216,74 221,95 197,80" />
<polygon fill="#a59889" fill-opacity="0.501961" points="196,134 116,159 136,134" />
<polygon fill="#918b80" fill-opacity="0.501961" points="14,126 26,40 1,34" />
<polygon fill="#281c09" fill-opacity="0.501961" points="31,108 9,134 72,207" />
<polygon fill="#d4bab1" fill-opacity="0.501961" points="81,26 71,51 83,89" />
<polygon fill="#e5d4bc" fill-opacity="0.501961" points="204,196 196,151 154,163" />
<polygon fill="#6c3b25" fill-opacity="0.501961" points="131,111 151,109 137,120" />
<polygon fill="#a29b40" fill-opacity="0.501961" points="89,156 118,148 83,133" />
<polygon fill="#2e2e37" fill-opacity="0.501961" points="252,127 242,136 239,92" />
<polygon fill="#cfd5e0" fill-opacity="0.501961" points="186,45 4,-16 170,-16" />
<polygon fill="#deac8a" fill-opacity="0.501961" points="96,119 97,100 73,80" />
<polygon fill="#a19ea1" fill-opacity="0.501961" points="227,32 257,58 257,131" />
<polygon fill="#bec2ca" fill-opacity="0.501961" points="118,12 29,41 -16,5" />
<polygon fill="#09070b" fill-opacity="0.501961" points="152,170 145,171 149,147" />
<polygon fill="#1b1919" fill-opacity="0.501961" points="240,168 198,154 198,166" />
<polygon fill="#46392d" fill-opacity="0.501961" points="120,180 111,173 117,207" />
<polygon fill="#d8cabd" fill-opacity="0.501961" points="117,139 153,105 169,112" />
<polygon fill="#634d44" fill-opacity="0.501961" points="104,138 120,159 111,110" />
<polygon fill="#fdca96" fill-opacity="0.501961" points="103,101 117,111 110,85" />
<polygon fill="#1a0c07" fill-opacity="0.501961" points="79,100 60,84 75,110" />
<polygon fill="#ffecd1" fill-opacity="0.501961" points="192,98 203,95 193,111" />
<polygon fill="#686a7d" fill-opacity="0.501961" points="200,157 243,123 239,156" />
<polygon fill="#a09787" fill-opacity="0.501961" points="119,65 190,51 200,85" />
<polygon fill="#9c6740" fill-opacity="0.501961" points="37,44 51,31 75,38" />
<polygon fill="#366c7f" fill-opacity="0.501961" points="212,120 235,111 214,106" />
<polygon fill="#e7f6f0" fill-opacity="0.501961" points="7,87 -6,98 -14,67" />
<polygon fill="#2a1106" fill-opacity="0.501961" points="44,65 65,72 42,42" />
<polygon fill="#e8d0bd" fill-opacity="0.501961" points="80,203 94,154 112,167" />
<polygon fill="#a35f35" fill-opacity="0.501961" points="56,87 77,68 62,52" />
<polygon fill="#bfb8b8" fill-opacity="0.501961" points="241,118 223,82 237,87" />
<polygon fill="#845e31" fill-opacity="0.501961" points="84,177 70,179 76,136" />
<polygon fill="#ffcda7" fill-opacity="0.501961" points="142,70 153,82 124,77" />
<polygon fill="#140500" fill-opacity="0.501961" points="197,57 214,65 209,58" />
<polygon fill="#917e77" fill-opacity="0.501961" points="188,112 195,139 203,102" />
<polygon fill="#625d3b" fill-opacity="0.501961" points="152,100 156,80 169,115" />
<polygon fill="#dd9865" fill-opacity="0.501961" points="206,61 202,78 199,65" />
<polygon fill="#312215" fill-opacity="0.501961" points="25,167 62,145 62,207" />
<polygon fill="#c5ae98" fill-opacity="0.501961" points="193,115 227,137 234,120" />
<polygon fill="#e0c6aa" fill-opacity="0.501961" points="-13,160 26,151 17,207" />
<polygon fill="#b0a295" fill-opacity="0.501961" points="237,31 246,61 197,56" />
<polygon fill="#170f10" fill-opacity="0.501961" points="201,83 194,67 199,59" />
<polygon fill="#c2be76" fill-opacity="0.501961" points="101,151 105,126 85,136" />
<polygon fill="#010000" fill-opacity="0.501961" points="218,207 213,175 226,185" />
<polygon fill="#533719" fill-opacity="0.501961" points="25,78 61,86 11,129" />
<polygon fill="#ffe8cf" fill-opacity="0.501961" points="209,93 203,112 209,109" />
<polygon fill="#49341d" fill-opacity="0.501961" points="72,117 92,133 20,135" />
<polygon fill="#000000" fill-opacity="0.501961" points="48,102 39,123 55,114" />
<polygon fill="#f2dfa3" fill-opacity="0.501961" points="170,135 191,141 192,134" />
<polygon fill="#150900" fill-opacity="0.501961" points="80,135 79,163 87,162" />
<polygon fill="#7f5b35" fill-opacity="0.501961" points="62,125 72,103 38,76" />
<polygon fill="#010000" fill-opacity="0.501961" points="51,90 47,71 58,90" />
<polygon fill="#ab937b" fill-opacity="0.501961" points="130,189 111,167 138,130" />
<polygon fill="#8e8b94" fill-opacity="0.501961" points="164,123 174,147 162,170" />
<polygon fill="#5e4d40" fill-opacity="0.501961" points="134,173 161,175 124,207" />
<polygon fill="#878f90" fill-opacity="0.501961" points="90,97 66,69 95,74" />
<polygon fill="#693110" fill-opacity="0.501961" points="232,155 240,172 246,164" />
<polygon fill="#807c81" fill-opacity="0.501961" points="252,159 271,113 228,154" />
<polygon fill="#e6d4ba" fill-opacity="0.501961" points="163,171 201,148 171,196" />
<polygon fill="#c6a591" fill-opacity="0.501961" points="119,108 112,132 130,149" />
<polygon fill="#393545" fill-opacity="0.501961" points="195,138 209,147 216,133" />
<polygon fill="#edd6bb" fill-opacity="0.501961" points="9,135 15,153 -16,139" />
<polygon fill="#c3c7d2" fill-opacity="0.501961" points="131,24 220,11 252,41" />
<polygon fill="#f4dcb9" fill-opacity="0.501961" points="80,184 76,198 116,195" />
<polygon fill="#8c7a67" fill-opacity="0.501961" points="244,67 243,84 200,70" />
<polygon fill="#3e3c44" fill-opacity="0.501961" points="208,155 238,147 220,144" />
<polygon fill="#bfa079" fill-opacity="0.501961" points="127,55 115,75 135,108" />
<polygon fill="#661100" fill-opacity="0.501961" points="104,106 110,116 116,116" />
<polygon fill="#c29c7c" fill-opacity="0.501961" points="143,90 150,119 153,68" />
<polygon fill="#705c43" fill-opacity="0.501961" points="190,91 188,135 170,131" />
<polygon fill="#556174" fill-opacity="0.501961" points="222,92 208,95 221,77" />
<polygon fill="#1d0f02" fill-opacity="0.501961" points="12,141 82,131 38,162" />
<polygon fill="#553522" fill-opacity="0.501961" points="44,41 66,44 61,69" />
<polygon fill="#c5c6ca" fill-opacity="0.501961" points="224,87 259,100 240,83" />
<polygon fill="#ffd2b8" fill-opacity="0.501961" points="76,108 74,115 80,107" />
<polygon fill="#d4d9e3" fill-opacity="0.501961" points="144,49 91,45 144,23" />
<polygon fill="#917f6e" fill-opacity="0.501961" points="166,111 206,117 150,63" />
<polygon fill="#b18254" fill-opacity="0.501961" points="58,86 53,75 73,77" />
<polygon fill="#e5d0b7" fill-opacity="0.501961" points="89,156 112,157 104,207" />
<polygon fill="#a5a0a6" fill-opacity="0.501961" points="227,128 204,153 220,143" />
<polygon fill="#020000" fill-opacity="0.501961" points="148,140 150,147 147,146" />
<polygon fill="#4b4f50" fill-opacity="0.501961" points="207,194 211,169 198,158" />
<polygon fill="#c4b198" fill-opacity="0.501961" points="147,171 142,128 133,172" />
<polygon fill="#9c9384" fill-opacity="0.501961" points="38,46 -3,36 45,65" />
<polygon fill="#837c6a" fill-opacity="0.501961" points="113,85 85,98 84,56" />
<polygon fill="#595244" fill-opacity="0.501961" points="-9,128 9,90 12,126" />
<polygon fill="#acadb3" fill-opacity="0.501961" points="175,34 126,56 136,73" />
<polygon fill="#a0a1a0" fill-opacity="0.501961" points="17,68 46,78 20,29" />
<polygon fill="#643d31" fill-opacity="0.501961" points="129,86 139,82 147,87" />
<polygon fill="#a76f58" fill-opacity="0.501961" points="93,100 81,101 89,130" />
<polygon fill="#a7bccd" fill-opacity="0.501961" points="93,43 124,48 114,75" />
<polygon fill="#4f2f16" fill-opacity="0.501961" points="49,91 66,83 80,97" />
<polygon fill="#7a6342" fill-opacity="0.501961" points="114,104 115,92 125,105" />
<polygon fill="#ac4d2d" fill-opacity="0.501961" points="197,125 209,127 200,136" />
<polygon fill="#576173" fill-opacity="0.501961" points="142,184 163,170 171,207" />
<polygon fill="#babec8" fill-opacity="0.501961" points="34,18 102,47 123,16" />
<polygon fill="#ecc6a7" fill-opacity="0.501961" points="96,112 89,100 96,96" />
<polygon fill="#a4a14b" fill-opacity="0.501961" points="-13,128 5,134 12,127" />
<polygon fill="#b9bbbd" fill-opacity="0.501961" points="225,87 220,38 214,60" />
<polygon fill="#e2cfb7" fill-opacity="0.501961" points="193,137 196,130 180,138" />
<polygon fill="#bfb9bc" fill-opacity="0.501961" points="171,146 156,175 156,138" />
<polygon fill="#93908d" fill-opacity="0.501961" points="191,125 195,56 181,78" />
<polygon fill="#d5cdc7" fill-opacity="0.501961" points="126,130 163,111 154,131" />
<polygon fill="#aeab4b" fill-opacity="0.501961" points="168,137 194,151 194,139" />
<polygon fill="#1a130b" fill-opacity="0.501961" points="21,207 77,190 32,186" />
<polygon fill="#ead0b3" fill-opacity="0.501961" points="254,205 247,166 271,140" />
<polygon fill="#d8c2a3" fill-opacity="0.501961" points="-16,156 31,207 28,172" />
<polygon fill="#e1af95" fill-opacity="0.501961" points="80,65 79,42 64,54" />
<polygon fill="#1d1c21" fill-opacity="0.501961" points="239,155 218,173 207,160" />
<polygon fill="#9196a6" fill-opacity="0.501961" points="228,156 212,155 241,149" />
<polygon fill="#69696e" fill-opacity="0.501961" points="239,91 261,147 261,111" />
<polygon fill="#6b4630" fill-opacity="0.501961" points="143,111 155,115 133,114" />
<polygon fill="#aa9a73" fill-opacity="0.501961" points="74,49 89,43 109,64" />
<polygon fill="#fff0d2" fill-opacity="0.501961" points="127,100 131,113 122,116" />
<polygon fill="#cdac89" fill-opacity="0.501961" points="149,114 134,109 125,94" />
<polygon fill="#aa704a" fill-opacity="0.501961" points="64,49 73,68 69,93" />
<polygon fill="#73614e" fill-opacity="0.501961" points="103,140 120,136 121,160" />
<polygon fill="#bbc1cd" fill-opacity="0.501961" points="247,33 271,76 254,79" />
<polygon fill="#b8afa7" fill-opacity="0.501961" points="238,112 209,97 237,98" />
<polygon fill="#2d1c0d" fill-opacity="0.501961" points="202,83 212,78 213,95" />
<polygon fill="#6b5430" fill-opacity="0.501961" points="36,132 23,130 52,119" />
<polygon fill="#323034" fill-opacity="0.501961" points="152,184 160,174 147,170" />
<polygon fill="#526b88" fill-opacity="0.501961" points="225,203 246,170 249,192" />
<polygon fill="#cdcfd8" fill-opacity="0.501961" points="24,-16 -13,21 132,1" />
<polygon fill="#a3b4bd" fill-opacity="0.501961" points="-16,75 12,77 1,86" />
<polygon fill="#a99677" fill-opacity="0.501961" points="165,89 206,50 188,37" />
<polygon fill="#a1b5ce" fill-opacity="0.501961" points="25,68 19,61 35,36" />
<polygon fill="#756c51" fill-opacity="0.501961" points="78,134 111,106 98,132" />
<polygon fill="#ad967b" fill-opacity="0.501961" points="135,182 120,190 120,148" />
<polygon fill="#6a4c29" fill-opacity="0.501961" points="87,182 78,138 71,185" />
<polygon fill="#944a30" fill-opacity="0.501961" points="132,91 138,105 145,90" />
<polygon fill="#97917e" fill-opacity="0.501961" points="127,78 98,71 125,104" />
<polygon fill="#28759a" fill-opacity="0.501961" points="230,119 221,115 227,105" />
<polygon fill="#5d5150" fill-opacity="0.501961" points="243,169 247,151 252,157" />
<polygon fill="#babfc6" fill-opacity="0.501961" points="-11,34 113,30 -8,1" />
<polygon fill="#28221e" fill-opacity="0.501961" points="245,130 241,110 252,128" />
<polygon fill="#ad613f" fill-opacity="0.501961" points="139,124 140,119 134,118" />
<polygon fill="#928570" fill-opacity="0.501961" points="23,32 17,63 11,39" />
<polygon fill="#b0a16c" fill-opacity="0.501961" points="117,145 95,154 112,156" />
<polygon fill="#635656" fill-opacity="0.501961" points="133,145 137,143 136,133" />
<polygon fill="#60421f" fill-opacity="0.501961" points="27,165 44,189 31,187" />
<polygon fill="#757374" fill-opacity="0.501961" points="213,126 210,115 223,104" />
<polygon fill="#d7dbe4" fill-opacity="0.501961" points="206,-16 271,29 77,-2" />
<polygon fill="#fcdfcc" fill-opacity="0.501961" points="81,54 70,47 79,59" />
<polygon fill="#211007" fill-opacity="0.501961" points="82,147 82,121 72,121" />
<polygon fill="#a79170" fill-opacity="0.501961" points="246,78 207,53 244,61" />
<polygon fill="#929332" fill-opacity="0.501961" points="86,150 100,146 114,151" />
<polygon fill="#fce4b6" fill-opacity="0.501961" points="114,97 104,101 113,90" />
<polygon fill="#f5e1cd" fill-opacity="0.501961" points="192,108 205,93 195,97" />
<polygon fill="#3b2619" fill-opacity="0.501961" points="60,74 52,39 39,48" />
<polygon fill="#7a726d" fill-opacity="0.501961" points="207,115 198,107 188,117" />
<polygon fill="#d89a47" fill-opacity="0.501961" points="42,78 36,74 43,70" />
<polygon fill="#686a74" fill-opacity="0.501961" points="221,71 209,97 223,93" />
<polygon fill="#8f6b3e" fill-opacity="0.501961" points="12,127 10,115 21,119" />
<polygon fill="#b7c0cd" fill-opacity="0.501961" points="206,48 210,37 179,21" />
<polygon fill="#dc9461" fill-opacity="0.501961" points="127,80 130,98 135,79" />
<polygon fill="#dac9ad" fill-opacity="0.501961" points="198,165 207,206 170,184" />
<polygon fill="#deccb0" fill-opacity="0.501961" points="88,155 108,158 92,195" />
<polygon fill="#f7f5ee" fill-opacity="0.501961" points="205,55 215,60 213,56" />
<polygon fill="#9a5d38" fill-opacity="0.501961" points="86,107 82,105 96,99" />
<polygon fill="#bdb9b7" fill-opacity="0.501961" points="165,111 169,131 153,105" />
<polygon fill="#2a1b11" fill-opacity="0.501961" points="212,85 213,63 216,76" />
<polygon fill="#2b1908" fill-opacity="0.501961" points="66,137 18,149 11,136" />
<polygon fill="#b6a599" fill-opacity="0.501961" points="158,51 151,71 146,40" />
<polygon fill="#6e6463" fill-opacity="0.501961" points="171,142 165,140 163,128" />
<polygon fill="#4b3d2b" fill-opacity="0.501961" points="101,192 176,207 138,188" />
<polygon fill="#66604f" fill-opacity="0.501961" points="194,98 195,88 201,89" />
<polygon fill="#a5947f" fill-opacity="0.501961" points="215,57 205,54 212,35" />
<polygon fill="#141923" fill-opacity="0.501961" points="199,156 220,170 245,171" />
<polygon fill="#392817" fill-opacity="0.501961" points="35,82 55,109 21,100" />
<polygon fill="#6a5730" fill-opacity="0.501961" points="176,132 190,135 188,114" />
<polygon fill="#8d755b" fill-opacity="0.501961" points="147,170 145,190 142,180" />
<polygon fill="#472415" fill-opacity="0.501961" points="202,69 197,76 198,64" />
<polygon fill="#7f5f4b" fill-opacity="0.501961" points="54,47 70,41 50,36" />
<polygon fill="#d5c3be" fill-opacity="0.501961" points="101,135 94,136 105,128" />
<polygon fill="#532b1a" fill-opacity="0.501961" points="107,110 112,122 114,117" />
<polygon fill="#dbceb5" fill-opacity="0.501961" points="26,156 -16,128 17,175" />
<polygon fill="#a5a0a2" fill-opacity="0.501961" points="160,158 159,123 150,146" />
<polygon fill="#e0d0a0" fill-opacity="0.501961" points="211,125 210,109 206,122" />
<polygon fill="#847868" fill-opacity="0.501961" points="226,81 221,58 246,85" />
<polygon fill="#928c85" fill-opacity="0.501961" points="184,64 162,85 211,93" />
<polygon fill="#cbab8a" fill-opacity="0.501961" points="42,36 45,26 74,36" />
<polygon fill="#c2b9b4" fill-opacity="0.501961" points="156,175 170,143 152,161" />
<polygon fill="#e0cdb5" fill-opacity="0.501961" points="152,102 144,109 152,95" />
<polygon fill="#665e3c" fill-opacity="0.501961" points="152,89 162,103 155,105" />
<polygon fill="#a46339" fill-opacity="0.501961" points="231,164 240,160 239,166" />
<polygon fill="#8c8276" fill-opacity="0.501961" points="79,63 93,91 87,39" />
<polygon fill="#362717" fill-opacity="0.501961" points="77,145 65,177 25,169" />
<polygon fill="#cbb3a6" fill-opacity="0.501961" points="115,105 118,121 123,112" />
<polygon fill="#a86042" fill-opacity="0.501961" points="113,106 97,100 117,117" />
<polygon fill="#f2c5a6" fill-opacity="0.501961" points="77,106 92,98 85,97" />
<polygon fill="#ffdbc5" fill-opacity="0.501961" points="149,84 134,75 143,75" />
<polygon fill="#d37f46" fill-opacity="0.501961" points="202,119 198,123 208,125" />
<polygon fill="#837b69" fill-opacity="0.501961" points="0,96 15,109 21,76" />
<polygon fill="#9da3a6" fill-opacity="0.501961" points="72,75 84,63 81,87" />
<polygon fill="#f8f0e8" fill-opacity="0.501961" points="233,85 246,90 243,85" />
<polygon fill="#864e32" fill-opacity="0.501961" points="64,57 77,69 71,71" />
<polygon fill="#756951" fill-opacity="0.501961" points="98,83 99,118 104,100" />
<polygon fill="#bfb09a" fill-opacity="0.501961" points="194,149 208,150 182,157" />
<polygon fill="#301706" fill-opacity="0.501961" points="204,138 197,133 199,140" />
<polygon fill="#989ead" fill-opacity="0.501961" points="261,111 254,53 246,101" />
<polygon fill="#b8b6b9" fill-opacity="0.501961" points="251,153 255,151 244,149" />
<polygon fill="#a4aa77" fill-opacity="0.501961" points="86,126 101,130 85,131" />
<polygon fill="#79401b" fill-opacity="0.501961" points="70,79 78,89 70,90" />
<polygon fill="#ccd0da" fill-opacity="0.501961" points="264,12 166,9 219,39" />
<polygon fill="#d2bfac" fill-opacity="0.501961" points="215,107 219,105 214,92" />
<polygon fill="#615b60" fill-opacity="0.501961" points="198,141 202,150 230,145" />
<polygon fill="#846037" fill-opacity="0.501961" points="43,65 42,83 51,99" />
<polygon fill="#745736" fill-opacity="0.501961" points="9,134 -13,136 -16,129" />
<polygon fill="#796759" fill-opacity="0.501961" points="171,133 168,112 194,97" />
<polygon fill="#ebd9bf" fill-opacity="0.501961" points="165,182 195,157 167,157" />
<polygon fill="#a38f7b" fill-opacity="0.501961" points="177,72 159,52 146,85" />
<polygon fill="#cb9a85" fill-opacity="0.501961" points="151,87 144,92 134,89" />
<polygon fill="#9e9288" fill-opacity="0.501961" points="39,46 19,85 42,60" />
<polygon fill="#aca095" fill-opacity="0.501961" points="11,37 -4,23 9,57" />
<polygon fill="#524a3b" fill-opacity="0.501961" points="94,131 93,120 85,119" />
<polygon fill="#fffffb" fill-opacity="0.501961" points="216,58 213,58 220,64" />
<polygon fill="#b6a593" fill-opacity="0.501961" points="122,144 131,169 134,132" />
<polygon fill="#a5a1a1" fill-opacity="0.501961" points="220,94 225,107 246,87" />
<polygon fill="#916538" fill-opacity="0.501961" points="65,120 73,115 65,95" />
<polygon fill="#cebb9c" fill-opacity="0.501961" points="89,183 113,180 89,173" />
<polygon fill="#060000" fill-opacity="0.501961" points="83,152 82,165 86,168" />
<polygon fill="#beab97" fill-opacity="0.501961" points="189,121 189,112 196,121" />
<polygon fill="#787983" fill-opacity="0.501961" points="231,139 247,163 240,109" />
<polygon fill="#e29e75" fill-opacity="0.501961" points="200,72 209,72 210,69" />
<polygon fill="#eadec4" fill-opacity="0.501961" points="24,152 25,161 14,150" />
<polygon fill="#b0a78f" fill-opacity="0.501961" points="124,57 101,84 127,81" />
<polygon fill="#b0a38c" fill-opacity="0.501961" points="184,26 192,65 200,51" />
<polygon fill="#1f120c" fill-opacity="0.501961" points="81,100 73,95 73,110" />
<polygon fill="#b0a7a1" fill-opacity="0.501961" points="161,65 174,46 167,30" />
<polygon fill="#8d693d" fill-opacity="0.501961" points="8,120 23,107 18,102" />
<polygon fill="#81736f" fill-opacity="0.501961" points="199,116 189,117 206,97" />
<polygon fill="#895e39" fill-opacity="0.501961" points="85,136 82,144 88,156" />
<polygon fill="#150f05" fill-opacity="0.501961" points="23,110 37,124 50,119" />
<polygon fill="#3b1f09" fill-opacity="0.501961" points="42,63 45,72 50,75" />
<polygon fill="#120600" fill-opacity="0.501961" points="58,89 52,85 65,87" />
<polygon fill="#3f291e" fill-opacity="0.501961" points="206,66 211,60 216,70" />
<polygon fill="#918077" fill-opacity="0.501961" points="110,140 112,118 118,136" />
<polygon fill="#845745" fill-opacity="0.501961" points="133,117 139,121 131,105" />
<polygon fill="#e8d3ac" fill-opacity="0.501961" points="100,137 87,135 94,134" />
<polygon fill="#dcc9b0" fill-opacity="0.501961" points="137,148 142,116 152,116" />
<polygon fill="#c49e82" fill-opacity="0.501961" points="107,117 106,131 104,123" />
<polygon fill="#d7aa8d" fill-opacity="0.501961" points="79,106 75,114 73,111" />
<polygon fill="#9d8f86" fill-opacity="0.501961" points="249,90 226,46 245,50" />
<polygon fill="#4d371f" fill-opacity="0.501961" points="48,108 33,94 23,121" />
<polygon fill="#755a34" fill-opacity="0.501961" points="57,117 54,127 39,128" />
<polygon fill="#6a5040" fill-opacity="0.501961" points="106,148 108,133 117,145" />
<polygon fill="#8e7d6b" fill-opacity="0.501961" points="133,173 135,145 129,155" />
<polygon fill="#a4b9ce" fill-opacity="0.501961" points="140,71 136,51 121,53" />
<polygon fill="#435063" fill-opacity="0.501961" points="229,171 247,179 220,176" />
<polygon fill="#d8a87c" fill-opacity="0.501961" points="197,67 204,62 207,64" />
<polygon fill="#160c06" fill-opacity="0.501961" points="205,58 200,57 195,67" />
<polygon fill="#dbb099" fill-opacity="0.501961" points="86,107 72,113 76,108" />
<polygon fill="#c1b864" fill-opacity="0.501961" points="90,147 85,134 106,148" />
<polygon fill="#d7a88e" fill-opacity="0.501961" points="88,118 96,118 97,111" />
<polygon fill="#b8a099" fill-opacity="0.501961" points="94,152 114,153 105,156" />
<polygon fill="#dc9c7a" fill-opacity="0.501961" points="130,83 137,78 146,82" />
<polygon fill="#ddcbac" fill-opacity="0.501961" points="103,180 81,204 81,183" />
<polygon fill="#805a30" fill-opacity="0.501961" points="23,81 17,97 33,79" />
<polygon fill="#9f9284" fill-opacity="0.501961" points="172,78 163,81 168,111" />
<polygon fill="#70534c" fill-opacity="0.501961" points="99,133 89,134 89,130" />
<polygon fill="#e5af71" fill-opacity="0.501961" points="107,89 102,90 106,104" />
<polygon fill="#532111" fill-opacity="0.501961" points="131,111 140,111 141,117" />
<polygon fill="#696047" fill-opacity="0.501961" points="167,111 161,89 155,104" />
<polygon fill="#998d84" fill-opacity="0.501961" points="244,156 255,138 246,133" />
<polygon fill="#acaea8" fill-opacity="0.501961" points="78,45 81,35 102,53" />
<polygon fill="#f79031" fill-opacity="0.501961" points="175,134 175,130 172,133" />
<polygon fill="#2c1c08" fill-opacity="0.501961" points="16,148 32,116 10,132" />
<polygon fill="#745027" fill-opacity="0.501961" points="75,136 82,158 72,171" />
<polygon fill="#635758" fill-opacity="0.501961" points="164,145 164,138 167,139" />
<polygon fill="#786a53" fill-opacity="0.501961" points="100,95 84,96 88,90" />
<polygon fill="#fdf0dc" fill-opacity="0.501961" points="154,108 156,107 151,103" />
<polygon fill="#824f41" fill-opacity="0.501961" points="207,124 214,135 192,124" />
<polygon fill="#fff8d5" fill-opacity="0.501961" points="130,98 127,111 121,111" />
<polygon fill="#615e68" fill-opacity="0.501961" points="208,144 209,131 219,134" />
<polygon fill="#c1a08b" fill-opacity="0.501961" points="138,120 129,109 132,118" />
<polygon fill="#b2a9a4" fill-opacity="0.501961" points="229,28 240,38 220,61" />
<polygon fill="#170f06" fill-opacity="0.501961" points="57,116 49,117 46,95" />
<polygon fill="#252122" fill-opacity="0.501961" points="148,147 152,164 146,166" />
<polygon fill="#9d734a" fill-opacity="0.501961" points="47,68 51,76 66,80" />
<polygon fill="#ead8c6" fill-opacity="0.501961" points="208,99 209,112 202,107" />
<polygon fill="#b0a8a2" fill-opacity="0.501961" points="219,117 218,141 233,122" />
<polygon fill="#acaf4c" fill-opacity="0.501961" points="101,134 100,144 87,143" />
<polygon fill="#7e6e69" fill-opacity="0.501961" points="119,145 111,161 121,164" />
<polygon fill="#d2bfa1" fill-opacity="0.501961" points="-16,194 -3,162 28,172" />
<polygon fill="#8c806f" fill-opacity="0.501961" points="175,69 187,81 187,58" />
<polygon fill="#403221" fill-opacity="0.501961" points="0,125 5,115 8,127" />
<polygon fill="#a08d7c" fill-opacity="0.501961" points="210,108 222,111 214,103" />
<polygon fill="#a77052" fill-opacity="0.501961" points="149,98 141,87 142,104" />
<polygon fill="#7e797b" fill-opacity="0.501961" points="236,90 230,94 227,90" />
<polygon fill="#cfc5c1" fill-opacity="0.501961" points="159,152 156,131 161,142" />
<polygon fill="#46311c" fill-opacity="0.501961" points="68,183 51,176 84,177" />
<polygon fill="#9f9896" fill-opacity="0.501961" points="136,57 149,56 141,74" />
<polygon fill="#9a9274" fill-opacity="0.501961" points="101,87 118,88 102,55" />
<polygon fill="#4b403c" fill-opacity="0.501961" points="252,157 251,160 244,152" />
<polygon fill="#8a7c6e" fill-opacity="0.501961" points="117,185 106,191 112,176" />
<polygon fill="#000004" fill-opacity="0.501961" points="77,187 73,207 67,192" />
<polygon fill="#948980" fill-opacity="0.501961" points="164,168 158,167 164,173" />
<polygon fill="#c4cbd6" fill-opacity="0.501961" points="122,24 190,18 179,39" />
<polygon fill="#d6d0cd" fill-opacity="0.501961" points="155,152 159,161 150,151" />
<polygon fill="#deccb1" fill-opacity="0.501961" points="196,162 164,172 175,207" />
<polygon fill="#9c9c42" fill-opacity="0.501961" points="173,151 173,140 190,152" />
<polygon fill="#552410" fill-opacity="0.501961" points="210,77 202,83 205,72" />
<polygon fill="#000100" fill-opacity="0.501961" points="32,187 60,197 25,207" />
<polygon fill="#756045" fill-opacity="0.501961" points="125,103 119,107 116,98" />
<polygon fill="#e3d0ba" fill-opacity="0.501961" points="207,96 202,92 189,105" />
<polygon fill="#0e0903" fill-opacity="0.501961" points="216,180 218,187 230,185" />
<polygon fill="#767c89" fill-opacity="0.501961" points="153,193 164,177 169,196" />
<polygon fill="#3e372f" fill-opacity="0.501961" points="116,180 120,191 119,178" />
<polygon fill="#f4d5c2" fill-opacity="0.501961" points="75,57 78,52 83,57" />
<polygon fill="#c0894f" fill-opacity="0.501961" points="82,103 85,96 75,89" />
<polygon fill="#fde8d0" fill-opacity="0.501961" points="130,110 115,110 129,105" />
<polygon fill="#645859" fill-opacity="0.501961" points="157,127 159,128 158,123" />
<polygon fill="#694827" fill-opacity="0.501961" points="48,85 58,116 70,111" />
<polygon fill="#e3e9f0" fill-opacity="0.501961" points="190,0 255,-16 271,6" />
<polygon fill="#8d5e52" fill-opacity="0.501961" points="91,112 74,115 79,122" />
<polygon fill="#ffe6bd" fill-opacity="0.501961" points="140,76 133,80 130,76" />
<polygon fill="#7c624b" fill-opacity="0.501961" points="132,197 145,172 132,174" />
<polygon fill="#ad9e90" fill-opacity="0.501961" points="124,145 128,182 134,151" />
<polygon fill="#312011" fill-opacity="0.501961" points="86,126 25,147 53,128" />
<polygon fill="#473520" fill-opacity="0.501961" points="199,155 213,160 207,154" />
<polygon fill="#fae8cf" fill-opacity="0.501961" points="196,161 180,158 196,155" />
<polygon fill="#8d6648" fill-opacity="0.501961" points="66,89 69,83 73,99" />
<polygon fill="#b8c1cc" fill-opacity="0.501961" points="7,41 9,25 19,26" />
<polygon fill="#b1996d" fill-opacity="0.501961" points="197,42 188,60 163,72" />
<polygon fill="#dfd8d6" fill-opacity="0.501961" points="140,124 140,132 127,121" />
<polygon fill="#ab9a8b" fill-opacity="0.501961" points="169,153 162,159 183,155" />
<polygon fill="#9a9494" fill-opacity="0.501961" points="250,162 244,153 238,158" />
<polygon fill="#7a8085" fill-opacity="0.501961" points="271,195 248,202 227,187" />
<polygon fill="#322312" fill-opacity="0.501961" points="61,207 25,165 61,149" />
<polygon fill="#6a4013" fill-opacity="0.501961" points="26,157 26,171 31,162" />
<polygon fill="#ddc5aa" fill-opacity="0.501961" points="135,130 122,133 130,105" />
<polygon fill="#7f7f75" fill-opacity="0.501961" points="200,169 205,165 199,166" />
<polygon fill="#474348" fill-opacity="0.501961" points="229,152 240,144 215,150" />
<polygon fill="#6c502d" fill-opacity="0.501961" points="65,191 75,180 83,182" />
<polygon fill="#5b4231" fill-opacity="0.501961" points="44,39 58,54 53,36" />
<polygon fill="#8a775c" fill-opacity="0.501961" points="102,81 79,57 100,64" />
<polygon fill="#b1bbc8" fill-opacity="0.501961" points="23,27 29,51 47,25" />
<polygon fill="#9f9795" fill-opacity="0.501961" points="212,146 228,135 227,122" />
<polygon fill="#aa7a5c" fill-opacity="0.501961" points="71,38 67,71 62,56" />
<polygon fill="#3f93aa" fill-opacity="0.501961" points="228,111 220,105 232,109" />
<polygon fill="#f6e1c6" fill-opacity="0.501961" points="134,108 142,108 139,110" />
<polygon fill="#593d22" fill-opacity="0.501961" points="61,126 85,121 57,118" />
<polygon fill="#d9c9ac" fill-opacity="0.501961" points="17,152 -15,152 28,178" />
<polygon fill="#92693c" fill-opacity="0.501961" points="73,110 63,102 60,88" />
<polygon fill="#0b0500" fill-opacity="0.501961" points="57,143 49,154 28,153" />
<polygon fill="#7f7659" fill-opacity="0.501961" points="154,79 151,96 157,92" />
<polygon fill="#a59e5b" fill-opacity="0.501961" points="9,132 -2,133 7,128" />
<polygon fill="#625d51" fill-opacity="0.501961" points="10,125 6,101 14,106" />
<polygon fill="#a76544" fill-opacity="0.501961" points="90,109 96,106 88,106" />
<polygon fill="#596871" fill-opacity="0.501961" points="214,116 206,113 207,116" />
<polygon fill="#947f61" fill-opacity="0.501961" points="185,95 193,108 176,99" />
<polygon fill="#4d3f3e" fill-opacity="0.501961" points="143,85 132,85 136,88" />
<polygon fill="#341e0d" fill-opacity="0.501961" points="67,83 66,96 60,86" />
<polygon fill="#4b3e3b" fill-opacity="0.501961" points="235,164 243,147 232,160" />
<polygon fill="#b0a08e" fill-opacity="0.501961" points="136,164 147,142 145,172" />
<polygon fill="#8d7e73" fill-opacity="0.501961" points="179,125 180,111 175,106" />
<polygon fill="#efe7d0" fill-opacity="0.501961" points="8,90 -4,88 -13,76" />
<polygon fill="#ddcdb2" fill-opacity="0.501961" points="254,194 246,167 268,187" />
<polygon fill="#5c626c" fill-opacity="0.501961" points="217,115 214,107 212,120" />
<polygon fill="#a89e98" fill-opacity="0.501961" points="209,97 210,108 218,100" />
<polygon fill="#281d1e" fill-opacity="0.501961" points="201,69 196,67 197,76" />
<polygon fill="#cfd6dd" fill-opacity="0.501961" points="271,2 268,71 234,22" />
<polygon fill="#2c292b" fill-opacity="0.501961" points="151,156 155,183 147,167" />
<polygon fill="#bec0c5" fill-opacity="0.501961" points="225,40 226,56 212,33" />
<polygon fill="#d3a983" fill-opacity="0.501961" points="148,75 134,70 131,74" />
<polygon fill="#28180d" fill-opacity="0.501961" points="43,54 50,67 47,43" />
<polygon fill="#675130" fill-opacity="0.501961" points="172,116 177,127 174,130" />
<polygon fill="#76472a" fill-opacity="0.501961" points="129,82 128,84 130,87" />
<polygon fill="#a29a98" fill-opacity="0.501961" points="146,133 154,130 159,157" />
<polygon fill="#a38c74" fill-opacity="0.501961" points="134,185 122,189 117,163" />
<polygon fill="#cdac77" fill-opacity="0.501961" points="197,117 200,123 212,121" />
<polygon fill="#989592" fill-opacity="0.501961" points="180,74 175,100 197,76" />
<polygon fill="#d2c0ab" fill-opacity="0.501961" points="139,150 149,127 142,115" />
<polygon fill="#593f2a" fill-opacity="0.501961" points="214,85 209,84 212,97" />
<polygon fill="#7e7f89" fill-opacity="0.501961" points="241,131 233,136 238,105" />
<polygon fill="#462919" fill-opacity="0.501961" points="70,93 79,96 79,103" />
<polygon fill="#b07154" fill-opacity="0.501961" points="139,122 132,115 140,115" />
<polygon fill="#2a3344" fill-opacity="0.501961" points="245,175 222,175 230,163" />
<polygon fill="#cfd2d9" fill-opacity="0.501961" points="88,2 160,46 157,6" />
<polygon fill="#ffead5" fill-opacity="0.501961" points="77,42 79,47 75,43" />
<polygon fill="#e0cfb4" fill-opacity="0.501961" points="-16,185 25,182 29,200" />
<polygon fill="#ad9986" fill-opacity="0.501961" points="195,115 189,123 190,96" />
<polygon fill="#90949a" fill-opacity="0.501961" points="0,76 16,55 14,78" />
<polygon fill="#b8aea4" fill-opacity="0.501961" points="172,64 187,45 170,39" />
<polygon fill="#c5b1a4" fill-opacity="0.501961" points="200,150 209,150 203,154" />
<polygon fill="#846038" fill-opacity="0.501961" points="56,98 48,94 58,113" />
<polygon fill="#8a7756" fill-opacity="0.501961" points="2,46 -3,79 -10,35" />
<polygon fill="#4e5063" fill-opacity="0.501961" points="240,94 239,91 241,91" />
<polygon fill="#e6d5b9" fill-opacity="0.501961" points="90,156 88,170 109,159" />
<polygon fill="#47566c" fill-opacity="0.501961" points="237,185 248,181 229,174" />
<polygon fill="#dac5a2" fill-opacity="0.501961" points="8,136 13,142 -11,139" />
<polygon fill="#8b847b" fill-opacity="0.501961" points="232,80 243,73 252,89" />
<polygon fill="#45301b" fill-opacity="0.501961" points="44,111 22,83 25,106" />
<polygon fill="#634a2e" fill-opacity="0.501961" points="40,78 32,81 51,98" />
<polygon fill="#5d3723" fill-opacity="0.501961" points="58,45 54,71 64,74" />
<polygon fill="#c4cacd" fill-opacity="0.501961" points="217,74 221,67 217,65" />
<polygon fill="#858692" fill-opacity="0.501961" points="230,157 239,153 241,143" />
<polygon fill="#9c9d92" fill-opacity="0.501961" points="32,60 22,30 14,37" />
<polygon fill="#645f5d" fill-opacity="0.501961" points="116,180 117,193 108,194" />
<polygon fill="#c3c9d5" fill-opacity="0.501961" points="92,47 103,28 150,52" />
<polygon fill="#d3905b" fill-opacity="0.501961" points="201,77 199,73 204,70" />
<polygon fill="#dfb18f" fill-opacity="0.501961" points="146,98 146,85 151,97" />
<polygon fill="#a38e75" fill-opacity="0.501961" points="82,167 83,174 80,167" />
<polygon fill="#78737c" fill-opacity="0.501961" points="235,127 216,145 226,145" />
<polygon fill="#604423" fill-opacity="0.501961" points="82,176 81,165 61,181" />
<polygon fill="#8c97a1" fill-opacity="0.501961" points="106,75 110,80 100,84" />
<polygon fill="#28292d" fill-opacity="0.501961" points="198,152 206,172 227,182" />
<polygon fill="#221610" fill-opacity="0.501961" points="199,81 206,86 211,83" />
<polygon fill="#725746" fill-opacity="0.501961" points="104,124 105,116 82,119" />
<polygon fill="#9e816d" fill-opacity="0.501961" points="119,143 121,128 124,146" />
<polygon fill="#986740" fill-opacity="0.501961" points="136,107 141,108 133,103" />
<polygon fill="#914d38" fill-opacity="0.501961" points="145,91 137,90 133,98" />
<polygon fill="#9b7753" fill-opacity="0.501961" points="208,92 201,84 206,95" />
<polygon fill="#fee7c1" fill-opacity="0.501961" points="94,105 96,104 96,98" />
<polygon fill="#d0c9c7" fill-opacity="0.501961" points="150,137 154,106 157,122" />
<polygon fill="#7a582e" fill-opacity="0.501961" points="30,184 28,175 32,181" />
<polygon fill="#534236" fill-opacity="0.501961" points="116,141 116,152 119,147" />
<polygon fill="#392a1a" fill-opacity="0.501961" points="55,174 47,207 42,151" />
<polygon fill="#fee9c1" fill-opacity="0.501961" points="110,93 112,90 113,97" />
<polygon fill="#dbc3a6" fill-opacity="0.501961" points="115,174 90,162 112,164" />
<polygon fill="#8c6436" fill-opacity="0.501961" points="84,177 88,176 85,165" />
<polygon fill="#eee7e0" fill-opacity="0.501961" points="159,108 162,108 165,114" />
<polygon fill="#6b483b" fill-opacity="0.501961" points="230,113 229,118 226,119" />
<polygon fill="#26272b" fill-opacity="0.501961" points="205,185 214,185 225,201" />
<polygon fill="#dcd7bf" fill-opacity="0.501961" points="208,117 198,116 199,119" />
<polygon fill="#794729" fill-opacity="0.501961" points="197,72 199,63 200,71" />
<polygon fill="#ca8b64" fill-opacity="0.501961" points="205,73 210,72 211,69" />
<polygon fill="#985638" fill-opacity="0.501961" points="84,101 81,107 92,101" />
<polygon fill="#48281b" fill-opacity="0.501961" points="206,61 211,66 205,68" />
<polygon fill="#85776d" fill-opacity="0.501961" points="201,112 189,131 193,115" />
<polygon fill="#c0ab8b" fill-opacity="0.501961" points="99,156 110,151 88,151" />
<polygon fill="#d5c1a0" fill-opacity="0.501961" points="195,145 199,152 198,148" />
<polygon fill="#e0dfe1" fill-opacity="0.501961" points="101,133 99,131 103,130" />
<polygon fill="#9a7357" fill-opacity="0.501961" points="47,36 55,33 61,40" />
<polygon fill="#9cb4c5" fill-opacity="0.501961" points="120,58 110,67 100,52" />
<polygon fill="#b5a793" fill-opacity="0.501961" points="28,69 23,74 43,75" />
<polygon fill="#9e8076" fill-opacity="0.501961" points="101,155 88,155 92,152" />
<polygon fill="#af976f" fill-opacity="0.501961" points="169,75 182,52 177,80" />
<polygon fill="#db986a" fill-opacity="0.501961" points="134,88 128,89 132,98" />
<polygon fill="#574c4c" fill-opacity="0.501961" points="235,162 234,159 223,162" />
<polygon fill="#636387" fill-opacity="0.501961" points="137,131 138,137 135,131" />
<polygon fill="#70381f" fill-opacity="0.501961" points="111,108 107,107 108,121" />
<polygon fill="#c7b39b" fill-opacity="0.501961" points="148,101 140,105 148,109" />
<polygon fill="#ba8469" fill-opacity="0.501961" points="110,102 116,108 98,102" />
<polygon fill="#b0a590" fill-opacity="0.501961" points="187,28 180,38 194,35" />
<polygon fill="#68625c" fill-opacity="0.501961" points="249,124 271,116 271,150" />
<polygon fill="#a49c98" fill-opacity="0.501961" points="150,57 144,69 147,41" />
<polygon fill="#9d9489" fill-opacity="0.501961" points="33,46 42,40 31,64" />
<polygon fill="#b4ab7b" fill-opacity="0.501961" points="87,47 109,67 101,54" />
<polygon fill="#897068" fill-opacity="0.501961" points="122,111 120,111 121,114" />
<polygon fill="#b0856d" fill-opacity="0.501961" points="79,64 65,53 71,63" />
<polygon fill="#bca183" fill-opacity="0.501961" points="69,72 80,79 85,99" />
<polygon fill="#717280" fill-opacity="0.501961" points="251,148 271,158 254,133" />
<polygon fill="#b7b2b1" fill-opacity="0.501961" points="242,38 235,57 233,50" />
</g>
</svg>