<svg xmlns="http://www.w3.org/2000/svg" version="1.1" width="1024" height="768">
<rect x="0" y="0" width="1024" height="768" fill="#988d82" />
<g transform="scale(4.000000) translate(0.5 0.5)">
<polygon fill="#120000" fill-opacity="0.501961" points="-13,123 67,31 92,207" />
<polygon fill="#f0ffff" fill-opacity="0.501961" points="271,0 -16,-1 145,77" />
<polygon fill="#000004" fill-opacity="0.501961" points="209,207 249,174 196,122" />
<polygon fill="#190300" fill-opacity="0.501961" points="104,118 40,207 13,115" />
<polygon fill="#d2d8eb" fill-opacity="0.501961" points="271,58 248,-16 -16,22" />
<polygon fill="#fde8ca" fill-opacity="0.501961" points="193,207 202,163 101,93" />
<polygon fill="#fffece" fill-opacity="0.501961" points="38,207 4,124 -16,183" />
<polygon fill="#ffffd5" fill-opacity="0.501961" points="110,148 78,188 107,207" />
<polygon fill="#9f7f61" fill-opacity="0.501961" points="37,129 185,28 248,78" />
<polygon fill="#321c00" fill-opacity="0.501961" points="81,207 28,207 46,27" />
<polygon fill="#2b2423" fill-opacity="0.501961" points="161,204 150,151 119,207" />
<polygon fill="#2c3247" fill-opacity="0.501961" points="202,207 262,123 243,96" />
<polygon fill="#32170c" fill-opacity="0.501961" points="211,57 220,102 188,62" />
<polygon fill="#bec4cb" fill-opacity="0.501961" points="27,-16 -16,11 47,88" />
<polygon fill="#b89977" fill-opacity="0.501961" points="70,25 216,157 58,85" />
<polygon fill="#735b47" fill-opacity="0.501961" points="251,168 171,129 154,80" />
<polygon fill="#fffcd7" fill-opacity="0.501961" points="247,159 271,166 251,201" />
<polygon fill="#aa976c" fill-opacity="0.501961" points="88,115 84,154 227,156" />
<polygon fill="#cfbbb1" fill-opacity="0.501961" points="114,121 159,113 142,175" />
<polygon fill="#c2c1c4" fill-opacity="0.501961" points="187,102 213,111 265,74" />
<polygon fill="#66421b" fill-opacity="0.501961" points="82,102 51,34 0,130" />
<polygon fill="#05080e" fill-opacity="0.501961" points="223,207 228,160 198,155" />
<polygon fill="#6d472d" fill-opacity="0.501961" points="115,117 94,84 108,151" />
<polygon fill="#d9dfea" fill-opacity="0.501961" points="64,-3 256,-16 271,45" />
<polygon fill="#f7e5c6" fill-opacity="0.501961" points="165,153 169,207 226,207" />
<polygon fill="#f0d5b8" fill-opacity="0.501961" points="-15,129 28,205 25,154" />
<polygon fill="#979286" fill-opacity="0.501961" points="43,57 -16,18 11,122" />
<polygon fill="#fbddbb" fill-opacity="0.501961" points="89,154 95,207 114,161" />
<polygon fill="#babdc2" fill-opacity="0.501961" points="155,83 66,-2 115,79" />
<polygon fill="#fff0d3" fill-opacity="0.501961" points="116,112 132,97 126,134" />
<polygon fill="#c3c8d4" fill-opacity="0.501961" points="35,43 130,-16 -16,7" />
<polygon fill="#2c1e0b" fill-opacity="0.501961" points="33,207 20,74 78,194" />
<polygon fill="#bab7be" fill-opacity="0.501961" points="155,176 175,141 146,86" />
<polygon fill="#bec0c3" fill-opacity="0.501961" points="176,12 222,73 230,25" />
<polygon fill="#858e99" fill-opacity="0.501961" points="208,114 225,56 253,166" />
<polygon fill="#5d3c12" fill-opacity="0.501961" points="55,203 82,115 89,177" />
<polygon fill="#a39e92" fill-opacity="0.501961" points="197,92 102,61 194,46" />
<polygon fill="#0c0d16" fill-opacity="0.501961" points="146,166 148,143 157,187" />
<polygon fill="#333949" fill-opacity="0.501961" points="244,157 198,164 252,207" />
<polygon fill="#25140c" fill-opacity="0.501961" points="213,94 195,77 216,74" />
<polygon fill="#49291a" fill-opacity="0.501961" points="40,40 76,39 44,70" />
<polygon fill="#737360" fill-opacity="0.501961" points="112,86 84,95 84,41" />
<polygon fill="#994e32" fill-opacity="0.501961" points="130,82 139,124 146,83" />
<polygon fill="#443425" fill-opacity="0.501961" points="141,206 110,202 115,175" />
<polygon fill="#614a36" fill-opacity="0.501961" points="120,159 102,140 120,138" />
<polygon fill="#434e63" fill-opacity="0.501961" points="167,207 163,168 127,207" />
<polygon fill="#f4e2c3" fill-opacity="0.501961" points="193,149 175,161 206,197" />
<polygon fill="#9fa2a6" fill-opacity="0.501961" points="-16,87 44,73 32,44" />
<polygon fill="#f5c8b7" fill-opacity="0.501961" points="77,41 84,61 65,57" />
<polygon fill="#bab860" fill-opacity="0.501961" points="194,131 197,157 163,141" />
<polygon fill="#170b00" fill-opacity="0.501961" points="14,126 14,147 67,156" />
<polygon fill="#504e27" fill-opacity="0.501961" points="153,102 168,111 154,81" />
<polygon fill="#c3a683" fill-opacity="0.501961" points="139,81 67,117 129,57" />
<polygon fill="#aea194" fill-opacity="0.501961" points="271,75 237,34 187,52" />
<polygon fill="#a66e4c" fill-opacity="0.501961" points="73,93 51,29 70,35" />
<polygon fill="#6c5737" fill-opacity="0.501961" points="169,134 191,93 187,134" />
<polygon fill="#ba8758" fill-opacity="0.501961" points="71,83 43,64 56,83" />
<polygon fill="#d0ca56" fill-opacity="0.501961" points="96,154 105,137 83,134" />
<polygon fill="#6b4e2b" fill-opacity="0.501961" points="13,137 79,104 63,128" />
<polygon fill="#25242d" fill-opacity="0.501961" points="243,134 239,95 252,127" />
<polygon fill="#72707a" fill-opacity="0.501961" points="252,162 198,147 260,128" />
<polygon fill="#80724e" fill-opacity="0.501961" points="26,68 -16,125 10,136" />
<polygon fill="#9ea7ba" fill-opacity="0.501961" points="271,20 259,126 241,87" />
<polygon fill="#b7bcc4" fill-opacity="0.501961" points="-16,35 41,6 119,33" />
<polygon fill="#060300" fill-opacity="0.501961" points="49,102 30,126 58,116" />
<polygon fill="#ffedca" fill-opacity="0.501961" points="59,207 87,182 98,202" />
<polygon fill="#0e0301" fill-opacity="0.501961" points="71,87 71,111 79,103" />
<polygon fill="#885e3b" fill-opacity="0.501961" points="57,117 46,87 106,128" />
<polygon fill="#ffe9b9" fill-opacity="0.501961" points="104,100 113,87 114,104" />
<polygon fill="#28180a" fill-opacity="0.501961" points="79,207 31,146 25,168" />
<polygon fill="#dac9b2" fill-opacity="0.501961" points="208,92 213,129 192,99" />
<polygon fill="#ffd0a6" fill-opacity="0.501961" points="137,69 128,79 155,81" />
<polygon fill="#467687" fill-opacity="0.501961" points="226,107 196,115 235,118" />
<polygon fill="#aca9a6" fill-opacity="0.501961" points="214,147 236,86 241,117" />
<polygon fill="#b59e82" fill-opacity="0.501961" points="147,134 146,174 107,175" />
<polygon fill="#434855" fill-opacity="0.501961" points="223,92 216,96 214,66" />
<polygon fill="#c5cbd8" fill-opacity="0.501961" points="120,5 181,46 186,18" />
<polygon fill="#e7f4ee" fill-opacity="0.501961" points="6,87 -11,104 -16,64" />
<polygon fill="#4f504d" fill-opacity="0.501961" points="210,174 204,183 197,154" />
<polygon fill="#642c16" fill-opacity="0.501961" points="133,110 146,112 134,120" />
<polygon fill="#ffb47c" fill-opacity="0.501961" points="203,63 206,70 200,76" />
<polygon fill="#e5d6bc" fill-opacity="0.501961" points="2,142 27,154 21,177" />
<polygon fill="#927d76" fill-opacity="0.501961" points="194,141 190,115 204,98" />
<polygon fill="#979a31" fill-opacity="0.501961" points="170,154 196,149 175,139" />
<polygon fill="#9a8572" fill-opacity="0.501961" points="118,194 137,182 137,131" />
<polygon fill="#ffcead" fill-opacity="0.501961" points="90,96 96,96 96,117" />
<polygon fill="#503519" fill-opacity="0.501961" points="16,109 67,87 28,76" />
<polygon fill="#dad5d1" fill-opacity="0.501961" points="163,108 166,119 130,129" />
<polygon fill="#f1dab4" fill-opacity="0.501961" points="166,133 192,136 178,140" />
<polygon fill="#7a572d" fill-opacity="0.501961" points="68,188 77,135 84,180" />
<polygon fill="#a1b5d0" fill-opacity="0.501961" points="95,45 157,52 110,66" />
<polygon fill="#706970" fill-opacity="0.501961" points="163,123 169,132 165,147" />
<polygon fill="#b55933" fill-opacity="0.501961" points="194,136 211,129 202,120" />
<polygon fill="#e1ccae" fill-opacity="0.501961" points="114,155 88,155 89,207" />
<polygon fill="#e7ebe8" fill-opacity="0.501961" points="207,56 220,59 217,65" />
<polygon fill="#1c0d07" fill-opacity="0.501961" points="61,68 45,64 42,44" />
<polygon fill="#170d00" fill-opacity="0.501961" points="89,120 67,150 24,155" />
<polygon fill="#000000" fill-opacity="0.501961" points="200,58 207,59 196,62" />
<polygon fill="#ddd8d5" fill-opacity="0.501961" points="232,91 246,84 223,85" />
<polygon fill="#dfceb4" fill-opacity="0.501961" points="197,147 197,207 165,178" />
<polygon fill="#622107" fill-opacity="0.501961" points="115,113 110,122 107,109" />
<polygon fill="#83785e" fill-opacity="0.501961" points="104,61 101,106 80,57" />
<polygon fill="#5a708a" fill-opacity="0.501961" points="246,167 218,207 250,199" />
<polygon fill="#ccb992" fill-opacity="0.501961" points="85,138 106,125 104,136" />
<polygon fill="#1e1c1e" fill-opacity="0.501961" points="205,162 217,193 239,155" />
<polygon fill="#8f8e89" fill-opacity="0.501961" points="159,98 202,92 191,58" />
<polygon fill="#894f2e" fill-opacity="0.501961" points="242,168 229,161 250,160" />
<polygon fill="#1e6e92" fill-opacity="0.501961" points="231,107 217,113 229,118" />
<polygon fill="#d9dfe8" fill-opacity="0.501961" points="216,-4 271,-16 262,62" />
<polygon fill="#dfcbb2" fill-opacity="0.501961" points="151,103 134,108 164,110" />
<polygon fill="#87858c" fill-opacity="0.501961" points="271,157 214,156 271,138" />
<polygon fill="#3f3d48" fill-opacity="0.501961" points="216,145 236,146 203,158" />
<polygon fill="#2c180e" fill-opacity="0.501961" points="215,73 215,64 205,57" />
<polygon fill="#928b81" fill-opacity="0.501961" points="24,32 -2,47 16,110" />
<polygon fill="#a3a4a6" fill-opacity="0.501961" points="47,31 19,89 19,56" />
<polygon fill="#fff2dc" fill-opacity="0.501961" points="199,96 193,110 194,98" />
<polygon fill="#665743" fill-opacity="0.501961" points="126,99 114,98 120,108" />
<polygon fill="#261803" fill-opacity="0.501961" points="23,119 10,133 33,161" />
<polygon fill="#ecd3b5" fill-opacity="0.501961" points="271,146 250,207 249,162" />
<polygon fill="#906b3c" fill-opacity="0.501961" points="28,77 49,95 46,72" />
<polygon fill="#eddbca" fill-opacity="0.501961" points="116,109 143,137 127,104" />
<polygon fill="#d0d6e4" fill-opacity="0.501961" points="93,46 144,15 145,49" />
<polygon fill="#200c00" fill-opacity="0.501961" points="66,83 59,86 69,99" />
<polygon fill="#8f9084" fill-opacity="0.501961" points="125,78 96,71 126,104" />
<polygon fill="#ad9a82" fill-opacity="0.501961" points="149,87 146,45 219,46" />
<polygon fill="#e1ab94" fill-opacity="0.501961" points="85,109 67,114 79,106" />
<polygon fill="#b16a47" fill-opacity="0.501961" points="93,109 88,121 73,85" />
<polygon fill="#817462" fill-opacity="0.501961" points="243,85 221,56 226,81" />
<polygon fill="#bcb2ac" fill-opacity="0.501961" points="238,89 236,110 212,101" />
<polygon fill="#dac4a9" fill-opacity="0.501961" points="29,183 8,134 -16,203" />
<polygon fill="#94a1ad" fill-opacity="0.501961" points="71,75 84,88 83,63" />
<polygon fill="#b8bfcd" fill-opacity="0.501961" points="111,56 41,19 116,16" />
<polygon fill="#605751" fill-opacity="0.501961" points="152,148 147,143 147,130" />
<polygon fill="#1d1000" fill-opacity="0.501961" points="87,161 81,167 80,141" />
<polygon fill="#bfa992" fill-opacity="0.501961" points="192,117 225,133 234,121" />
<polygon fill="#100f0c" fill-opacity="0.501961" points="188,207 221,177 240,207" />
<polygon fill="#796344" fill-opacity="0.501961" points="98,133 81,134 116,103" />
<polygon fill="#090501" fill-opacity="0.501961" points="46,69 58,88 51,87" />
<polygon fill="#403728" fill-opacity="0.501961" points="6,126 11,105 -3,127" />
<polygon fill="#a49481" fill-opacity="0.501961" points="44,76 39,43 22,74" />
<polygon fill="#141116" fill-opacity="0.501961" points="198,75 194,71 198,58" />
<polygon fill="#584e4b" fill-opacity="0.501961" points="160,175 129,173 156,187" />
<polygon fill="#b3ada9" fill-opacity="0.501961" points="126,67 169,34 184,49" />
<polygon fill="#d7c6af" fill-opacity="0.501961" points="140,117 152,121 137,162" />
<polygon fill="#944b2a" fill-opacity="0.501961" points="75,72 66,59 78,68" />
<polygon fill="#6e7171" fill-opacity="0.501961" points="226,105 211,125 214,107" />
<polygon fill="#9a972d" fill-opacity="0.501961" points="105,145 85,150 116,151" />
<polygon fill="#887866" fill-opacity="0.501961" points="184,116 197,89 157,106" />
<polygon fill="#3e2d1b" fill-opacity="0.501961" points="17,103 38,78 51,102" />
<polygon fill="#d9c5b9" fill-opacity="0.501961" points="199,153 195,146 207,153" />
<polygon fill="#646169" fill-opacity="0.501961" points="198,107 197,119 206,97" />
<polygon fill="#463125" fill-opacity="0.501961" points="57,65 43,42 67,44" />
<polygon fill="#f7e6d7" fill-opacity="0.501961" points="202,105 212,115 208,102" />
<polygon fill="#e0d0b3" fill-opacity="0.501961" points="239,207 172,199 163,171" />
<polygon fill="#e2a570" fill-opacity="0.501961" points="128,97 132,87 139,112" />
<polygon fill="#85663f" fill-opacity="0.501961" points="36,126 57,117 54,126" />
<polygon fill="#b28d7f" fill-opacity="0.501961" points="122,111 121,136 113,112" />
<polygon fill="#8d6a33" fill-opacity="0.501961" points="19,101 20,119 5,134" />
<polygon fill="#473b3b" fill-opacity="0.501961" points="201,150 197,134 215,135" />
<polygon fill="#36281a" fill-opacity="0.501961" points="55,147 76,189 23,202" />
<polygon fill="#584c47" fill-opacity="0.501961" points="250,154 252,160 238,149" />
<polygon fill="#9d938b" fill-opacity="0.501961" points="258,137 247,134 240,161" />
<polygon fill="#cccfd7" fill-opacity="0.501961" points="133,7 -16,19 16,-16" />
<polygon fill="#d0cfcf" fill-opacity="0.501961" points="241,84 256,100 242,92" />
<polygon fill="#63656e" fill-opacity="0.501961" points="220,94 208,96 222,71" />
<polygon fill="#717073" fill-opacity="0.501961" points="247,118 250,97 271,142" />
<polygon fill="#786155" fill-opacity="0.501961" points="118,146 111,162 120,162" />
<polygon fill="#e0cab6" fill-opacity="0.501961" points="192,132 190,141 198,128" />
<polygon fill="#978972" fill-opacity="0.501961" points="252,91 227,42 230,74" />
<polygon fill="#fffbd6" fill-opacity="0.501961" points="123,108 129,98 128,115" />
<polygon fill="#c38a65" fill-opacity="0.501961" points="199,64 211,70 211,76" />
<polygon fill="#715d47" fill-opacity="0.501961" points="180,133 157,100 199,127" />
<polygon fill="#9b8b76" fill-opacity="0.501961" points="158,67 168,114 191,59" />
<polygon fill="#a59ea5" fill-opacity="0.501961" points="169,132 160,170 171,154" />
<polygon fill="#3b2710" fill-opacity="0.501961" points="83,141 73,114 54,130" />
<polygon fill="#6a5f55" fill-opacity="0.501961" points="112,173 105,200 127,200" />
<polygon fill="#e6d9be" fill-opacity="0.501961" points="24,162 24,151 5,151" />
<polygon fill="#dee4e5" fill-opacity="0.501961" points="219,72 220,64 212,58" />
<polygon fill="#999288" fill-opacity="0.501961" points="191,121 196,37 179,86" />
<polygon fill="#73522c" fill-opacity="0.501961" points="86,183 74,165 79,142" />
<polygon fill="#997e63" fill-opacity="0.501961" points="150,117 141,114 150,105" />
<polygon fill="#d4a77a" fill-opacity="0.501961" points="71,35 39,36 62,29" />
<polygon fill="#f1caa0" fill-opacity="0.501961" points="81,97 93,98 84,102" />
<polygon fill="#a6a050" fill-opacity="0.501961" points="199,152 165,138 191,138" />
<polygon fill="#945338" fill-opacity="0.501961" points="145,92 133,93 138,108" />
<polygon fill="#9aa9bd" fill-opacity="0.501961" points="42,61 17,68 19,55" />
<polygon fill="#e2bfad" fill-opacity="0.501961" points="80,53 68,47 77,66" />
<polygon fill="#b09a84" fill-opacity="0.501961" points="121,138 120,188 139,167" />
<polygon fill="#d1af95" fill-opacity="0.501961" points="106,119 106,129 101,134" />
<polygon fill="#e1d0b9" fill-opacity="0.501961" points="196,152 204,198 174,154" />
<polygon fill="#918741" fill-opacity="0.501961" points="6,135 15,126 -16,132" />
<polygon fill="#93673a" fill-opacity="0.501961" points="76,118 62,91 68,120" />
<polygon fill="#c2bbbb" fill-opacity="0.501961" points="156,171 150,145 172,146" />
<polygon fill="#d1bd9e" fill-opacity="0.501961" points="28,172 -16,162 30,190" />
<polygon fill="#ffc88f" fill-opacity="0.501961" points="201,63 208,63 200,66" />
<polygon fill="#a49e9f" fill-opacity="0.501961" points="163,115 150,137 157,154" />
<polygon fill="#dfab86" fill-opacity="0.501961" points="153,104 147,81 144,90" />
<polygon fill="#0b0200" fill-opacity="0.501961" points="213,78 213,83 201,85" />
<polygon fill="#9f8e65" fill-opacity="0.501961" points="104,65 74,47 92,48" />
<polygon fill="#e5a874" fill-opacity="0.501961" points="107,90 103,104 107,106" />
<polygon fill="#776c53" fill-opacity="0.501961" points="84,95 102,86 98,96" />
<polygon fill="#c4cbd5" fill-opacity="0.501961" points="180,10 151,21 184,46" />
<polygon fill="#614741" fill-opacity="0.501961" points="149,85 134,83 133,88" />
<polygon fill="#695247" fill-opacity="0.501961" points="118,149 116,135 103,138" />
<polygon fill="#dbc9ac" fill-opacity="0.501961" points="116,167 88,157 93,197" />
<polygon fill="#51391c" fill-opacity="0.501961" points="86,181 60,182 87,173" />
<polygon fill="#19110b" fill-opacity="0.501961" points="74,109 67,94 78,103" />
<polygon fill="#b5a078" fill-opacity="0.501961" points="190,35 171,68 198,58" />
<polygon fill="#fbd2b7" fill-opacity="0.501961" points="149,85 133,76 143,75" />
<polygon fill="#425269" fill-opacity="0.501961" points="246,181 231,170 220,175" />
<polygon fill="#e2d2b7" fill-opacity="0.501961" points="9,136 19,169 -14,134" />
<polygon fill="#47494c" fill-opacity="0.501961" points="210,207 212,174 198,157" />
<polygon fill="#683e11" fill-opacity="0.501961" points="30,170 28,156 25,170" />
<polygon fill="#8c7e72" fill-opacity="0.501961" points="134,167 129,144 137,132" />
<polygon fill="#2e1807" fill-opacity="0.501961" points="40,49 48,67 47,45" />
<polygon fill="#dbc0a4" fill-opacity="0.501961" points="122,137 129,115 134,141" />
<polygon fill="#925234" fill-opacity="0.501961" points="85,107 94,100 81,105" />
<polygon fill="#9a6e53" fill-opacity="0.501961" points="72,43 77,38 53,36" />
<polygon fill="#a79883" fill-opacity="0.501961" points="224,66 208,49 211,35" />
<polygon fill="#a5744d" fill-opacity="0.501961" points="75,69 52,77 58,86" />
<polygon fill="#280b03" fill-opacity="0.501961" points="208,65 206,69 205,66" />
<polygon fill="#000000" fill-opacity="0.501961" points="31,187 97,207 29,207" />
<polygon fill="#571d09" fill-opacity="0.501961" points="114,116 104,107 111,118" />
<polygon fill="#d1c1ae" fill-opacity="0.501961" points="215,105 214,92 219,106" />
<polygon fill="#e2b26b" fill-opacity="0.501961" points="35,72 42,72 42,78" />
<polygon fill="#ede7ca" fill-opacity="0.501961" points="199,119 198,116 209,116" />
<polygon fill="#170d07" fill-opacity="0.501961" points="83,122 76,127 82,151" />
<polygon fill="#968f92" fill-opacity="0.501961" points="216,139 219,144 206,152" />
<polygon fill="#4e3f2d" fill-opacity="0.501961" points="112,191 150,207 143,187" />
<polygon fill="#d0c7bf" fill-opacity="0.501961" points="155,115 142,115 159,137" />
<polygon fill="#9e856b" fill-opacity="0.501961" points="160,51 151,75 162,85" />
<polygon fill="#847566" fill-opacity="0.501961" points="175,102 200,87 178,122" />
<polygon fill="#cacedb" fill-opacity="0.501961" points="179,11 220,43 237,17" />
<polygon fill="#635244" fill-opacity="0.501961" points="86,120 100,128 101,115" />
<polygon fill="#292424" fill-opacity="0.501961" points="240,119 242,114 252,130" />
<polygon fill="#d3a791" fill-opacity="0.501961" points="77,117 82,102 73,114" />
<polygon fill="#080607" fill-opacity="0.501961" points="152,159 148,151 150,163" />
<polygon fill="#46321b" fill-opacity="0.501961" points="42,87 47,112 15,117" />
<polygon fill="#e1e6ed" fill-opacity="0.501961" points="168,6 271,4 195,-16" />
<polygon fill="#927239" fill-opacity="0.501961" points="82,140 87,138 88,158" />
<polygon fill="#7a6149" fill-opacity="0.501961" points="132,180 143,171 147,188" />
<polygon fill="#bfa085" fill-opacity="0.501961" points="78,78 80,88 66,69" />
<polygon fill="#754e22" fill-opacity="0.501961" points="28,179 35,183 30,170" />
<polygon fill="#3a383a" fill-opacity="0.501961" points="227,164 218,161 243,153" />
<polygon fill="#552514" fill-opacity="0.501961" points="137,112 131,109 137,117" />
<polygon fill="#73675d" fill-opacity="0.501961" points="231,119 226,117 235,110" />
<polygon fill="#d08e68" fill-opacity="0.501961" points="142,79 126,79 142,84" />
<polygon fill="#f2dfcc" fill-opacity="0.501961" points="198,104 196,96 204,93" />
<polygon fill="#baa770" fill-opacity="0.501961" points="115,157 96,153 114,147" />
<polygon fill="#999087" fill-opacity="0.501961" points="43,61 23,80 36,46" />
<polygon fill="#b79c7b" fill-opacity="0.501961" points="135,90 117,83 122,57" />
<polygon fill="#b7a797" fill-opacity="0.501961" points="147,154 145,174 136,144" />
<polygon fill="#281707" fill-opacity="0.501961" points="11,137 22,151 67,138" />
<polygon fill="#fce9cf" fill-opacity="0.501961" points="188,162 171,158 192,156" />
<polygon fill="#be7848" fill-opacity="0.501961" points="200,76 205,81 203,69" />
<polygon fill="#8d5d4a" fill-opacity="0.501961" points="195,121 218,134 200,135" />
<polygon fill="#6b7586" fill-opacity="0.501961" points="152,207 156,180 187,207" />
<polygon fill="#614223" fill-opacity="0.501961" points="57,93 60,116 86,137" />
<polygon fill="#8a6335" fill-opacity="0.501961" points="23,96 15,96 30,78" />
<polygon fill="#a2b7cb" fill-opacity="0.501961" points="130,71 131,47 140,70" />
<polygon fill="#5b5636" fill-opacity="0.501961" points="161,107 163,93 156,105" />
<polygon fill="#a49f74" fill-opacity="0.501961" points="88,125 84,131 96,131" />
<polygon fill="#bcc2cb" fill-opacity="0.501961" points="0,3 9,40 33,8" />
<polygon fill="#8c867e" fill-opacity="0.501961" points="81,67 93,96 87,39" />
<polygon fill="#0e0e11" fill-opacity="0.501961" points="209,164 198,154 225,166" />
<polygon fill="#4a4c5c" fill-opacity="0.501961" points="244,102 239,92 241,112" />
<polygon fill="#c1c5cb" fill-opacity="0.501961" points="271,80 271,38 232,29" />
<polygon fill="#847a6b" fill-opacity="0.501961" points="18,95 -5,108 22,68" />
<polygon fill="#5f584e" fill-opacity="0.501961" points="4,92 13,108 10,127" />
<polygon fill="#717382" fill-opacity="0.501961" points="230,136 243,150 240,104" />
<polygon fill="#523824" fill-opacity="0.501961" points="122,103 124,104 121,105" />
<polygon fill="#4d2616" fill-opacity="0.501961" points="213,76 205,72 202,84" />
<polygon fill="#b3a292" fill-opacity="0.501961" points="130,179 134,135 122,139" />
<polygon fill="#e0a680" fill-opacity="0.501961" points="91,104 96,113 94,119" />
<polygon fill="#c2b29e" fill-opacity="0.501961" points="189,122 193,120 189,112" />
<polygon fill="#1a1006" fill-opacity="0.501961" points="52,104 57,117 39,98" />
<polygon fill="#857d73" fill-opacity="0.501961" points="179,67 186,58 189,93" />
<polygon fill="#5c462f" fill-opacity="0.501961" points="190,131 180,113 188,117" />
<polygon fill="#62565d" fill-opacity="0.501961" points="137,133 134,141 137,139" />
<polygon fill="#f0dec2" fill-opacity="0.501961" points="111,157 93,163 92,156" />
<polygon fill="#b9afaa" fill-opacity="0.501961" points="146,40 151,59 160,46" />
<polygon fill="#959696" fill-opacity="0.501961" points="192,101 197,76 170,82" />
<polygon fill="#a9a0a0" fill-opacity="0.501961" points="229,32 271,68 224,48" />
<polygon fill="#ab8c70" fill-opacity="0.501961" points="130,111 144,102 130,102" />
<polygon fill="#736772" fill-opacity="0.501961" points="164,140 165,133 174,141" />
<polygon fill="#875f3f" fill-opacity="0.501961" points="49,34 42,40 61,41" />
<polygon fill="#997f69" fill-opacity="0.501961" points="190,105 198,128 198,110" />
<polygon fill="#b5b1b0" fill-opacity="0.501961" points="158,110 165,110 169,134" />
<polygon fill="#b2bcca" fill-opacity="0.501961" points="50,20 23,26 29,51" />
<polygon fill="#c1bb64" fill-opacity="0.501961" points="87,135 105,147 87,148" />
<polygon fill="#989490" fill-opacity="0.501961" points="9,76 1,29 23,73" />
<polygon fill="#865129" fill-opacity="0.501961" points="79,91 70,79 75,92" />
<polygon fill="#b47b60" fill-opacity="0.501961" points="136,123 140,115 132,116" />
<polygon fill="#403732" fill-opacity="0.501961" points="163,178 161,172 155,177" />
<polygon fill="#3d362f" fill-opacity="0.501961" points="119,179 115,177 119,189" />
<polygon fill="#d9c0aa" fill-opacity="0.501961" points="88,137 85,135 96,133" />
<polygon fill="#6d3a23" fill-opacity="0.501961" points="62,58 66,75 52,72" />
<polygon fill="#926359" fill-opacity="0.501961" points="79,122 87,107 75,114" />
<polygon fill="#57555b" fill-opacity="0.501961" points="203,151 218,134 206,133" />
<polygon fill="#b3b0b2" fill-opacity="0.501961" points="255,153 259,149 244,149" />
<polygon fill="#000005" fill-opacity="0.501961" points="77,187 37,207 77,199" />
<polygon fill="#9b8870" fill-opacity="0.501961" points="19,32 17,58 8,43" />
<polygon fill="#392b1f" fill-opacity="0.501961" points="205,134 205,142 196,140" />
<polygon fill="#8e5e2a" fill-opacity="0.501961" points="48,77 42,74 41,62" />
<polygon fill="#060306" fill-opacity="0.501961" points="150,151 148,144 148,154" />
<polygon fill="#f1e2d0" fill-opacity="0.501961" points="204,104 210,114 208,100" />
<polygon fill="#332516" fill-opacity="0.501961" points="26,168 69,171 75,147" />
<polygon fill="#aabeca" fill-opacity="0.501961" points="-5,75 12,81 -8,80" />
<polygon fill="#744e28" fill-opacity="0.501961" points="78,135 77,158 72,138" />
<polygon fill="#875230" fill-opacity="0.501961" points="247,169 231,165 238,158" />
<polygon fill="#92959a" fill-opacity="0.501961" points="241,158 240,152 250,164" />
<polygon fill="#9f8478" fill-opacity="0.501961" points="118,139 121,126 124,154" />
<polygon fill="#aaaeb5" fill-opacity="0.501961" points="217,68 226,88 222,63" />
<polygon fill="#181d2a" fill-opacity="0.501961" points="216,172 223,161 240,170" />
<polygon fill="#93693e" fill-opacity="0.501961" points="65,95 72,109 64,119" />
<polygon fill="#161007" fill-opacity="0.501961" points="46,200 68,201 61,181" />
<polygon fill="#ddccb0" fill-opacity="0.501961" points="259,207 257,157 246,166" />
<polygon fill="#1b140e" fill-opacity="0.501961" points="204,86 211,89 199,76" />
<polygon fill="#7b8197" fill-opacity="0.501961" points="226,156 228,151 210,155" />
<polygon fill="#7e613f" fill-opacity="0.501961" points="88,175 75,169 89,171" />
<polygon fill="#2f200d" fill-opacity="0.501961" points="31,117 19,150 10,133" />
<polygon fill="#d7a15c" fill-opacity="0.501961" points="198,118 202,124 206,120" />
<polygon fill="#b4aaa5" fill-opacity="0.501961" points="231,123 220,116 212,131" />
<polygon fill="#a2ab45" fill-opacity="0.501961" points="86,140 99,136 102,144" />
<polygon fill="#c19984" fill-opacity="0.501961" points="85,71 68,48 70,62" />
<polygon fill="#ab8c6a" fill-opacity="0.501961" points="124,189 111,156 123,166" />
<polygon fill="#ddcbb0" fill-opacity="0.501961" points="190,160 204,188 156,207" />
<polygon fill="#ffe1bb" fill-opacity="0.501961" points="114,100 109,101 111,91" />
<polygon fill="#f6eee7" fill-opacity="0.501961" points="231,85 241,86 237,88" />
<polygon fill="#97963e" fill-opacity="0.501961" points="169,152 176,146 194,150" />
<polygon fill="#827e7d" fill-opacity="0.501961" points="209,134 220,112 214,98" />
<polygon fill="#af663c" fill-opacity="0.501961" points="131,83 130,90 128,80" />
<polygon fill="#7d5f38" fill-opacity="0.501961" points="14,103 20,101 27,109" />
<polygon fill="#f5dccc" fill-opacity="0.501961" points="73,50 77,56 86,57" />
<polygon fill="#745533" fill-opacity="0.501961" points="46,79 59,108 30,76" />
<polygon fill="#71574c" fill-opacity="0.501961" points="86,134 103,134 89,130" />
<polygon fill="#5d4a3e" fill-opacity="0.501961" points="96,118 91,128 86,118" />
<polygon fill="#dac3a5" fill-opacity="0.501961" points="140,111 135,109 145,108" />
<polygon fill="#322111" fill-opacity="0.501961" points="26,135 71,137 82,122" />
<polygon fill="#b9c1ce" fill-opacity="0.501961" points="206,50 190,25 211,32" />
<polygon fill="#a1b7c5" fill-opacity="0.501961" points="102,51 114,75 123,55" />
<polygon fill="#2d2e1e" fill-opacity="0.501961" points="194,97 196,94 194,93" />
<polygon fill="#ffa750" fill-opacity="0.501961" points="173,130 176,135 174,134" />
<polygon fill="#39383d" fill-opacity="0.501961" points="250,124 241,140 247,116" />
<polygon fill="#382116" fill-opacity="0.501961" points="211,60 203,57 211,66" />
<polygon fill="#b7bcc5" fill-opacity="0.501961" points="72,22 101,38 37,27" />
<polygon fill="#757077" fill-opacity="0.501961" points="232,90 233,94 226,91" />
<polygon fill="#b7a98e" fill-opacity="0.501961" points="110,74 140,74 125,57" />
<polygon fill="#705f4e" fill-opacity="0.501961" points="195,140 201,148 204,141" />
<polygon fill="#ab9d8a" fill-opacity="0.501961" points="190,65 195,32 201,55" />
<polygon fill="#605d67" fill-opacity="0.501961" points="221,141 235,145 209,149" />
<polygon fill="#9e8f86" fill-opacity="0.501961" points="236,67 253,71 239,45" />
<polygon fill="#847455" fill-opacity="0.501961" points="114,98 116,88 119,101" />
<polygon fill="#170c0a" fill-opacity="0.501961" points="200,59 199,57 203,57" />
<polygon fill="#a3917f" fill-opacity="0.501961" points="110,178 115,180 105,195" />
<polygon fill="#d49f87" fill-opacity="0.501961" points="145,88 128,88 139,91" />
<polygon fill="#240d0a" fill-opacity="0.501961" points="198,76 197,72 200,68" />
<polygon fill="#5d4a39" fill-opacity="0.501961" points="204,88 212,90 214,96" />
<polygon fill="#464144" fill-opacity="0.501961" points="236,144 228,152 209,152" />
<polygon fill="#4f311e" fill-opacity="0.501961" points="81,99 72,91 70,100" />
<polygon fill="#e9d9c5" fill-opacity="0.501961" points="189,135 190,139 179,135" />
<polygon fill="#7b5e40" fill-opacity="0.501961" points="-6,136 -13,129 9,134" />
<polygon fill="#6d6548" fill-opacity="0.501961" points="164,98 155,105 151,90" />
<polygon fill="#090808" fill-opacity="0.501961" points="223,183 227,201 209,172" />
<polygon fill="#415063" fill-opacity="0.501961" points="228,177 237,185 248,181" />
<polygon fill="#e6d1b2" fill-opacity="0.501961" points="71,201 97,199 83,183" />
<polygon fill="#c9b393" fill-opacity="0.501961" points="100,155 106,151 88,152" />
<polygon fill="#a25434" fill-opacity="0.501961" points="103,109 113,106 117,116" />
<polygon fill="#dec6b7" fill-opacity="0.501961" points="115,113 123,121 115,107" />
<polygon fill="#2c2c34" fill-opacity="0.501961" points="152,183 147,175 150,162" />
<polygon fill="#9b8e65" fill-opacity="0.501961" points="74,48 103,57 113,79" />
<polygon fill="#525261" fill-opacity="0.501961" points="211,118 211,114 215,119" />
<polygon fill="#b5b1ae" fill-opacity="0.501961" points="212,37 222,46 221,61" />
<polygon fill="#965132" fill-opacity="0.501961" points="132,96 138,103 138,88" />
<polygon fill="#458da7" fill-opacity="0.501961" points="223,116 212,111 235,109" />
<polygon fill="#b1aa66" fill-opacity="0.501961" points="8,133 10,129 -1,131" />
<polygon fill="#a46d48" fill-opacity="0.501961" points="73,61 64,60 69,91" />
<polygon fill="#766952" fill-opacity="0.501961" points="105,126 102,94 96,122" />
<polygon fill="#c48660" fill-opacity="0.501961" points="148,89 147,99 142,98" />
<polygon fill="#897873" fill-opacity="0.501961" points="116,140 112,117 110,139" />
<polygon fill="#866e35" fill-opacity="0.501961" points="189,135 189,130 173,129" />
<polygon fill="#afa39b" fill-opacity="0.501961" points="159,160 157,153 182,155" />
<polygon fill="#0e0701" fill-opacity="0.501961" points="52,118 40,123 50,103" />
<polygon fill="#958470" fill-opacity="0.501961" points="-16,75 -2,86 6,32" />
<polygon fill="#959fa6" fill-opacity="0.501961" points="89,88 80,72 69,71" />
<polygon fill="#c2b09b" fill-opacity="0.501961" points="137,139 144,146 136,172" />
<polygon fill="#b2a38f" fill-opacity="0.501961" points="189,118 192,129 189,127" />
<polygon fill="#7f7a74" fill-opacity="0.501961" points="247,126 264,125 257,116" />
<polygon fill="#b9aa95" fill-opacity="0.501961" points="156,168 153,167 152,158" />
<polygon fill="#6b737e" fill-opacity="0.501961" points="214,82 222,70 221,80" />
<polygon fill="#9b8066" fill-opacity="0.501961" points="204,93 213,97 203,85" />
<polygon fill="#eed9c2" fill-opacity="0.501961" points="208,93 204,100 209,98" />
<polygon fill="#594b3c" fill-opacity="0.501961" points="114,181 121,184 110,173" />
<polygon fill="#f7c495" fill-opacity="0.501961" points="133,70 130,85 134,82" />
<polygon fill="#c5bcba" fill-opacity="0.501961" points="167,154 155,173 157,136" />
<polygon fill="#82654d" fill-opacity="0.501961" points="141,112 151,114 146,115" />
<polygon fill="#8c8683" fill-opacity="0.501961" points="250,73 246,84 224,85" />
<polygon fill="#e6b077" fill-opacity="0.501961" points="82,96 77,86 82,88" />
<polygon fill="#5b4727" fill-opacity="0.501961" points="39,123 26,129 39,133" />
<polygon fill="#ffe5c2" fill-opacity="0.501961" points="96,100 97,105 93,105" />
<polygon fill="#dcdce2" fill-opacity="0.501961" points="117,36 152,30 141,45" />
<polygon fill="#89705a" fill-opacity="0.501961" points="249,130 257,129 244,139" />
<polygon fill="#725642" fill-opacity="0.501961" points="56,52 57,44 52,37" />
<polygon fill="#9b8569" fill-opacity="0.501961" points="179,105 188,94 162,98" />
<polygon fill="#dbd5cb" fill-opacity="0.501961" points="161,110 155,106 147,108" />
<polygon fill="#332d2a" fill-opacity="0.501961" points="245,131 242,119 254,127" />
<polygon fill="#735745" fill-opacity="0.501961" points="104,148 116,145 107,132" />
<polygon fill="#523b20" fill-opacity="0.501961" points="66,192 76,181 63,164" />
<polygon fill="#b5aba0" fill-opacity="0.501961" points="172,45 184,44 172,66" />
<polygon fill="#b8ad5f" fill-opacity="0.501961" points="190,138 170,137 180,142" />
<polygon fill="#baad9e" fill-opacity="0.501961" points="218,102 222,111 209,100" />
<polygon fill="#ffeecc" fill-opacity="0.501961" points="143,75 134,75 129,79" />
<polygon fill="#3e3933" fill-opacity="0.501961" points="140,200 142,180 132,199" />
<polygon fill="#4b474e" fill-opacity="0.501961" points="239,153 241,146 244,146" />
<polygon fill="#9b9491" fill-opacity="0.501961" points="154,131 152,143 159,156" />
<polygon fill="#856b54" fill-opacity="0.501961" points="134,190 139,181 132,168" />
<polygon fill="#d1bc9d" fill-opacity="0.501961" points="88,175 109,176 87,185" />
<polygon fill="#a68f6c" fill-opacity="0.501961" points="221,60 245,58 223,69" />
<polygon fill="#b7b1a7" fill-opacity="0.501961" points="52,25 44,27 37,46" />
<polygon fill="#81765c" fill-opacity="0.501961" points="166,100 152,90 161,78" />
<polygon fill="#d3d5dd" fill-opacity="0.501961" points="47,3 226,20 135,-16" />
<polygon fill="#c1aba0" fill-opacity="0.501961" points="119,138 115,121 121,113" />
<polygon fill="#6d6c79" fill-opacity="0.501961" points="254,150 253,137 271,138" />
<polygon fill="#1c0d02" fill-opacity="0.501961" points="199,59 203,58 197,66" />
<polygon fill="#9ea3af" fill-opacity="0.501961" points="251,58 271,115 253,102" />
<polygon fill="#9dacc0" fill-opacity="0.501961" points="22,45 17,64 29,63" />
<polygon fill="#7e6d5c" fill-opacity="0.501961" points="147,195 146,170 142,181" />
<polygon fill="#848377" fill-opacity="0.501961" points="199,164 202,168 204,167" />
<polygon fill="#4c351d" fill-opacity="0.501961" points="43,100 12,115 47,110" />
<polygon fill="#5b3d1d" fill-opacity="0.501961" points="25,80 27,100 21,86" />
<polygon fill="#94a3a7" fill-opacity="0.501961" points="-16,110 -16,96 7,96" />
<polygon fill="#0a0400" fill-opacity="0.501961" points="84,149 83,158 81,148" />
<polygon fill="#a77147" fill-opacity="0.501961" points="81,105 90,105 97,100" />
<polygon fill="#110902" fill-opacity="0.501961" points="57,144 30,160 26,152" />
<polygon fill="#401607" fill-opacity="0.501961" points="137,111 133,112 143,114" />
<polygon fill="#d8caad" fill-opacity="0.501961" points="25,173 -16,148 22,156" />
<polygon fill="#935f47" fill-opacity="0.501961" points="74,116 96,112 85,118" />
<polygon fill="#b89673" fill-opacity="0.501961" points="106,115 108,122 102,130" />
<polygon fill="#020000" fill-opacity="0.501961" points="81,136 77,131 81,145" />
<polygon fill="#fdf6df" fill-opacity="0.501961" points="5,86 -16,100 -15,86" />
<polygon fill="#bc8155" fill-opacity="0.501961" points="198,69 207,61 200,63" />
<polygon fill="#dad6d9" fill-opacity="0.501961" points="131,121 137,131 144,126" />
<polygon fill="#ffe9c7" fill-opacity="0.501961" points="122,108 124,124 129,101" />
<polygon fill="#b5a79d" fill-opacity="0.501961" points="183,153 193,154 188,156" />
<polygon fill="#c5b5a3" fill-opacity="0.501961" points="201,113 207,111 205,101" />
<polygon fill="#8b8067" fill-opacity="0.501961" points="98,88 101,82 117,87" />
<polygon fill="#9e654b" fill-opacity="0.501961" points="85,111 94,107 84,106" />
<polygon fill="#985a44" fill-opacity="0.501961" points="202,136 204,123 211,129" />
<polygon fill="#ba7e4a" fill-opacity="0.501961" points="73,80 77,94 81,93" />
<polygon fill="#9192a0" fill-opacity="0.501961" points="226,155 240,148 239,153" />
<polygon fill="#6c7887" fill-opacity="0.501961" points="248,183 249,192 229,188" />
<polygon fill="#9a8977" fill-opacity="0.501961" points="83,176 81,172 82,168" />
<polygon fill="#5b4235" fill-opacity="0.501961" points="173,127 172,119 176,117" />
<polygon fill="#492515" fill-opacity="0.501961" points="242,162 245,164 240,170" />
<polygon fill="#211607" fill-opacity="0.501961" points="43,122 42,114 25,112" />
<polygon fill="#9f9ea7" fill-opacity="0.501961" points="150,55 138,68 136,53" />
<polygon fill="#3d2415" fill-opacity="0.501961" points="202,138 196,132 199,139" />
<polygon fill="#c1a184" fill-opacity="0.501961" points="152,90 146,101 150,82" />
<polygon fill="#f9e7d4" fill-opacity="0.501961" points="194,105 203,98 192,102" />
<polygon fill="#e9dcc7" fill-opacity="0.501961" points="17,151 9,143 -16,153" />
<polygon fill="#684925" fill-opacity="0.501961" points="80,148 82,178 71,189" />
<polygon fill="#e7caa3" fill-opacity="0.501961" points="105,90 114,89 113,105" />
<polygon fill="#a7927a" fill-opacity="0.501961" points="120,152 120,183 134,187" />
<polygon fill="#8e8b89" fill-opacity="0.501961" points="195,70 181,73 191,97" />
<polygon fill="#a39a92" fill-opacity="0.501961" points="168,62 168,37 158,71" />
<polygon fill="#211101" fill-opacity="0.501961" points="67,129 73,134 71,151" />
<polygon fill="#a79882" fill-opacity="0.501961" points="183,34 201,57 215,54" />
<polygon fill="#75522c" fill-opacity="0.501961" points="48,93 52,102 68,89" />
<polygon fill="#554d4b" fill-opacity="0.501961" points="248,154 254,158 246,159" />
<polygon fill="#b8b4a2" fill-opacity="0.501961" points="16,91 11,92 12,90" />
<polygon fill="#dfd7bf" fill-opacity="0.501961" points="254,158 271,193 265,146" />
<polygon fill="#250b02" fill-opacity="0.501961" points="202,69 199,70 195,67" />
<polygon fill="#6d5f5c" fill-opacity="0.501961" points="210,152 199,154 216,158" />
<polygon fill="#2a1c0d" fill-opacity="0.501961" points="52,131 58,156 59,122" />
<polygon fill="#816e5f" fill-opacity="0.501961" points="169,111 181,130 171,88" />
<polygon fill="#dac8ab" fill-opacity="0.501961" points="32,207 -1,189 27,171" />
<polygon fill="#d4ccb8" fill-opacity="0.501961" points="102,131 94,136 100,135" />
<polygon fill="#cdb899" fill-opacity="0.501961" points="28,180 -12,166 2,182" />
<polygon fill="#ebdac1" fill-opacity="0.501961" points="196,155 196,169 169,158" />
<polygon fill="#99948a" fill-opacity="0.501961" points="126,101 127,84 102,76" />
<polygon fill="#8e8b94" fill-opacity="0.501961" points="217,97 222,91 226,96" />
<polygon fill="#8f8584" fill-opacity="0.501961" points="157,130 159,126 161,137" />
<polygon fill="#e3d3be" fill-opacity="0.501961" points="152,102 151,97 147,106" />
<polygon fill="#2c2f35" fill-opacity="0.501961" points="235,188 217,170 202,169" />
<polygon fill="#422f19" fill-opacity="0.501961" points="79,176 83,173 87,181" />
<polygon fill="#857860" fill-opacity="0.501961" points="83,49 100,71 102,106" />
<polygon fill="#707487" fill-opacity="0.501961" points="237,119 243,125 241,140" />
<polygon fill="#9b8d80" fill-opacity="0.501961" points="161,79 169,114 171,75" />
<polygon fill="#a7a48b" fill-opacity="0.501961" points="103,59 87,40 80,45" />
<polygon fill="#3e291c" fill-opacity="0.501961" points="59,72 51,40 46,58" />
<polygon fill="#c1bcba" fill-opacity="0.501961" points="164,111 161,130 158,108" />
<polygon fill="#e9d6ba" fill-opacity="0.501961" points="141,116 141,126 149,116" />
<polygon fill="#c0c8d3" fill-opacity="0.501961" points="192,19 160,28 177,40" />
<polygon fill="#948d8f" fill-opacity="0.501961" points="223,139 232,141 224,119" />
<polygon fill="#bab5b4" fill-opacity="0.501961" points="237,34 220,51 230,28" />
<polygon fill="#4a2c1a" fill-opacity="0.501961" points="72,82 70,88 74,95" />
<polygon fill="#cda693" fill-opacity="0.501961" points="95,103 89,108 78,108" />
<polygon fill="#707178" fill-opacity="0.501961" points="244,96 257,113 244,111" />
<polygon fill="#766854" fill-opacity="0.501961" points="168,113 164,95 161,107" />
<polygon fill="#0d0803" fill-opacity="0.501961" points="46,62 46,55 50,68" />
</g>
</svg>