<svg xmlns="http://www.w3.org/2000/svg" version="1.1" width="1024" height="768">
<rect x="0" y="0" width="1024" height="768" fill="#988d82" />
<g transform="scale(4.000000) translate(0.5 0.5)">
<polygon fill="#110000" fill-opacity="0.501961" points="67,33 -12,125 92,207" />
<polygon fill="#f1ffff" fill-opacity="0.501961" points="-16,-1 145,76 271,0" />
<polygon fill="#000005" fill-opacity="0.501961" points="209,207 195,120 249,175" />
<polygon fill="#190300" fill-opacity="0.501961" points="12,111 39,207 102,120" />
<polygon fill="#d1d8eb" fill-opacity="0.501961" points="255,-16 259,56 -16,23" />
<polygon fill="#fce7c7" fill-opacity="0.501961" points="194,207 199,159 97,90" />
<polygon fill="#ffffd1" fill-opacity="0.501961" points="34,195 6,127 -16,190" />
<polygon fill="#ffffd3" fill-opacity="0.501961" points="66,207 109,207 108,147" />
<polygon fill="#9f7d5c" fill-opacity="0.501961" points="225,83 190,27 34,130" />
<polygon fill="#180800" fill-opacity="0.501961" points="25,139 77,191 34,207" />
<polygon fill="#32160a" fill-opacity="0.501961" points="217,63 213,99 189,56" />
<polygon fill="#272325" fill-opacity="0.501961" points="160,207 148,137 134,207" />
<polygon fill="#292f44" fill-opacity="0.501961" points="243,94 256,129 209,203" />
<polygon fill="#3c1600" fill-opacity="0.501961" points="59,35 53,98 39,41" />
<polygon fill="#ba9d7b" fill-opacity="0.501961" points="61,82 70,25 213,158" />
<polygon fill="#bbc3ce" fill-opacity="0.501961" points="38,85 -16,0 45,1" />
<polygon fill="#85714f" fill-opacity="0.501961" points="244,159 175,151 156,81" />
<polygon fill="#937a4e" fill-opacity="0.501961" points="83,153 124,159 85,32" />
<polygon fill="#ffffdc" fill-opacity="0.501961" points="247,170 253,207 263,143" />
<polygon fill="#331f00" fill-opacity="0.501961" points="88,166 35,76 10,139" />
<polygon fill="#feeccc" fill-opacity="0.501961" points="166,161 199,149 168,207" />
<polygon fill="#ebd4a0" fill-opacity="0.501961" points="89,207 88,127 116,164" />
<polygon fill="#afa99d" fill-opacity="0.501961" points="212,21 185,88 93,72" />
<polygon fill="#d6bba4" fill-opacity="0.501961" points="113,125 146,180 147,117" />
<polygon fill="#d7dce8" fill-opacity="0.501961" points="260,43 271,-16 41,0" />
<polygon fill="#ffeccf" fill-opacity="0.501961" points="-11,139 26,153 23,170" />
<polygon fill="#0a0d13" fill-opacity="0.501961" points="197,155 225,207 229,158" />
<polygon fill="#8e7c51" fill-opacity="0.501961" points="22,119 -16,152 18,70" />
<polygon fill="#bcbcc0" fill-opacity="0.501961" points="191,97 208,115 271,76" />
<polygon fill="#564d4a" fill-opacity="0.501961" points="178,207 152,164 77,207" />
<polygon fill="#fff1d3" fill-opacity="0.501961" points="130,96 126,139 118,112" />
<polygon fill="#c1bfc7" fill-opacity="0.501961" points="166,112 146,101 155,175" />
<polygon fill="#56370d" fill-opacity="0.501961" points="45,205 83,125 89,179" />
<polygon fill="#845327" fill-opacity="0.501961" points="68,61 95,134 24,79" />
<polygon fill="#f9e7c5" fill-opacity="0.501961" points="196,157 173,202 208,204" />
<polygon fill="#86919f" fill-opacity="0.501961" points="214,143 217,57 248,144" />
<polygon fill="#b0ac7c" fill-opacity="0.501961" points="195,135 124,132 189,157" />
<polygon fill="#e0a58f" fill-opacity="0.501961" points="97,115 96,93 71,113" />
<polygon fill="#714934" fill-opacity="0.501961" points="115,112 99,101 108,154" />
<polygon fill="#68523f" fill-opacity="0.501961" points="150,90 204,128 177,131" />
<polygon fill="#352a27" fill-opacity="0.501961" points="224,85 213,97 194,72" />
<polygon fill="#b4bac4" fill-opacity="0.501961" points="100,12 156,91 35,13" />
<polygon fill="#9a4f34" fill-opacity="0.501961" points="149,85 136,122 132,82" />
<polygon fill="#3c4d69" fill-opacity="0.501961" points="244,157 253,205 229,188" />
<polygon fill="#fffffb" fill-opacity="0.501961" points="222,64 209,55 220,70" />
<polygon fill="#af7757" fill-opacity="0.501961" points="75,88 50,29 73,35" />
<polygon fill="#3d2313" fill-opacity="0.501961" points="45,62 38,46 77,40" />
<polygon fill="#9b9486" fill-opacity="0.501961" points="40,47 43,80 -5,28" />
<polygon fill="#c3c7d1" fill-opacity="0.501961" points="4,-16 -16,36 196,27" />
<polygon fill="#000000" fill-opacity="0.501961" points="72,91 73,111 80,100" />
<polygon fill="#e9bfb0" fill-opacity="0.501961" points="67,54 81,71 79,36" />
<polygon fill="#afa194" fill-opacity="0.501961" points="232,36 271,74 195,52" />
<polygon fill="#32313b" fill-opacity="0.501961" points="251,120 243,133 239,89" />
<polygon fill="#2a1e09" fill-opacity="0.501961" points="43,133 70,202 29,190" />
<polygon fill="#cdb18c" fill-opacity="0.501961" points="101,105 123,60 146,74" />
<polygon fill="#706e7c" fill-opacity="0.501961" points="252,159 263,124 195,155" />
<polygon fill="#a8a552" fill-opacity="0.501961" points="88,123 84,148 115,157" />
<polygon fill="#807e6c" fill-opacity="0.501961" points="117,82 83,100 86,43" />
<polygon fill="#ffe7cb" fill-opacity="0.501961" points="193,99 190,112 208,91" />
<polygon fill="#15688a" fill-opacity="0.501961" points="212,114 230,109 229,118" />
<polygon fill="#a3abbd" fill-opacity="0.501961" points="271,18 268,115 239,91" />
<polygon fill="#170a00" fill-opacity="0.501961" points="64,86 72,99 47,83" />
<polygon fill="#e2c9ac" fill-opacity="0.501961" points="27,156 -16,123 10,207" />
<polygon fill="#a28a71" fill-opacity="0.501961" points="138,130 131,185 110,180" />
<polygon fill="#bfb957" fill-opacity="0.501961" points="174,153 173,132 207,152" />
<polygon fill="#9fabb4" fill-opacity="0.501961" points="44,38 -9,78 1,95" />
<polygon fill="#713922" fill-opacity="0.501961" points="150,109 135,120 132,114" />
<polygon fill="#1f1203" fill-opacity="0.501961" points="55,166 86,122 13,144" />
<polygon fill="#5d2e15" fill-opacity="0.501961" points="232,156 247,163 239,175" />
<polygon fill="#968b7c" fill-opacity="0.501961" points="142,94 211,93 162,49" />
<polygon fill="#0e0000" fill-opacity="0.501961" points="211,61 202,57 196,63" />
<polygon fill="#332b22" fill-opacity="0.501961" points="110,173 119,192 119,180" />
<polygon fill="#e4ceb9" fill-opacity="0.501961" points="73,197 103,207 112,152" />
<polygon fill="#8b6438" fill-opacity="0.501961" points="83,174 78,138 71,167" />
<polygon fill="#d7c1ad" fill-opacity="0.501961" points="137,143 158,122 147,84" />
<polygon fill="#121117" fill-opacity="0.501961" points="149,150 155,182 146,172" />
<polygon fill="#dac791" fill-opacity="0.501961" points="97,138 102,143 107,120" />
<polygon fill="#c6b19b" fill-opacity="0.501961" points="198,116 235,120 224,136" />
<polygon fill="#c1845a" fill-opacity="0.501961" points="199,78 212,71 202,60" />
<polygon fill="#af8051" fill-opacity="0.501961" points="47,69 58,85 73,81" />
<polygon fill="#6d5330" fill-opacity="0.501961" points="50,131 21,134 67,110" />
<polygon fill="#665f3a" fill-opacity="0.501961" points="160,108 163,78 150,92" />
<polygon fill="#ffe4b3" fill-opacity="0.501961" points="103,93 113,105 113,88" />
<polygon fill="#ffc69f" fill-opacity="0.501961" points="139,70 124,82 152,80" />
<polygon fill="#64513d" fill-opacity="0.501961" points="103,139 117,137 121,160" />
<polygon fill="#a098a2" fill-opacity="0.501961" points="168,99 172,157 151,149" />
<polygon fill="#938e87" fill-opacity="0.501961" points="1,28 14,116 25,52" />
<polygon fill="#4c5152" fill-opacity="0.501961" points="206,189 197,158 212,169" />
<polygon fill="#5c4d37" fill-opacity="0.501961" points="124,104 116,108 116,96" />
<polygon fill="#cdced2" fill-opacity="0.501961" points="222,81 242,88 222,90" />
<polygon fill="#fee5ce" fill-opacity="0.501961" points="192,136 179,139 169,134" />
<polygon fill="#4d586d" fill-opacity="0.501961" points="164,166 143,193 163,189" />
<polygon fill="#f0dcc6" fill-opacity="0.501961" points="109,158 91,175 88,155" />
<polygon fill="#aeacab" fill-opacity="0.501961" points="214,96 241,119 238,92" />
<polygon fill="#ccd1da" fill-opacity="0.501961" points="85,46 180,41 195,1" />
<polygon fill="#fff1d9" fill-opacity="0.501961" points="211,113 208,95 204,110" />
<polygon fill="#080200" fill-opacity="0.501961" points="37,122 56,117 49,99" />
<polygon fill="#9bb7d1" fill-opacity="0.501961" points="110,68 140,49 99,49" />
<polygon fill="#544c38" fill-opacity="0.501961" points="7,129 7,90 -7,122" />
<polygon fill="#352614" fill-opacity="0.501961" points="75,147 63,194 24,167" />
<polygon fill="#250d01" fill-opacity="0.501961" points="204,74 216,77 205,88" />
<polygon fill="#724f37" fill-opacity="0.501961" points="148,108 130,114 153,115" />
<polygon fill="#b29d85" fill-opacity="0.501961" points="121,123 148,166 121,188" />
<polygon fill="#dadfe8" fill-opacity="0.501961" points="199,-10 271,65 253,-16" />
<polygon fill="#886f5c" fill-opacity="0.501961" points="161,108 187,94 205,135" />
<polygon fill="#5b6f75" fill-opacity="0.501961" points="212,106 227,107 211,125" />
<polygon fill="#a09783" fill-opacity="0.501961" points="130,55 127,99 104,84" />
<polygon fill="#fecca4" fill-opacity="0.501961" points="79,105 93,97 83,98" />
<polygon fill="#9d5e3e" fill-opacity="0.501961" points="93,112 80,94 87,116" />
<polygon fill="#543a1a" fill-opacity="0.501961" points="13,135 23,81 52,77" />
<polygon fill="#edf0de" fill-opacity="0.501961" points="6,88 -8,95 -16,60" />
<polygon fill="#44414a" fill-opacity="0.501961" points="224,140 239,146 207,155" />
<polygon fill="#eddccf" fill-opacity="0.501961" points="116,108 127,106 142,136" />
<polygon fill="#3a2c36" fill-opacity="0.501961" points="217,134 196,134 205,145" />
<polygon fill="#b7bec6" fill-opacity="0.501961" points="30,47 11,9 65,20" />
<polygon fill="#e1d1b5" fill-opacity="0.501961" points="-16,130 28,175 9,137" />
<polygon fill="#deccb3" fill-opacity="0.501961" points="200,202 166,189 197,147" />
<polygon fill="#7d7469" fill-opacity="0.501961" points="229,64 247,84 214,84" />
<polygon fill="#612913" fill-opacity="0.501961" points="116,117 107,107 108,121" />
<polygon fill="#98973d" fill-opacity="0.501961" points="196,150 182,139 166,154" />
<polygon fill="#93918a" fill-opacity="0.501961" points="196,97 194,41 173,97" />
<polygon fill="#bcb4b6" fill-opacity="0.501961" points="148,122 169,152 156,175" />
<polygon fill="#2b2728" fill-opacity="0.501961" points="244,136 241,108 251,128" />
<polygon fill="#6a6c75" fill-opacity="0.501961" points="260,144 240,92 260,110" />
<polygon fill="#b19d79" fill-opacity="0.501961" points="217,49 188,38 166,73" />
<polygon fill="#a4927c" fill-opacity="0.501961" points="37,40 27,75 45,77" />
<polygon fill="#0c0b03" fill-opacity="0.501961" points="47,73 58,88 51,90" />
<polygon fill="#190b08" fill-opacity="0.501961" points="199,64 194,61 200,78" />
<polygon fill="#070605" fill-opacity="0.501961" points="214,178 230,185 203,205" />
<polygon fill="#988981" fill-opacity="0.501961" points="192,140 206,96 189,113" />
<polygon fill="#2d180a" fill-opacity="0.501961" points="40,53 60,72 46,40" />
<polygon fill="#8e8c90" fill-opacity="0.501961" points="223,155 271,147 263,127" />
<polygon fill="#7b5b41" fill-opacity="0.501961" points="212,128 165,112 172,133" />
<polygon fill="#714f24" fill-opacity="0.501961" points="41,81 64,93 65,130" />
<polygon fill="#d5b58f" fill-opacity="0.501961" points="135,110 149,108 128,98" />
<polygon fill="#4d1d0e" fill-opacity="0.501961" points="143,114 131,109 134,115" />
<polygon fill="#0c0300" fill-opacity="0.501961" points="87,155 84,166 81,144" />
<polygon fill="#91a2b1" fill-opacity="0.501961" points="71,73 80,86 85,67" />
<polygon fill="#1f1103" fill-opacity="0.501961" points="61,148 17,149 11,130" />
<polygon fill="#c3c8d3" fill-opacity="0.501961" points="142,15 223,42 240,16" />
<polygon fill="#b2a497" fill-opacity="0.501961" points="176,65 169,28 157,52" />
<polygon fill="#d8bfa0" fill-opacity="0.501961" points="-16,171 30,192 28,171" />
<polygon fill="#ead0b2" fill-opacity="0.501961" points="271,144 246,166 256,205" />
<polygon fill="#6b6268" fill-opacity="0.501961" points="163,128 171,139 165,143" />
<polygon fill="#646a78" fill-opacity="0.501961" points="210,96 224,96 221,76" />
<polygon fill="#493723" fill-opacity="0.501961" points="146,207 141,184 101,199" />
<polygon fill="#d8d2cd" fill-opacity="0.501961" points="123,133 156,124 164,109" />
<polygon fill="#aa8d83" fill-opacity="0.501961" points="110,129 121,111 121,141" />
<polygon fill="#6b614a" fill-opacity="0.501961" points="83,135 104,109 102,128" />
<polygon fill="#342312" fill-opacity="0.501961" points="67,143 89,123 5,134" />
<polygon fill="#e5d0af" fill-opacity="0.501961" points="197,128 193,138 186,139" />
<polygon fill="#925137" fill-opacity="0.501961" points="148,99 134,89 138,105" />
<polygon fill="#a1b2c6" fill-opacity="0.501961" points="35,35 26,71 19,61" />
<polygon fill="#d4c08b" fill-opacity="0.501961" points="99,135 87,140 84,133" />
<polygon fill="#b7775a" fill-opacity="0.501961" points="139,124 140,116 132,116" />
<polygon fill="#9c8869" fill-opacity="0.501961" points="237,58 219,62 252,92" />
<polygon fill="#e7c29f" fill-opacity="0.501961" points="89,99 97,97 96,115" />
<polygon fill="#d9c6a7" fill-opacity="0.501961" points="80,184 78,207 116,169" />
<polygon fill="#b1593d" fill-opacity="0.501961" points="199,135 197,121 212,128" />
<polygon fill="#fadfd1" fill-opacity="0.501961" points="86,57 69,47 74,54" />
<polygon fill="#1f2128" fill-opacity="0.501961" points="239,155 213,180 205,161" />
<polygon fill="#e9b07c" fill-opacity="0.501961" points="208,63 200,67 199,63" />
<polygon fill="#cb8558" fill-opacity="0.501961" points="127,98 129,78 136,89" />
<polygon fill="#311910" fill-opacity="0.501961" points="209,70 213,65 205,57" />
<polygon fill="#ada49f" fill-opacity="0.501961" points="234,30 249,57 206,57" />
<polygon fill="#f7eee4" fill-opacity="0.501961" points="234,85 238,90 244,86" />
<polygon fill="#9a8d47" fill-opacity="0.501961" points="84,157 114,148 84,147" />
<polygon fill="#b1b153" fill-opacity="0.501961" points="-3,126 -6,134 10,130" />
<polygon fill="#957142" fill-opacity="0.501961" points="17,89 35,75 17,100" />
<polygon fill="#bdad9b" fill-opacity="0.501961" points="147,173 136,167 146,127" />
<polygon fill="#995b3a" fill-opacity="0.501961" points="67,73 71,59 78,69" />
<polygon fill="#615a3a" fill-opacity="0.501961" points="165,109 155,104 154,82" />
<polygon fill="#7e5a43" fill-opacity="0.501961" points="49,36 76,38 60,58" />
<polygon fill="#130400" fill-opacity="0.501961" points="58,87 66,88 66,83" />
<polygon fill="#837761" fill-opacity="0.501961" points="79,61 104,112 99,58" />
<polygon fill="#fffbd9" fill-opacity="0.501961" points="121,110 129,112 129,100" />
<polygon fill="#9f8d77" fill-opacity="0.501961" points="196,60 168,97 141,66" />
<polygon fill="#938c82" fill-opacity="0.501961" points="-16,74 15,78 23,28" />
<polygon fill="#64552f" fill-opacity="0.501961" points="176,134 190,134 188,113" />
<polygon fill="#644621" fill-opacity="0.501961" points="86,175 68,172 87,183" />
<polygon fill="#eec9b3" fill-opacity="0.501961" points="83,108 77,107 73,113" />
<polygon fill="#453c3c" fill-opacity="0.501961" points="246,159 253,159 247,153" />
<polygon fill="#786048" fill-opacity="0.501961" points="146,172 133,175 147,190" />
<polygon fill="#a8a5aa" fill-opacity="0.501961" points="159,53 149,38 129,73" />
<polygon fill="#8a7c72" fill-opacity="0.501961" points="133,173 129,151 138,130" />
<polygon fill="#d1d7e1" fill-opacity="0.501961" points="142,-16 146,52 114,46" />
<polygon fill="#0d0601" fill-opacity="0.501961" points="80,146 83,123 78,132" />
<polygon fill="#976756" fill-opacity="0.501961" points="91,117 69,123 91,100" />
<polygon fill="#4d3214" fill-opacity="0.501961" points="63,122 72,115 86,138" />
<polygon fill="#706d63" fill-opacity="0.501961" points="202,90 194,89 190,101" />
<polygon fill="#3c5068" fill-opacity="0.501961" points="216,175 242,170 249,181" />
<polygon fill="#dfceb2" fill-opacity="0.501961" points="237,207 170,194 163,170" />
<polygon fill="#868796" fill-opacity="0.501961" points="210,157 239,149 234,157" />
<polygon fill="#5b3824" fill-opacity="0.501961" points="62,78 62,50 46,36" />
<polygon fill="#724f24" fill-opacity="0.501961" points="29,180 42,188 28,169" />
<polygon fill="#76737f" fill-opacity="0.501961" points="242,121 243,138 210,148" />
<polygon fill="#eac789" fill-opacity="0.501961" points="209,116 197,118 211,126" />
<polygon fill="#bda8b0" fill-opacity="0.501961" points="190,155 199,149 207,151" />
<polygon fill="#d9c7ba" fill-opacity="0.501961" points="187,158 198,151 177,153" />
<polygon fill="#c99f75" fill-opacity="0.501961" points="65,31 67,40 44,32" />
<polygon fill="#816b63" fill-opacity="0.501961" points="111,162 120,143 121,165" />
<polygon fill="#b7bdc8" fill-opacity="0.501961" points="93,26 33,21 116,51" />
<polygon fill="#7b5744" fill-opacity="0.501961" points="219,160 237,166 246,160" />
<polygon fill="#bfc8d5" fill-opacity="0.501961" points="157,25 185,47 181,21" />
<polygon fill="#142135" fill-opacity="0.501961" points="230,173 241,170 228,163" />
<polygon fill="#ab9f64" fill-opacity="0.501961" points="84,50 111,71 97,51" />
<polygon fill="#dac2a8" fill-opacity="0.501961" points="131,111 122,135 135,136" />
<polygon fill="#d6a46f" fill-opacity="0.501961" points="83,103 84,91 73,77" />
<polygon fill="#c1b09e" fill-opacity="0.501961" points="214,90 213,103 221,111" />
<polygon fill="#cacdd5" fill-opacity="0.501961" points="106,5 -6,-10 -3,20" />
<polygon fill="#683c0a" fill-opacity="0.501961" points="25,170 31,164 27,157" />
<polygon fill="#c28d6e" fill-opacity="0.501961" points="147,103 139,89 152,88" />
<polygon fill="#847872" fill-opacity="0.501961" points="190,115 191,129 205,99" />
<polygon fill="#0f0e0e" fill-opacity="0.501961" points="198,154 206,163 224,166" />
<polygon fill="#171413" fill-opacity="0.501961" points="152,158 147,149 151,169" />
<polygon fill="#fadabd" fill-opacity="0.501961" points="148,74 128,77 146,80" />
<polygon fill="#7f7c77" fill-opacity="0.501961" points="123,86 113,97 126,103" />
<polygon fill="#dcceb4" fill-opacity="0.501961" points="-1,148 24,152 25,177" />
<polygon fill="#885c2d" fill-opacity="0.501961" points="75,136 81,146 73,143" />
<polygon fill="#a59995" fill-opacity="0.501961" points="226,124 208,151 226,136" />
<polygon fill="#000000" fill-opacity="0.501961" points="78,187 72,207 29,207" />
<polygon fill="#bda987" fill-opacity="0.501961" points="112,156 114,150 90,152" />
<polygon fill="#c69375" fill-opacity="0.501961" points="203,70 214,74 210,68" />
<polygon fill="#694a45" fill-opacity="0.501961" points="90,130 81,133 99,134" />
<polygon fill="#513f3c" fill-opacity="0.501961" points="129,86 142,88 144,84" />
<polygon fill="#3f2a1d" fill-opacity="0.501961" points="212,94 199,78 217,73" />
<polygon fill="#9e7443" fill-opacity="0.501961" points="71,104 75,118 60,94" />
<polygon fill="#a4acb9" fill-opacity="0.501961" points="221,81 225,90 223,70" />
<polygon fill="#81613c" fill-opacity="0.501961" points="32,128 53,125 57,117" />
<polygon fill="#2e8aab" fill-opacity="0.501961" points="235,111 219,114 226,107" />
<polygon fill="#422d17" fill-opacity="0.501961" points="33,84 46,116 47,94" />
<polygon fill="#888073" fill-opacity="0.501961" points="16,99 25,72 -8,103" />
<polygon fill="#b8a797" fill-opacity="0.501961" points="123,154 134,131 131,167" />
<polygon fill="#dfe4eb" fill-opacity="0.501961" points="264,2 162,10 168,-16" />
<polygon fill="#989595" fill-opacity="0.501961" points="31,51 44,60 21,81" />
<polygon fill="#a9b6b8" fill-opacity="0.501961" points="104,59 124,56 113,75" />
<polygon fill="#f8c2a6" fill-opacity="0.501961" points="93,114 89,117 96,117" />
<polygon fill="#bdc5d2" fill-opacity="0.501961" points="183,18 206,50 212,29" />
<polygon fill="#dcaf7b" fill-opacity="0.501961" points="101,90 108,88 109,106" />
<polygon fill="#ffffff" fill-opacity="0.501961" points="209,56 215,61 220,61" />
<polygon fill="#3e3e44" fill-opacity="0.501961" points="163,174 152,176 149,186" />
<polygon fill="#bfbcba" fill-opacity="0.501961" points="242,152 256,151 249,149" />
<polygon fill="#b0aa55" fill-opacity="0.501961" points="191,148 191,139 167,137" />
<polygon fill="#b9aa97" fill-opacity="0.501961" points="189,107 189,123 193,118" />
<polygon fill="#6b7585" fill-opacity="0.501961" points="145,207 172,207 163,175" />
<polygon fill="#000000" fill-opacity="0.501961" points="26,207 86,207 31,187" />
<polygon fill="#130900" fill-opacity="0.501961" points="27,154 69,147 69,134" />
<polygon fill="#a6b6cd" fill-opacity="0.501961" points="140,74 137,47 122,48" />
<polygon fill="#dac8ad" fill-opacity="0.501961" points="81,193 98,155 110,179" />
<polygon fill="#ddd9d8" fill-opacity="0.501961" points="249,93 246,95 241,84" />
<polygon fill="#f5e6d4" fill-opacity="0.501961" points="192,101 204,93 195,107" />
<polygon fill="#7b6e63" fill-opacity="0.501961" points="125,207 112,176 107,189" />
<polygon fill="#a09795" fill-opacity="0.501961" points="149,141 155,130 159,159" />
<polygon fill="#bebebc" fill-opacity="0.501961" points="218,74 229,27 217,49" />
<polygon fill="#977244" fill-opacity="0.501961" points="50,96 44,72 40,78" />
<polygon fill="#bdbd8f" fill-opacity="0.501961" points="89,130 109,132 99,128" />
<polygon fill="#675d65" fill-opacity="0.501961" points="211,149 217,133 205,130" />
<polygon fill="#a6a142" fill-opacity="0.501961" points="82,138 103,137 106,146" />
<polygon fill="#4e371f" fill-opacity="0.501961" points="45,105 21,121 21,83" />
<polygon fill="#834f2d" fill-opacity="0.501961" points="68,76 81,93 72,91" />
<polygon fill="#b9b2a8" fill-opacity="0.501961" points="174,138 162,127 163,109" />
<polygon fill="#f1ebdc" fill-opacity="0.501961" points="163,109 153,105 152,108" />
<polygon fill="#322314" fill-opacity="0.501961" points="58,147 26,168 68,207" />
<polygon fill="#ab9378" fill-opacity="0.501961" points="134,186 120,158 120,189" />
<polygon fill="#94632b" fill-opacity="0.501961" points="11,125 16,108 19,120" />
<polygon fill="#8c8982" fill-opacity="0.501961" points="95,89 86,39 81,89" />
<polygon fill="#c0986b" fill-opacity="0.501961" points="194,124 213,121 198,119" />
<polygon fill="#7c3117" fill-opacity="0.501961" points="114,119 103,106 111,106" />
<polygon fill="#967248" fill-opacity="0.501961" points="53,71 43,64 50,73" />
<polygon fill="#dfb270" fill-opacity="0.501961" points="45,77 36,74 40,70" />
<polygon fill="#586d87" fill-opacity="0.501961" points="248,191 246,170 233,197" />
<polygon fill="#ab9d8e" fill-opacity="0.501961" points="189,59 215,36 218,53" />
<polygon fill="#bbc1ca" fill-opacity="0.501961" points="26,13 8,42 6,5" />
<polygon fill="#593021" fill-opacity="0.501961" points="207,78 206,65 202,85" />
<polygon fill="#1f1208" fill-opacity="0.501961" points="53,66 46,65 43,47" />
<polygon fill="#95928f" fill-opacity="0.501961" points="164,81 207,95 192,69" />
<polygon fill="#433634" fill-opacity="0.501961" points="148,138 151,152 147,151" />
<polygon fill="#e3cb83" fill-opacity="0.501961" points="87,148 102,145 88,144" />
<polygon fill="#e6bf9e" fill-opacity="0.501961" points="132,89 137,90 130,85" />
<polygon fill="#d7c4ac" fill-opacity="0.501961" points="141,114 151,118 136,152" />
<polygon fill="#bcb5b2" fill-opacity="0.501961" points="172,143 166,166 149,151" />
<polygon fill="#1f1209" fill-opacity="0.501961" points="195,63 199,59 209,60" />
<polygon fill="#d2ac98" fill-opacity="0.501961" points="117,125 120,112 114,103" />
<polygon fill="#d19470" fill-opacity="0.501961" points="140,78 129,81 151,84" />
<polygon fill="#281909" fill-opacity="0.501961" points="24,151 22,121 13,145" />
<polygon fill="#bca98b" fill-opacity="0.501961" points="112,76 123,56 143,74" />
<polygon fill="#3d2f1f" fill-opacity="0.501961" points="-16,123 12,127 3,120" />
<polygon fill="#d1ab92" fill-opacity="0.501961" points="73,111 74,116 79,105" />
<polygon fill="#6c5742" fill-opacity="0.501961" points="97,130 107,116 83,119" />
<polygon fill="#414048" fill-opacity="0.501961" points="211,151 231,152 238,145" />
<polygon fill="#8b8e96" fill-opacity="0.501961" points="239,82 246,78 262,100" />
<polygon fill="#c3c8ce" fill-opacity="0.501961" points="230,24 262,65 257,36" />
<polygon fill="#dd9867" fill-opacity="0.501961" points="203,77 204,69 200,73" />
<polygon fill="#250b06" fill-opacity="0.501961" points="201,68 201,71 196,70" />
<polygon fill="#402816" fill-opacity="0.501961" points="195,143 204,137 197,134" />
<polygon fill="#170c06" fill-opacity="0.501961" points="69,99 80,101 77,106" />
<polygon fill="#686145" fill-opacity="0.501961" points="153,101 159,90 168,113" />
<polygon fill="#827a71" fill-opacity="0.501961" points="180,68 189,87 186,58" />
<polygon fill="#a39487" fill-opacity="0.501961" points="222,61 235,39 253,71" />
<polygon fill="#978773" fill-opacity="0.501961" points="166,83 185,95 168,113" />
<polygon fill="#393330" fill-opacity="0.501961" points="240,156 206,158 227,163" />
<polygon fill="#7c6457" fill-opacity="0.501961" points="107,149 117,112 105,132" />
<polygon fill="#e2cfbf" fill-opacity="0.501961" points="88,101 88,96 98,96" />
<polygon fill="#7a6e62" fill-opacity="0.501961" points="174,106 185,103 179,129" />
<polygon fill="#dfceb3" fill-opacity="0.501961" points="199,169 208,207 163,173" />
<polygon fill="#9c8671" fill-opacity="0.501961" points="251,133 246,149 245,132" />
<polygon fill="#0a0300" fill-opacity="0.501961" points="10,131 21,126 18,124" />
<polygon fill="#924d3b" fill-opacity="0.501961" points="145,90 147,96 133,93" />
<polygon fill="#b17f5a" fill-opacity="0.501961" points="199,64 206,60 206,63" />
<polygon fill="#7b7374" fill-opacity="0.501961" points="214,99 219,117 211,127" />
<polygon fill="#a8764a" fill-opacity="0.501961" points="82,96 75,90 82,106" />
<polygon fill="#908b8c" fill-opacity="0.501961" points="248,161 238,159 247,143" />
<polygon fill="#a1a3ad" fill-opacity="0.501961" points="256,114 248,52 271,56" />
<polygon fill="#c0936c" fill-opacity="0.501961" points="66,63 71,72 67,73" />
<polygon fill="#7d5633" fill-opacity="0.501961" points="40,45 45,36 57,36" />
<polygon fill="#ab9e8f" fill-opacity="0.501961" points="169,154 157,160 182,155" />
<polygon fill="#85795e" fill-opacity="0.501961" points="100,100 103,75 83,50" />
<polygon fill="#6a4a25" fill-opacity="0.501961" points="76,136 69,189 83,182" />
<polygon fill="#43311b" fill-opacity="0.501961" points="43,158 67,188 75,181" />
<polygon fill="#5e6572" fill-opacity="0.501961" points="220,92 215,75 222,76" />
<polygon fill="#7b7a83" fill-opacity="0.501961" points="225,144 241,126 240,107" />
<polygon fill="#c9c1bc" fill-opacity="0.501961" points="157,172 149,145 162,166" />
<polygon fill="#d1c8bd" fill-opacity="0.501961" points="161,123 152,115 150,94" />
<polygon fill="#9d5f37" fill-opacity="0.501961" points="235,167 241,166 235,161" />
<polygon fill="#9a664d" fill-opacity="0.501961" points="78,50 79,47 74,48" />
<polygon fill="#7c7066" fill-opacity="0.501961" points="234,113 229,112 228,122" />
<polygon fill="#5b585c" fill-opacity="0.501961" points="243,152 245,142 235,155" />
<polygon fill="#523f25" fill-opacity="0.501961" points="20,133 37,135 39,123" />
<polygon fill="#a97353" fill-opacity="0.501961" points="95,100 82,103 84,109" />
<polygon fill="#c57c5e" fill-opacity="0.501961" points="116,114 103,102 114,104" />
<polygon fill="#e5d4b6" fill-opacity="0.501961" points="78,187 85,207 120,193" />
<polygon fill="#0d0802" fill-opacity="0.501961" points="37,124 52,118 33,119" />
<polygon fill="#b89584" fill-opacity="0.501961" points="76,66 69,44 67,57" />
<polygon fill="#9a8166" fill-opacity="0.501961" points="33,52 41,53 45,65" />
<polygon fill="#b8b2a8" fill-opacity="0.501961" points="56,28 44,27 35,43" />
<polygon fill="#ab8972" fill-opacity="0.501961" points="104,133 110,123 106,113" />
<polygon fill="#efddc4" fill-opacity="0.501961" points="169,158 195,155 192,168" />
<polygon fill="#998075" fill-opacity="0.501961" points="116,153 106,156 96,153" />
<polygon fill="#ada59f" fill-opacity="0.501961" points="219,115 233,121 210,130" />
<polygon fill="#bb917b" fill-opacity="0.501961" points="138,120 132,113 136,123" />
<polygon fill="#767068" fill-opacity="0.501961" points="192,117 208,114 192,112" />
<polygon fill="#d2bea1" fill-opacity="0.501961" points="-16,157 28,173 -16,195" />
<polygon fill="#e3c4b0" fill-opacity="0.501961" points="71,58 74,47 80,60" />
<polygon fill="#d9c8ac" fill-opacity="0.501961" points="3,153 18,196 26,155" />
<polygon fill="#644424" fill-opacity="0.501961" points="55,89 64,91 62,123" />
<polygon fill="#cab69d" fill-opacity="0.501961" points="191,49 195,60 191,63" />
<polygon fill="#c9a88c" fill-opacity="0.501961" points="145,86 150,113 152,96" />
<polygon fill="#815434" fill-opacity="0.501961" points="85,147 82,133 86,137" />
<polygon fill="#583220" fill-opacity="0.501961" points="216,77 204,73 202,80" />
<polygon fill="#9e876e" fill-opacity="0.501961" points="5,40 19,40 18,55" />
<polygon fill="#514a46" fill-opacity="0.501961" points="119,190 105,197 119,178" />
<polygon fill="#a0afb9" fill-opacity="0.501961" points="-15,96 11,76 -16,80" />
<polygon fill="#595b57" fill-opacity="0.501961" points="206,168 201,165 201,179" />
<polygon fill="#a59e8f" fill-opacity="0.501961" points="82,49 96,51 75,36" />
<polygon fill="#3e281a" fill-opacity="0.501961" points="55,54 41,66 49,41" />
<polygon fill="#8c6138" fill-opacity="0.501961" points="76,118 61,117 71,113" />
<polygon fill="#261808" fill-opacity="0.501961" points="40,181 45,165 18,134" />
<polygon fill="#787e84" fill-opacity="0.501961" points="227,187 255,207 271,195" />
<polygon fill="#7d624c" fill-opacity="0.501961" points="132,172 135,193 140,175" />
<polygon fill="#cdbea7" fill-opacity="0.501961" points="207,113 205,101 202,112" />
<polygon fill="#816e4f" fill-opacity="0.501961" points="115,103 114,87 122,105" />
<polygon fill="#9e9a8a" fill-opacity="0.501961" points="103,76 122,97 120,77" />
<polygon fill="#ebcdb2" fill-opacity="0.501961" points="96,101 83,107 96,105" />
<polygon fill="#4d3b3c" fill-opacity="0.501961" points="116,137 117,141 112,146" />
<polygon fill="#1f1406" fill-opacity="0.501961" points="48,112 59,117 41,90" />
<polygon fill="#e6e6de" fill-opacity="0.501961" points="214,62 218,60 207,56" />
<polygon fill="#f8993f" fill-opacity="0.501961" points="175,129 174,134 173,132" />
<polygon fill="#b9aea7" fill-opacity="0.501961" points="236,105 236,94 210,105" />
<polygon fill="#564f37" fill-opacity="0.501961" points="194,92 196,91 195,96" />
<polygon fill="#6c4d27" fill-opacity="0.501961" points="47,112 46,106 39,101" />
<polygon fill="#a89889" fill-opacity="0.501961" points="173,72 151,63 168,37" />
<polygon fill="#bf9e81" fill-opacity="0.501961" points="115,174 118,160 112,169" />
<polygon fill="#3a4762" fill-opacity="0.501961" points="241,141 243,127 246,132" />
<polygon fill="#986248" fill-opacity="0.501961" points="97,106 87,106 77,114" />
<polygon fill="#78705d" fill-opacity="0.501961" points="17,97 8,90 -16,126" />
<polygon fill="#251c16" fill-opacity="0.501961" points="204,86 216,80 198,80" />
<polygon fill="#2c333f" fill-opacity="0.501961" points="219,198 210,176 208,197" />
<polygon fill="#4d4f5b" fill-opacity="0.501961" points="146,203 159,207 146,161" />
<polygon fill="#dedee9" fill-opacity="0.501961" points="132,121 141,126 138,130" />
<polygon fill="#d4bfa7" fill-opacity="0.501961" points="193,131 190,130 190,137" />
<polygon fill="#544a51" fill-opacity="0.501961" points="200,150 200,146 209,147" />
<polygon fill="#43301d" fill-opacity="0.501961" points="41,90 26,119 16,116" />
<polygon fill="#89643a" fill-opacity="0.501961" points="84,176 88,174 85,163" />
<polygon fill="#f4d9b4" fill-opacity="0.501961" points="108,101 113,88 114,100" />
<polygon fill="#634d3f" fill-opacity="0.501961" points="189,127 181,121 182,107" />
<polygon fill="#fcd8ba" fill-opacity="0.501961" points="128,111 125,127 119,118" />
<polygon fill="#a7734b" fill-opacity="0.501961" points="58,86 72,76 59,73" />
<polygon fill="#907154" fill-opacity="0.501961" points="206,95 209,91 204,87" />
<polygon fill="#9dadc4" fill-opacity="0.501961" points="18,63 33,65 20,52" />
<polygon fill="#989936" fill-opacity="0.501961" points="115,152 105,147 93,150" />
<polygon fill="#c0ae89" fill-opacity="0.501961" points="190,139 197,152 206,154" />
<polygon fill="#402619" fill-opacity="0.501961" points="71,90 80,99 72,101" />
<polygon fill="#3b250d" fill-opacity="0.501961" points="20,151 27,151 12,143" />
<polygon fill="#99894e" fill-opacity="0.501961" points="9,134 -11,135 9,128" />
<polygon fill="#82838d" fill-opacity="0.501961" points="220,93 233,92 221,87" />
<polygon fill="#5b5b66" fill-opacity="0.501961" points="217,97 215,85 222,90" />
<polygon fill="#2b221c" fill-opacity="0.501961" points="244,129 258,129 244,124" />
<polygon fill="#989594" fill-opacity="0.501961" points="25,76 2,70 6,41" />
<polygon fill="#6c512f" fill-opacity="0.501961" points="48,96 39,75 31,75" />
<polygon fill="#7d7359" fill-opacity="0.501961" points="165,95 152,96 154,80" />
<polygon fill="#32353b" fill-opacity="0.501961" points="227,198 225,173 231,183" />
<polygon fill="#e8d5ba" fill-opacity="0.501961" points="91,156 111,170 109,156" />
<polygon fill="#a28f70" fill-opacity="0.501961" points="244,70 211,52 222,65" />
<polygon fill="#96735a" fill-opacity="0.501961" points="54,34 67,39 45,37" />
<polygon fill="#2b1811" fill-opacity="0.501961" points="213,65 215,68 205,66" />
<polygon fill="#bec6d6" fill-opacity="0.501961" points="94,26 147,53 93,48" />
<polygon fill="#ada59f" fill-opacity="0.501961" points="232,128 215,141 238,109" />
<polygon fill="#19120a" fill-opacity="0.501961" points="74,207 59,181 42,207" />
<polygon fill="#a19f4e" fill-opacity="0.501961" points="198,142 168,153 179,141" />
<polygon fill="#817162" fill-opacity="0.501961" points="232,72 226,83 223,60" />
<polygon fill="#80582c" fill-opacity="0.501961" points="25,107 18,113 17,101" />
<polygon fill="#b5a496" fill-opacity="0.501961" points="146,39 155,60 150,76" />
<polygon fill="#e4d4ba" fill-opacity="0.501961" points="8,136 -16,139 19,156" />
<polygon fill="#7e5b32" fill-opacity="0.501961" points="56,96 59,117 48,93" />
<polygon fill="#9f7d62" fill-opacity="0.501961" points="132,106 145,108 142,103" />
<polygon fill="#5f3b24" fill-opacity="0.501961" points="70,77 70,93 74,86" />
<polygon fill="#ab7650" fill-opacity="0.501961" points="69,90 65,60 73,78" />
<polygon fill="#bfad9c" fill-opacity="0.501961" points="141,137 151,117 144,162" />
<polygon fill="#a19588" fill-opacity="0.501961" points="34,58 32,49 42,41" />
<polygon fill="#6d696a" fill-opacity="0.501961" points="250,108 258,159 271,151" />
<polygon fill="#191209" fill-opacity="0.501961" points="50,86 49,73 56,89" />
<polygon fill="#908069" fill-opacity="0.501961" points="24,79 5,83 18,90" />
<polygon fill="#866f63" fill-opacity="0.501961" points="121,130 122,143 117,150" />
<polygon fill="#aa9268" fill-opacity="0.501961" points="193,46 174,66 175,81" />
<polygon fill="#563618" fill-opacity="0.501961" points="27,171 33,165 24,167" />
<polygon fill="#a4937e" fill-opacity="0.501961" points="114,180 109,174 107,194" />
<polygon fill="#d0bd9c" fill-opacity="0.501961" points="88,176 87,185 103,174" />
<polygon fill="#d7c796" fill-opacity="0.501961" points="89,139 85,134 96,135" />
<polygon fill="#ecefe1" fill-opacity="0.501961" points="203,116 200,119 207,116" />
<polygon fill="#25160b" fill-opacity="0.501961" points="83,121 81,137 72,128" />
<polygon fill="#e0cebc" fill-opacity="0.501961" points="115,111 117,114 118,109" />
<polygon fill="#acb14d" fill-opacity="0.501961" points="101,136 87,136 88,145" />
<polygon fill="#c3bbb7" fill-opacity="0.501961" points="159,131 161,119 164,140" />
<polygon fill="#807264" fill-opacity="0.501961" points="177,113 189,115 189,92" />
<polygon fill="#c69777" fill-opacity="0.501961" points="206,73 202,66 211,73" />
<polygon fill="#56473c" fill-opacity="0.501961" points="108,129 113,117 109,115" />
<polygon fill="#99593c" fill-opacity="0.501961" points="202,136 196,131 212,126" />
<polygon fill="#9d9da2" fill-opacity="0.501961" points="138,53 151,63 133,68" />
<polygon fill="#736751" fill-opacity="0.501961" points="98,117 98,90 105,116" />
<polygon fill="#a1a2a1" fill-opacity="0.501961" points="212,114 209,107 215,97" />
<polygon fill="#5a505c" fill-opacity="0.501961" points="135,132 137,137 135,142" />
<polygon fill="#956752" fill-opacity="0.501961" points="79,110 96,112 75,119" />
<polygon fill="#7d7055" fill-opacity="0.501961" points="99,95 94,88 87,96" />
<polygon fill="#b6b051" fill-opacity="0.501961" points="112,153 110,148 115,146" />
<polygon fill="#392410" fill-opacity="0.501961" points="59,111 59,117 63,113" />
<polygon fill="#ffc992" fill-opacity="0.501961" points="131,96 129,100 133,101" />
<polygon fill="#b8bfca" fill-opacity="0.501961" points="79,18 98,25 81,45" />
<polygon fill="#72503b" fill-opacity="0.501961" points="104,142 107,148 116,145" />
<polygon fill="#9eb3ba" fill-opacity="0.501961" points="4,98 -7,96 -7,104" />
<polygon fill="#94825f" fill-opacity="0.501961" points="114,88 112,83 100,87" />
<polygon fill="#583a25" fill-opacity="0.501961" points="79,122 72,117 82,133" />
<polygon fill="#432f1c" fill-opacity="0.501961" points="17,102 51,101 33,83" />
<polygon fill="#9e9e9b" fill-opacity="0.501961" points="83,88 84,76 69,72" />
<polygon fill="#e0ceb3" fill-opacity="0.501961" points="28,181 -7,185 23,207" />
<polygon fill="#8c7c64" fill-opacity="0.501961" points="-16,31 4,49 -3,84" />
<polygon fill="#ced2da" fill-opacity="0.501961" points="62,-16 158,45 163,10" />
<polygon fill="#4f3415" fill-opacity="0.501961" points="26,79 24,87 21,87" />
<polygon fill="#efd7c0" fill-opacity="0.501961" points="172,134 183,137 170,137" />
<polygon fill="#362716" fill-opacity="0.501961" points="73,143 30,186 57,191" />
<polygon fill="#d3b99d" fill-opacity="0.501961" points="76,31 81,39 52,31" />
<polygon fill="#847b7a" fill-opacity="0.501961" points="168,139 163,124 164,147" />
<polygon fill="#d3c6bf" fill-opacity="0.501961" points="101,133 106,128 97,131" />
<polygon fill="#dbaf7c" fill-opacity="0.501961" points="86,99 80,90 83,102" />
<polygon fill="#6a6671" fill-opacity="0.501961" points="198,115 204,100 199,106" />
<polygon fill="#090c12" fill-opacity="0.501961" points="197,62 195,73 198,71" />
<polygon fill="#948067" fill-opacity="0.501961" points="79,176 82,169 82,174" />
<polygon fill="#593e1f" fill-opacity="0.501961" points="80,171 64,178 87,180" />
<polygon fill="#c2ac9a" fill-opacity="0.501961" points="114,152 101,157 95,152" />
<polygon fill="#9a9c9e" fill-opacity="0.501961" points="176,84 187,96 185,76" />
<polygon fill="#352d25" fill-opacity="0.501961" points="120,185 118,179 114,176" />
<polygon fill="#2f241c" fill-opacity="0.501961" points="212,61 212,66 210,60" />
<polygon fill="#988c89" fill-opacity="0.501961" points="240,47 245,85 252,67" />
<polygon fill="#8b5232" fill-opacity="0.501961" points="68,71 77,69 68,63" />
<polygon fill="#979eaa" fill-opacity="0.501961" points="246,102 255,100 256,76" />
<polygon fill="#3e1809" fill-opacity="0.501961" points="109,116 107,112 112,115" />
<polygon fill="#b7b2b3" fill-opacity="0.501961" points="237,35 243,43 233,56" />
<polygon fill="#554c47" fill-opacity="0.501961" points="149,182 162,170 163,177" />
<polygon fill="#69593a" fill-opacity="0.501961" points="175,128 176,120 169,133" />
<polygon fill="#bd8e5b" fill-opacity="0.501961" points="206,118 206,124 197,118" />
<polygon fill="#160e06" fill-opacity="0.501961" points="82,150 82,139 78,138" />
<polygon fill="#878a97" fill-opacity="0.501961" points="240,149 228,156 214,155" />
<polygon fill="#c2c5cb" fill-opacity="0.501961" points="219,35 206,27 227,55" />
<polygon fill="#f1dac9" fill-opacity="0.501961" points="79,43 77,46 73,45" />
<polygon fill="#a28256" fill-opacity="0.501961" points="11,121 17,110 14,107" />
<polygon fill="#c6b28d" fill-opacity="0.501961" points="8,139 -13,146 -13,137" />
<polygon fill="#bfaa9d" fill-opacity="0.501961" points="115,122 121,109 120,137" />
<polygon fill="#977c67" fill-opacity="0.501961" points="194,122 195,106 200,127" />
<polygon fill="#aea7a3" fill-opacity="0.501961" points="222,91 238,99 236,112" />
<polygon fill="#92958e" fill-opacity="0.501961" points="21,33 18,54 28,52" />
<polygon fill="#a6795f" fill-opacity="0.501961" points="77,40 68,35 70,43" />
<polygon fill="#947e59" fill-opacity="0.501961" points="110,70 80,58 93,57" />
<polygon fill="#a39a91" fill-opacity="0.501961" points="165,162 163,174 160,166" />
<polygon fill="#927b41" fill-opacity="0.501961" points="187,125 187,131 180,133" />
<polygon fill="#b4bbc6" fill-opacity="0.501961" points="44,28 -8,19 40,42" />
<polygon fill="#846d38" fill-opacity="0.501961" points="92,151 82,140 85,149" />
<polygon fill="#6e6462" fill-opacity="0.501961" points="161,135 158,124 158,131" />
<polygon fill="#a7a29d" fill-opacity="0.501961" points="247,150 251,142 240,151" />
<polygon fill="#b6ada5" fill-opacity="0.501961" points="161,46 165,58 174,42" />
<polygon fill="#dccbb0" fill-opacity="0.501961" points="189,161 166,199 204,188" />
<polygon fill="#979cab" fill-opacity="0.501961" points="86,129 89,126 87,124" />
</g>
</svg>