<svg xmlns="http://www.w3.org/2000/svg" version="1.1" width="1024" height="768">
<rect x="0" y="0" width="1024" height="768" fill="#988d82" />
<g transform="scale(4.000000) translate(0.5 0.5)">
<polygon fill="#0d0000" fill-opacity="0.501961" points="91,207 -8,125 66,33" />
<polygon fill="#f0feff" fill-opacity="0.501961" points="144,78 -16,-1 271,0" />
<polygon fill="#000007" fill-opacity="0.501961" points="209,207 194,120 250,171" />
<polygon fill="#190100" fill-opacity="0.501961" points="41,207 12,110 101,120" />
<polygon fill="#d2d8eb" fill-opacity="0.501961" points="271,57 247,-16 -16,24" />
<polygon fill="#fde8cb" fill-opacity="0.501961" points="201,166 100,89 189,207" />
<polygon fill="#ffffd1" fill-opacity="0.501961" points="-16,186 5,127 36,201" />
<polygon fill="#351f00" fill-opacity="0.501961" points="45,26 29,192 80,205" />
<polygon fill="#ffffd8" fill-opacity="0.501961" points="111,150 107,200 62,207" />
<polygon fill="#87725d" fill-opacity="0.501961" points="232,100 117,66 191,30" />
<polygon fill="#00000e" fill-opacity="0.501961" points="148,144 144,207 160,200" />
<polygon fill="#2b3145" fill-opacity="0.501961" points="203,207 244,96 257,131" />
<polygon fill="#997143" fill-opacity="0.501961" points="26,74 123,171 100,54" />
<polygon fill="#3d1c0a" fill-opacity="0.501961" points="215,99 214,59 187,60" />
<polygon fill="#c2cbda" fill-opacity="0.501961" points="31,54 86,-16 -16,14" />
<polygon fill="#8b7551" fill-opacity="0.501961" points="150,73 243,159 179,152" />
<polygon fill="#b29174" fill-opacity="0.501961" points="45,17 158,90 89,118" />
<polygon fill="#ffffd7" fill-opacity="0.501961" points="253,197 245,165 266,151" />
<polygon fill="#f3e4b9" fill-opacity="0.501961" points="205,200 192,132 164,190" />
<polygon fill="#45210c" fill-opacity="0.501961" points="68,38 41,40 50,100" />
<polygon fill="#544c49" fill-opacity="0.501961" points="107,186 168,207 164,167" />
<polygon fill="#d7c1af" fill-opacity="0.501961" points="167,112 138,160 115,122" />
<polygon fill="#ebd59c" fill-opacity="0.501961" points="87,124 92,200 117,167" />
<polygon fill="#bdbfc3" fill-opacity="0.501961" points="271,74 188,100 211,115" />
<polygon fill="#82693b" fill-opacity="0.501961" points="-16,119 46,61 9,137" />
<polygon fill="#53330d" fill-opacity="0.501961" points="49,207 88,174 83,110" />
<polygon fill="#b6ad9f" fill-opacity="0.501961" points="95,69 206,21 187,89" />
<polygon fill="#d9deea" fill-opacity="0.501961" points="67,-2 271,46 255,-16" />
<polygon fill="#02060b" fill-opacity="0.501961" points="228,163 223,207 199,154" />
<polygon fill="#120000" fill-opacity="0.501961" points="51,82 77,108 80,96" />
<polygon fill="#fde5c7" fill-opacity="0.501961" points="21,172 -16,127 27,156" />
<polygon fill="#936749" fill-opacity="0.501961" points="21,132 115,115 81,103" />
<polygon fill="#bab457" fill-opacity="0.501961" points="174,128 207,153 170,154" />
<polygon fill="#281a07" fill-opacity="0.501961" points="68,194 21,79 32,200" />
<polygon fill="#705743" fill-opacity="0.501961" points="146,85 179,134 209,129" />
<polygon fill="#994b2b" fill-opacity="0.501961" points="135,82 149,85 133,124" />
<polygon fill="#ffefcc" fill-opacity="0.501961" points="117,114 127,134 132,96" />
<polygon fill="#7b8392" fill-opacity="0.501961" points="218,71 209,155 256,157" />
<polygon fill="#a5acb1" fill-opacity="0.501961" points="45,77 29,35 11,72" />
<polygon fill="#ffffff" fill-opacity="0.501961" points="217,56 221,67 207,56" />
<polygon fill="#334765" fill-opacity="0.501961" points="227,187 250,207 246,160" />
<polygon fill="#bfb9ba" fill-opacity="0.501961" points="145,102 168,111 155,174" />
<polygon fill="#6f513f" fill-opacity="0.501961" points="116,117 94,87 109,148" />
<polygon fill="#160900" fill-opacity="0.501961" points="15,147 13,128 69,161" />
<polygon fill="#ebc2b2" fill-opacity="0.501961" points="80,35 67,56 81,70" />
<polygon fill="#b5bcca" fill-opacity="0.501961" points="103,15 145,64 -16,6" />
<polygon fill="#241a19" fill-opacity="0.501961" points="199,81 215,74 222,95" />
<polygon fill="#af9d8c" fill-opacity="0.501961" points="110,129 193,136 131,151" />
<polygon fill="#ada75d" fill-opacity="0.501961" points="82,137 108,119 101,158" />
<polygon fill="#211f27" fill-opacity="0.501961" points="240,100 245,138 250,122" />
<polygon fill="#e1ba92" fill-opacity="0.501961" points="114,101 112,86 71,112" />
<polygon fill="#77775e" fill-opacity="0.501961" points="104,115 101,59 78,42" />
<polygon fill="#afa296" fill-opacity="0.501961" points="187,44 237,33 271,85" />
<polygon fill="#8d5b3d" fill-opacity="0.501961" points="78,37 69,47 43,35" />
<polygon fill="#4f3415" fill-opacity="0.501961" points="23,79 17,126 67,86" />
<polygon fill="#6d1e00" fill-opacity="0.501961" points="135,113 140,111 139,124" />
<polygon fill="#c9b39d" fill-opacity="0.501961" points="222,136 237,121 198,116" />
<polygon fill="#ffcfa4" fill-opacity="0.501961" points="124,79 145,71 151,83" />
<polygon fill="#95948c" fill-opacity="0.501961" points="30,35 -16,41 14,117" />
<polygon fill="#3c353e" fill-opacity="0.501961" points="226,141 236,148 205,154" />
<polygon fill="#765429" fill-opacity="0.501961" points="68,191 87,180 76,134" />
<polygon fill="#281b0c" fill-opacity="0.501961" points="58,120 87,123 26,201" />
<polygon fill="#b79d80" fill-opacity="0.501961" points="146,160 121,132 120,197" />
<polygon fill="#fee9d4" fill-opacity="0.501961" points="104,156 91,174 88,156" />
<polygon fill="#58493a" fill-opacity="0.501961" points="112,198 111,172 142,205" />
<polygon fill="#b57f50" fill-opacity="0.501961" points="72,77 49,70 57,86" />
<polygon fill="#a3adc1" fill-opacity="0.501961" points="271,117 259,35 243,93" />
<polygon fill="#a0b7cd" fill-opacity="0.501961" points="156,49 111,70 98,50" />
<polygon fill="#eda776" fill-opacity="0.501961" points="203,62 200,75 208,70" />
<polygon fill="#241107" fill-opacity="0.501961" points="53,38 48,68 41,51" />
<polygon fill="#e9f4ee" fill-opacity="0.501961" points="6,87 -16,109 -16,62" />
<polygon fill="#ffeacf" fill-opacity="0.501961" points="191,101 196,108 206,90" />
<polygon fill="#a4a29d" fill-opacity="0.501961" points="98,119 73,77 83,64" />
<polygon fill="#38768d" fill-opacity="0.501961" points="213,121 212,110 235,109" />
<polygon fill="#060202" fill-opacity="0.501961" points="205,58 197,57 195,67" />
<polygon fill="#998974" fill-opacity="0.501961" points="199,56 145,65 170,111" />
<polygon fill="#e1bd9c" fill-opacity="0.501961" points="146,79 145,109 157,115" />
<polygon fill="#e8d5c0" fill-opacity="0.501961" points="162,165 200,148 173,202" />
<polygon fill="#b2b0ad" fill-opacity="0.501961" points="237,90 240,114 207,98" />
<polygon fill="#2e2012" fill-opacity="0.501961" points="24,168 45,131 88,207" />
<polygon fill="#574d48" fill-opacity="0.501961" points="163,174 132,172 140,206" />
<polygon fill="#7a4f30" fill-opacity="0.501961" points="104,115 118,98 125,102" />
<polygon fill="#f9e0bf" fill-opacity="0.501961" points="76,207 79,185 95,182" />
<polygon fill="#151214" fill-opacity="0.501961" points="146,170 152,160 149,145" />
<polygon fill="#e2ceb1" fill-opacity="0.501961" points="24,172 -4,161 26,150" />
<polygon fill="#6d6333" fill-opacity="0.501961" points="121,151 95,151 120,137" />
<polygon fill="#4a4f51" fill-opacity="0.501961" points="209,166 198,162 209,201" />
<polygon fill="#5a5731" fill-opacity="0.501961" points="156,80 153,103 165,109" />
<polygon fill="#c6c9d1" fill-opacity="0.501961" points="31,42 -16,2 144,-14" />
<polygon fill="#c1c5d0" fill-opacity="0.501961" points="179,44 133,8 241,23" />
<polygon fill="#7c572d" fill-opacity="0.501961" points="64,128 42,80 73,108" />
<polygon fill="#918f3c" fill-opacity="0.501961" points="199,134 192,150 162,154" />
<polygon fill="#7e533e" fill-opacity="0.501961" points="261,152 230,163 240,168" />
<polygon fill="#f8e7b3" fill-opacity="0.501961" points="166,134 188,136 182,140" />
<polygon fill="#b5b0b1" fill-opacity="0.501961" points="148,119 173,157 155,175" />
<polygon fill="#7a6951" fill-opacity="0.501961" points="13,78 34,79 -16,132" />
<polygon fill="#9b8881" fill-opacity="0.501961" points="188,112 205,100 194,140" />
<polygon fill="#130800" fill-opacity="0.501961" points="81,136 87,165 79,153" />
<polygon fill="#b19d7a" fill-opacity="0.501961" points="186,26 174,73 205,54" />
<polygon fill="#fff6db" fill-opacity="0.501961" points="202,107 208,99 208,110" />
<polygon fill="#d8d6d7" fill-opacity="0.501961" points="234,91 220,83 246,86" />
<polygon fill="#6a5d4a" fill-opacity="0.501961" points="108,106 78,134 99,133" />
<polygon fill="#3a2d38" fill-opacity="0.501961" points="209,148 215,134 197,135" />
<polygon fill="#000000" fill-opacity="0.501961" points="57,115 46,121 48,100" />
<polygon fill="#88836d" fill-opacity="0.501961" points="114,79 83,100 85,40" />
<polygon fill="#62636d" fill-opacity="0.501961" points="239,92 271,123 260,156" />
<polygon fill="#695748" fill-opacity="0.501961" points="193,98 180,104 181,133" />
<polygon fill="#ded5ca" fill-opacity="0.501961" points="130,125 153,130 163,111" />
<polygon fill="#190d00" fill-opacity="0.501961" points="71,136 18,149 51,159" />
<polygon fill="#0c0a04" fill-opacity="0.501961" points="58,88 45,68 51,88" />
<polygon fill="#c88a6e" fill-opacity="0.501961" points="73,113 85,97 99,115" />
<polygon fill="#e1c7aa" fill-opacity="0.501961" points="30,185 -11,207 20,155" />
<polygon fill="#867760" fill-opacity="0.501961" points="222,57 226,79 252,87" />
<polygon fill="#bc8154" fill-opacity="0.501961" points="127,81 152,116 132,109" />
<polygon fill="#4f453f" fill-opacity="0.501961" points="149,133 150,150 147,142" />
<polygon fill="#958984" fill-opacity="0.501961" points="244,134 261,127 245,159" />
<polygon fill="#d9dfe7" fill-opacity="0.501961" points="263,-14 271,78 220,0" />
<polygon fill="#626977" fill-opacity="0.501961" points="222,70 222,91 209,97" />
<polygon fill="#232328" fill-opacity="0.501961" points="217,158 239,155 203,207" />
<polygon fill="#110702" fill-opacity="0.501961" points="72,91 74,109 80,102" />
<polygon fill="#d2bca1" fill-opacity="0.501961" points="107,123 103,138 92,138" />
<polygon fill="#d3d9e4" fill-opacity="0.501961" points="147,50 97,44 137,20" />
<polygon fill="#65606a" fill-opacity="0.501961" points="169,142 164,145 164,127" />
<polygon fill="#2e1409" fill-opacity="0.501961" points="209,59 205,67 216,69" />
<polygon fill="#919496" fill-opacity="0.501961" points="193,67 205,93 175,86" />
<polygon fill="#8e8075" fill-opacity="0.501961" points="133,166 138,129 126,157" />
<polygon fill="#ecbd9a" fill-opacity="0.501961" points="90,118 97,96 96,118" />
<polygon fill="#d0bac5" fill-opacity="0.501961" points="197,151 207,154 208,150" />
<polygon fill="#c2c4c7" fill-opacity="0.501961" points="216,33 218,73 228,30" />
<polygon fill="#eec79e" fill-opacity="0.501961" points="105,98 120,118 110,86" />
<polygon fill="#b4af4e" fill-opacity="0.501961" points="87,153 112,151 86,134" />
<polygon fill="#5d6c86" fill-opacity="0.501961" points="144,188 184,207 160,180" />
<polygon fill="#fff0cc" fill-opacity="0.501961" points="123,108 131,95 126,125" />
<polygon fill="#e0cdb5" fill-opacity="0.501961" points="167,191 195,163 211,207" />
<polygon fill="#bdab96" fill-opacity="0.501961" points="147,169 131,175 146,141" />
<polygon fill="#6a2b12" fill-opacity="0.501961" points="116,115 106,107 109,121" />
<polygon fill="#a76945" fill-opacity="0.501961" points="59,44 75,65 69,85" />
<polygon fill="#ddccb1" fill-opacity="0.501961" points="-16,135 27,176 9,135" />
<polygon fill="#050100" fill-opacity="0.501961" points="214,176 249,207 219,199" />
<polygon fill="#2d1e03" fill-opacity="0.501961" points="15,147 36,111 10,132" />
<polygon fill="#5d4929" fill-opacity="0.501961" points="37,123 51,130 18,136" />
<polygon fill="#955f4c" fill-opacity="0.501961" points="94,113 77,120 86,101" />
<polygon fill="#dca270" fill-opacity="0.501961" points="196,68 201,62 207,64" />
<polygon fill="#9a9da4" fill-opacity="0.501961" points="30,46 -9,89 43,61" />
<polygon fill="#c99e72" fill-opacity="0.501961" points="44,27 45,36 73,36" />
<polygon fill="#b5ab8f" fill-opacity="0.501961" points="127,54 103,82 128,83" />
<polygon fill="#9d9a4a" fill-opacity="0.501961" points="12,126 -6,129 4,135" />
<polygon fill="#ead0b4" fill-opacity="0.501961" points="246,168 271,136 257,197" />
<polygon fill="#3f2617" fill-opacity="0.501961" points="216,73 211,94 197,77" />
<polygon fill="#e9be9a" fill-opacity="0.501961" points="95,104 94,97 81,96" />
<polygon fill="#4f2414" fill-opacity="0.501961" points="143,112 140,116 129,109" />
<polygon fill="#ac5b3f" fill-opacity="0.501961" points="202,119 197,135 214,133" />
<polygon fill="#d2b694" fill-opacity="0.501961" points="135,110 145,108 131,99" />
<polygon fill="#b7bdc6" fill-opacity="0.501961" points="-1,34 -16,5 94,27" />
<polygon fill="#413221" fill-opacity="0.501961" points="156,207 141,185 126,190" />
<polygon fill="#1e0907" fill-opacity="0.501961" points="195,63 199,74 201,68" />
<polygon fill="#8a4f3a" fill-opacity="0.501961" points="139,108 132,84 140,83" />
<polygon fill="#ba9d92" fill-opacity="0.501961" points="116,110 122,113 113,132" />
<polygon fill="#dda37d" fill-opacity="0.501961" points="213,74 203,70 211,69" />
<polygon fill="#3d778e" fill-opacity="0.501961" points="220,105 225,120 234,111" />
<polygon fill="#ffe9d9" fill-opacity="0.501961" points="70,48 77,55 85,56" />
<polygon fill="#181617" fill-opacity="0.501961" points="155,178 150,156 149,176" />
<polygon fill="#6d5a49" fill-opacity="0.501961" points="165,109 171,128 199,128" />
<polygon fill="#d4ba8b" fill-opacity="0.501961" points="209,124 190,120 210,115" />
<polygon fill="#d3bda3" fill-opacity="0.501961" points="127,159 122,128 134,118" />
<polygon fill="#7c706c" fill-opacity="0.501961" points="207,96 196,124 194,109" />
<polygon fill="#a49380" fill-opacity="0.501961" points="40,42 23,74 43,75" />
<polygon fill="#1b0900" fill-opacity="0.501961" points="66,83 57,88 67,90" />
<polygon fill="#a79581" fill-opacity="0.501961" points="135,184 129,140 119,189" />
<polygon fill="#6c4927" fill-opacity="0.501961" points="45,92 59,120 76,86" />
<polygon fill="#7a562d" fill-opacity="0.501961" points="71,169 84,170 79,142" />
<polygon fill="#a1b9d7" fill-opacity="0.501961" points="31,65 25,53 18,63" />
<polygon fill="#9d989a" fill-opacity="0.501961" points="241,104 211,146 239,125" />
<polygon fill="#3c2416" fill-opacity="0.501961" points="51,40 60,73 40,47" />
<polygon fill="#93a8b9" fill-opacity="0.501961" points="82,72 68,71 84,84" />
<polygon fill="#372919" fill-opacity="0.501961" points="58,207 75,150 38,157" />
<polygon fill="#363649" fill-opacity="0.501961" points="239,102 240,94 246,110" />
<polygon fill="#65573f" fill-opacity="0.501961" points="22,120 -15,135 5,100" />
<polygon fill="#ecd8be" fill-opacity="0.501961" points="196,130 193,136 183,138" />
<polygon fill="#daa988" fill-opacity="0.501961" points="125,85 140,90 130,90" />
<polygon fill="#94693a" fill-opacity="0.501961" points="42,66 55,69 39,82" />
<polygon fill="#a39484" fill-opacity="0.501961" points="244,49 254,81 202,48" />
<polygon fill="#1a0d04" fill-opacity="0.501961" points="73,131 83,143 82,123" />
<polygon fill="#9b8f74" fill-opacity="0.501961" points="9,45 21,29 25,45" />
<polygon fill="#a6a251" fill-opacity="0.501961" points="192,138 167,158 176,138" />
<polygon fill="#c5c0bc" fill-opacity="0.501961" points="152,105 164,110 169,130" />
<polygon fill="#735d54" fill-opacity="0.501961" points="111,123 102,139 122,156" />
<polygon fill="#b4b6ba" fill-opacity="0.501961" points="67,25 83,47 91,31" />
<polygon fill="#415168" fill-opacity="0.501961" points="245,172 215,175 245,181" />
<polygon fill="#2a2321" fill-opacity="0.501961" points="246,131 241,112 252,127" />
<polygon fill="#7a746f" fill-opacity="0.501961" points="213,126 212,106 224,106" />
<polygon fill="#b0aaac" fill-opacity="0.501961" points="129,76 148,38 156,53" />
<polygon fill="#735c34" fill-opacity="0.501961" points="171,132 188,112 191,135" />
<polygon fill="#857667" fill-opacity="0.501961" points="178,119 164,110 201,87" />
<polygon fill="#d7c2a4" fill-opacity="0.501961" points="-7,173 33,207 27,171" />
<polygon fill="#402a15" fill-opacity="0.501961" points="39,82 25,90 35,113" />
<polygon fill="#79634a" fill-opacity="0.501961" points="97,128 109,117 99,88" />
<polygon fill="#958d84" fill-opacity="0.501961" points="-16,17 26,73 15,96" />
<polygon fill="#463018" fill-opacity="0.501961" points="81,130 74,118 46,129" />
<polygon fill="#1e232f" fill-opacity="0.501961" points="198,158 213,176 244,170" />
<polygon fill="#060200" fill-opacity="0.501961" points="39,115 41,124 53,109" />
<polygon fill="#d6af98" fill-opacity="0.501961" points="82,103 69,114 81,110" />
<polygon fill="#aea5a1" fill-opacity="0.501961" points="149,150 163,159 149,128" />
<polygon fill="#e6e9e4" fill-opacity="0.501961" points="221,66 211,56 217,68" />
<polygon fill="#634635" fill-opacity="0.501961" points="57,54 72,43 47,38" />
<polygon fill="#844b28" fill-opacity="0.501961" points="231,162 245,163 245,170" />
<polygon fill="#7b7679" fill-opacity="0.501961" points="237,90 204,91 218,96" />
<polygon fill="#8c8b9e" fill-opacity="0.501961" points="228,157 234,151 212,156" />
<polygon fill="#cdd1d9" fill-opacity="0.501961" points="31,-4 154,-4 186,45" />
<polygon fill="#8f4722" fill-opacity="0.501961" points="80,106 86,101 94,101" />
<polygon fill="#ab9682" fill-opacity="0.501961" points="171,34 157,81 143,71" />
<polygon fill="#535861" fill-opacity="0.501961" points="246,166 252,157 246,153" />
<polygon fill="#b5a79d" fill-opacity="0.501961" points="233,120 220,140 216,116" />
<polygon fill="#f2e0c5" fill-opacity="0.501961" points="197,158 164,173 169,157" />
<polygon fill="#150b06" fill-opacity="0.501961" points="200,57 211,60 199,60" />
<polygon fill="#61401e" fill-opacity="0.501961" points="32,184 27,161 41,188" />
<polygon fill="#ad9f7d" fill-opacity="0.501961" points="76,48 104,62 88,40" />
<polygon fill="#877e6d" fill-opacity="0.501961" points="85,97 113,87 83,49" />
<polygon fill="#a8adb8" fill-opacity="0.501961" points="223,70 229,97 222,86" />
<polygon fill="#dec8b4" fill-opacity="0.501961" points="69,207 104,207 113,150" />
<polygon fill="#f1dbc8" fill-opacity="0.501961" points="208,96 210,114 203,106" />
<polygon fill="#000000" fill-opacity="0.501961" points="84,155 85,169 82,165" />
<polygon fill="#5a3f21" fill-opacity="0.501961" points="62,173 87,178 64,190" />
<polygon fill="#8d6734" fill-opacity="0.501961" points="83,133 90,151 82,143" />
<polygon fill="#9c5d2d" fill-opacity="0.501961" points="79,89 81,102 70,80" />
<polygon fill="#84807c" fill-opacity="0.501961" points="177,67 186,61 192,101" />
<polygon fill="#e0e5ed" fill-opacity="0.501961" points="231,-16 152,1 271,9" />
<polygon fill="#f1be92" fill-opacity="0.501961" points="142,70 131,87 133,70" />
<polygon fill="#fbe7be" fill-opacity="0.501961" points="109,97 114,103 113,89" />
<polygon fill="#837458" fill-opacity="0.501961" points="149,93 161,74 164,96" />
<polygon fill="#ddceb4" fill-opacity="0.501961" points="-6,151 24,151 25,167" />
<polygon fill="#c27946" fill-opacity="0.501961" points="206,81 200,77 201,72" />
<polygon fill="#433b34" fill-opacity="0.501961" points="120,183 114,174 119,195" />
<polygon fill="#685c59" fill-opacity="0.501961" points="229,73 224,74 226,84" />
<polygon fill="#ddd8d7" fill-opacity="0.501961" points="132,119 131,127 146,135" />
<polygon fill="#d9a75f" fill-opacity="0.501961" points="43,78 43,71 36,74" />
<polygon fill="#aa8f71" fill-opacity="0.501961" points="112,148 128,185 114,174" />
<polygon fill="#dad8d7" fill-opacity="0.501961" points="246,94 253,95 240,84" />
<polygon fill="#736a53" fill-opacity="0.501961" points="119,108 126,99 114,96" />
<polygon fill="#a99769" fill-opacity="0.501961" points="112,156 86,154 116,146" />
<polygon fill="#9f8f7d" fill-opacity="0.501961" points="115,185 107,188 110,174" />
<polygon fill="#5b453d" fill-opacity="0.501961" points="145,86 137,83 128,87" />
<polygon fill="#9c713c" fill-opacity="0.501961" points="16,104 20,109 10,125" />
<polygon fill="#c5bf6f" fill-opacity="0.501961" points="84,134 100,135 105,149" />
<polygon fill="#844729" fill-opacity="0.501961" points="70,70 67,61 77,69" />
<polygon fill="#ae9f8c" fill-opacity="0.501961" points="211,42 188,59 217,54" />
<polygon fill="#785e47" fill-opacity="0.501961" points="132,191 133,173 150,173" />
<polygon fill="#93959e" fill-opacity="0.501961" points="245,50 245,86 267,112" />
<polygon fill="#9f7960" fill-opacity="0.501961" points="78,40 51,33 56,41" />
<polygon fill="#664c2d" fill-opacity="0.501961" points="86,181 76,182 87,161" />
<polygon fill="#7a5125" fill-opacity="0.501961" points="18,95 39,75 29,75" />
<polygon fill="#bdc5d0" fill-opacity="0.501961" points="179,19 214,27 207,48" />
<polygon fill="#3d3229" fill-opacity="0.501961" points="13,127 4,119 0,125" />
<polygon fill="#d6c3ab" fill-opacity="0.501961" points="154,117 142,115 136,156" />
<polygon fill="#76757e" fill-opacity="0.501961" points="221,148 242,135 237,118" />
<polygon fill="#1b150e" fill-opacity="0.501961" points="77,190 30,187 41,207" />
<polygon fill="#846e58" fill-opacity="0.501961" points="151,104 143,114 149,111" />
<polygon fill="#d0c2b5" fill-opacity="0.501961" points="197,158 195,151 175,154" />
<polygon fill="#675857" fill-opacity="0.501961" points="196,153 216,153 206,157" />
<polygon fill="#5b3309" fill-opacity="0.501961" points="27,169 32,161 26,158" />
<polygon fill="#251706" fill-opacity="0.501961" points="44,161 19,124 16,146" />
<polygon fill="#b86545" fill-opacity="0.501961" points="115,115 114,107 104,103" />
<polygon fill="#ba9073" fill-opacity="0.501961" points="141,109 150,96 150,76" />
<polygon fill="#a0b6c9" fill-opacity="0.501961" points="120,56 115,75 101,50" />
<polygon fill="#726364" fill-opacity="0.501961" points="120,157 110,161 121,140" />
<polygon fill="#ffead1" fill-opacity="0.501961" points="116,111 129,102 130,109" />
<polygon fill="#ffe0ca" fill-opacity="0.501961" points="146,75 132,76 146,80" />
<polygon fill="#c0c5ce" fill-opacity="0.501961" points="25,7 1,-3 8,41" />
<polygon fill="#cbab9a" fill-opacity="0.501961" points="150,86 139,89 153,90" />
<polygon fill="#b0775b" fill-opacity="0.501961" points="139,117 131,114 139,124" />
<polygon fill="#ca8858" fill-opacity="0.501961" points="127,96 134,98 129,77" />
<polygon fill="#a5bbd2" fill-opacity="0.501961" points="131,64 130,46 141,72" />
<polygon fill="#a18f7e" fill-opacity="0.501961" points="196,108 188,103 191,134" />
<polygon fill="#261206" fill-opacity="0.501961" points="197,135 203,137 200,141" />
<polygon fill="#927a6c" fill-opacity="0.501961" points="102,107 120,137 111,139" />
<polygon fill="#e7d6bb" fill-opacity="0.501961" points="249,183 271,189 252,194" />
<polygon fill="#cbcfda" fill-opacity="0.501961" points="220,40 244,15 168,11" />
<polygon fill="#362112" fill-opacity="0.501961" points="212,77 213,95 203,79" />
<polygon fill="#d6a46a" fill-opacity="0.501961" points="78,84 85,96 82,102" />
<polygon fill="#595145" fill-opacity="0.501961" points="204,165 200,168 198,153" />
<polygon fill="#a08a64" fill-opacity="0.501961" points="234,59 220,62 248,79" />
<polygon fill="#a59e9d" fill-opacity="0.501961" points="163,114 149,138 169,134" />
<polygon fill="#e7d1b9" fill-opacity="0.501961" points="90,155 110,157 113,173" />
<polygon fill="#acbdc3" fill-opacity="0.501961" points="5,77 -6,80 13,82" />
<polygon fill="#6c5245" fill-opacity="0.501961" points="82,119 105,128 98,117" />
<polygon fill="#403935" fill-opacity="0.501961" points="193,121 197,127 190,121" />
<polygon fill="#574638" fill-opacity="0.501961" points="114,144 117,135 117,149" />
<polygon fill="#524135" fill-opacity="0.501961" points="216,73 212,75 215,65" />
<polygon fill="#c0ac93" fill-opacity="0.501961" points="197,144 192,152 203,153" />
<polygon fill="#b39d8c" fill-opacity="0.501961" points="134,140 132,161 112,128" />
<polygon fill="#bda686" fill-opacity="0.501961" points="112,76 124,60 143,74" />
<polygon fill="#f4ddc4" fill-opacity="0.501961" points="198,96 208,95 197,101" />
<polygon fill="#a7a948" fill-opacity="0.501961" points="99,144 86,138 103,137" />
<polygon fill="#9c8873" fill-opacity="0.501961" points="82,167 81,174 83,175" />
<polygon fill="#bd9481" fill-opacity="0.501961" points="69,46 66,55 76,66" />
<polygon fill="#965435" fill-opacity="0.501961" points="146,100 137,104 132,91" />
<polygon fill="#76522b" fill-opacity="0.501961" points="77,136 81,157 72,163" />
<polygon fill="#e6dfce" fill-opacity="0.501961" points="156,106 146,108 158,109" />
<polygon fill="#2981a7" fill-opacity="0.501961" points="215,113 224,115 228,108" />
<polygon fill="#8f8f96" fill-opacity="0.501961" points="253,135 244,148 271,170" />
<polygon fill="#d5c4af" fill-opacity="0.501961" points="214,95 220,106 216,106" />
<polygon fill="#bbbabd" fill-opacity="0.501961" points="216,55 224,42 227,55" />
<polygon fill="#5f331d" fill-opacity="0.501961" points="238,159 242,167 246,164" />
<polygon fill="#716f79" fill-opacity="0.501961" points="249,148 271,105 271,154" />
<polygon fill="#88888f" fill-opacity="0.501961" points="249,164 246,149 241,159" />
<polygon fill="#785633" fill-opacity="0.501961" points="42,83 80,120 54,106" />
<polygon fill="#6b6365" fill-opacity="0.501961" points="205,129 211,146 219,134" />
<polygon fill="#6b3e26" fill-opacity="0.501961" points="57,61 62,45 62,78" />
<polygon fill="#0c0a09" fill-opacity="0.501961" points="211,182 232,186 224,181" />
<polygon fill="#d2cac7" fill-opacity="0.501961" points="156,171 152,151 161,161" />
<polygon fill="#979189" fill-opacity="0.501961" points="28,68 43,61 35,41" />
<polygon fill="#929591" fill-opacity="0.501961" points="119,100 129,93 117,80" />
<polygon fill="#180d02" fill-opacity="0.501961" points="71,149 31,153 72,133" />
<polygon fill="#9d8e56" fill-opacity="0.501961" points="12,127 -16,132 5,136" />
<polygon fill="#39404f" fill-opacity="0.501961" points="151,190 160,174 150,178" />
<polygon fill="#b1bbc8" fill-opacity="0.501961" points="24,32 53,16 29,50" />
<polygon fill="#e5d1c0" fill-opacity="0.501961" points="97,96 91,100 87,96" />
<polygon fill="#a08f81" fill-opacity="0.501961" points="160,72 169,114 173,51" />
<polygon fill="#bebfc3" fill-opacity="0.501961" points="259,64 228,27 251,38" />
<polygon fill="#9e9ca8" fill-opacity="0.501961" points="228,155 240,147 238,152" />
<polygon fill="#36180e" fill-opacity="0.501961" points="116,117 107,113 107,116" />
<polygon fill="#444047" fill-opacity="0.501961" points="239,145 211,150 223,153" />
<polygon fill="#8f7c6a" fill-opacity="0.501961" points="132,144 136,134 136,157" />
<polygon fill="#362617" fill-opacity="0.501961" points="74,93 67,94 73,109" />
<polygon fill="#aca6a9" fill-opacity="0.501961" points="173,139 163,145 164,169" />
<polygon fill="#a17445" fill-opacity="0.501961" points="75,113 62,92 65,105" />
<polygon fill="#f4d6d3" fill-opacity="0.501961" points="95,134 86,134 93,136" />
<polygon fill="#d8b296" fill-opacity="0.501961" points="80,105 75,115 73,112" />
<polygon fill="#baada2" fill-opacity="0.501961" points="173,64 169,37 185,46" />
<polygon fill="#a9744e" fill-opacity="0.501961" points="70,95 69,84 66,87" />
<polygon fill="#decdb2" fill-opacity="0.501961" points="204,190 165,159 169,193" />
<polygon fill="#e4d5c3" fill-opacity="0.501961" points="155,110 149,100 151,96" />
<polygon fill="#b8c2d3" fill-opacity="0.501961" points="86,35 98,52 145,51" />
<polygon fill="#d3bca3" fill-opacity="0.501961" points="136,140 122,139 131,110" />
<polygon fill="#b5b5a4" fill-opacity="0.501961" points="101,133 91,129 101,129" />
<polygon fill="#b2ab55" fill-opacity="0.501961" points="194,151 193,139 170,137" />
<polygon fill="#190d02" fill-opacity="0.501961" points="39,97 50,103 48,107" />
<polygon fill="#443924" fill-opacity="0.501961" points="186,122 188,126 188,115" />
<polygon fill="#746741" fill-opacity="0.501961" points="81,133 102,121 98,133" />
<polygon fill="#8c919f" fill-opacity="0.501961" points="245,103 247,93 260,110" />
<polygon fill="#2e1d0e" fill-opacity="0.501961" points="41,165 67,190 24,168" />
<polygon fill="#554947" fill-opacity="0.501961" points="242,151 250,154 251,160" />
<polygon fill="#7d6438" fill-opacity="0.501961" points="56,124 35,126 58,117" />
<polygon fill="#7f6d59" fill-opacity="0.501961" points="146,193 146,172 141,177" />
<polygon fill="#3a2919" fill-opacity="0.501961" points="60,140 48,197 36,187" />
<polygon fill="#9c9b98" fill-opacity="0.501961" points="196,87 195,77 169,83" />
<polygon fill="#b8bdc3" fill-opacity="0.501961" points="223,74 214,63 222,68" />
<polygon fill="#583b1e" fill-opacity="0.501961" points="55,89 66,110 61,116" />
<polygon fill="#837a7a" fill-opacity="0.501961" points="164,145 171,138 163,127" />
<polygon fill="#988e89" fill-opacity="0.501961" points="150,73 141,70 139,56" />
<polygon fill="#aa9d8c" fill-opacity="0.501961" points="194,30 202,54 190,65" />
<polygon fill="#2d333e" fill-opacity="0.501961" points="224,173 232,162 226,192" />
<polygon fill="#ab9b5b" fill-opacity="0.501961" points="107,62 95,51 87,60" />
<polygon fill="#c49674" fill-opacity="0.501961" points="106,111 105,124 108,119" />
<polygon fill="#8c7a60" fill-opacity="0.501961" points="4,51 -10,30 -5,92" />
<polygon fill="#afaca4" fill-opacity="0.501961" points="41,29 41,41 49,27" />
<polygon fill="#d1bd9d" fill-opacity="0.501961" points="85,189 89,174 104,174" />
<polygon fill="#0e0d11" fill-opacity="0.501961" points="196,73 200,77 197,63" />
<polygon fill="#d5bea1" fill-opacity="0.501961" points="28,172 -16,195 -5,161" />
<polygon fill="#455a74" fill-opacity="0.501961" points="248,185 245,171 237,185" />
<polygon fill="#bab2ad" fill-opacity="0.501961" points="254,151 242,149 245,152" />
<polygon fill="#ede7e1" fill-opacity="0.501961" points="238,88 227,85 242,85" />
<polygon fill="#f7e8d6" fill-opacity="0.501961" points="201,98 193,100 193,108" />
<polygon fill="#655e43" fill-opacity="0.501961" points="159,89 155,104 166,110" />
<polygon fill="#cc9173" fill-opacity="0.501961" points="141,80 132,79 140,85" />
<polygon fill="#a89a8d" fill-opacity="0.501961" points="7,34 11,59 -16,11" />
<polygon fill="#9c9084" fill-opacity="0.501961" points="212,103 218,112 214,91" />
<polygon fill="#5f4323" fill-opacity="0.501961" points="82,165 80,184 63,192" />
<polygon fill="#adaa82" fill-opacity="0.501961" points="88,126 84,129 88,131" />
<polygon fill="#62320c" fill-opacity="0.501961" points="42,57 40,48 43,48" />
<polygon fill="#595540" fill-opacity="0.501961" points="194,96 196,90 196,96" />
<polygon fill="#92a0a5" fill-opacity="0.501961" points="111,79 104,77 102,85" />
<polygon fill="#665f54" fill-opacity="0.501961" points="13,108 7,98 8,126" />
<polygon fill="#8b7568" fill-opacity="0.501961" points="121,132 117,161 123,147" />
<polygon fill="#654a26" fill-opacity="0.501961" points="25,113 31,118 10,123" />
<polygon fill="#bdc4cf" fill-opacity="0.501961" points="163,38 196,26 166,20" />
<polygon fill="#211406" fill-opacity="0.501961" points="39,155 17,140 40,174" />
<polygon fill="#d39570" fill-opacity="0.501961" points="102,104 117,107 104,98" />
<polygon fill="#604f4f" fill-opacity="0.501961" points="207,148 194,136 202,150" />
<polygon fill="#816c4f" fill-opacity="0.501961" points="114,104 125,105 114,93" />
<polygon fill="#c1895a" fill-opacity="0.501961" points="67,76 70,70 65,64" />
<polygon fill="#f39a4b" fill-opacity="0.501961" points="172,134 175,134 174,129" />
<polygon fill="#302a2a" fill-opacity="0.501961" points="147,144 152,159 147,175" />
<polygon fill="#f8d8c0" fill-opacity="0.501961" points="75,56 75,50 80,60" />
<polygon fill="#b6a89f" fill-opacity="0.501961" points="150,71 157,50 146,41" />
<polygon fill="#84775a" fill-opacity="0.501961" points="86,97 97,95 104,74" />
<polygon fill="#b2996d" fill-opacity="0.501961" points="167,77 182,49 197,46" />
<polygon fill="#4c2f14" fill-opacity="0.501961" points="28,78 24,85 23,82" />
<polygon fill="#6a6360" fill-opacity="0.501961" points="117,181 118,192 87,207" />
<polygon fill="#8b7056" fill-opacity="0.501961" points="145,110 140,115 151,113" />
<polygon fill="#63301d" fill-opacity="0.501961" points="201,80 206,71 208,80" />
<polygon fill="#bab1ad" fill-opacity="0.501961" points="149,118 158,129 151,154" />
<polygon fill="#e1d6c5" fill-opacity="0.501961" points="100,131 105,127 102,133" />
<polygon fill="#9a9d47" fill-opacity="0.501961" points="199,151 167,137 180,150" />
<polygon fill="#a69d9e" fill-opacity="0.501961" points="226,52 271,63 226,38" />
<polygon fill="#866056" fill-opacity="0.501961" points="81,110 75,117 81,121" />
<polygon fill="#a4aca1" fill-opacity="0.501961" points="223,110 214,112 218,109" />
<polygon fill="#fdf3da" fill-opacity="0.501961" points="5,88 -4,84 -9,89" />
<polygon fill="#b1a191" fill-opacity="0.501961" points="123,141 136,131 127,172" />
<polygon fill="#dabd9c" fill-opacity="0.501961" points="131,107 139,111 137,107" />
<polygon fill="#775c49" fill-opacity="0.501961" points="113,129 105,151 108,116" />
<polygon fill="#6f544d" fill-opacity="0.501961" points="142,84 139,88 149,86" />
<polygon fill="#8d827b" fill-opacity="0.501961" points="177,117 179,128 181,118" />
<polygon fill="#76798b" fill-opacity="0.501961" points="238,104 243,130 235,135" />
<polygon fill="#dec6a4" fill-opacity="0.501961" points="9,135 -16,135 8,144" />
<polygon fill="#b6a697" fill-opacity="0.501961" points="177,155 187,156 191,152" />
<polygon fill="#69696f" fill-opacity="0.501961" points="209,115 219,112 216,121" />
<polygon fill="#875f2f" fill-opacity="0.501961" points="86,166 87,178 89,172" />
<polygon fill="#c8b69b" fill-opacity="0.501961" points="101,155 111,151 95,152" />
<polygon fill="#464c64" fill-opacity="0.501961" points="243,124 240,140 246,136" />
<polygon fill="#ccb9a4" fill-opacity="0.501961" points="207,111 205,101 202,110" />
<polygon fill="#8f8379" fill-opacity="0.501961" points="250,61 241,85 229,84" />
<polygon fill="#985134" fill-opacity="0.501961" points="209,127 199,125 200,136" />
<polygon fill="#66473e" fill-opacity="0.501961" points="9,134 3,135 -1,133" />
<polygon fill="#201408" fill-opacity="0.501961" points="49,81 47,70 60,91" />
<polygon fill="#647790" fill-opacity="0.501961" points="223,201 248,201 248,181" />
<polygon fill="#544850" fill-opacity="0.501961" points="137,140 135,138 137,134" />
<polygon fill="#e3b776" fill-opacity="0.501961" points="105,101 107,89 102,90" />
<polygon fill="#b5aba6" fill-opacity="0.501961" points="238,110 237,90 219,100" />
<polygon fill="#c1af99" fill-opacity="0.501961" points="146,152 138,138 135,168" />
<polygon fill="#955f3d" fill-opacity="0.501961" points="232,160 235,166 241,162" />
<polygon fill="#8e9337" fill-opacity="0.501961" points="107,147 88,149 100,151" />
<polygon fill="#463c3e" fill-opacity="0.501961" points="232,160 237,161 243,147" />
<polygon fill="#a17453" fill-opacity="0.501961" points="138,107 129,108 130,102" />
<polygon fill="#b09779" fill-opacity="0.501961" points="128,161 121,137 120,188" />
<polygon fill="#a38b70" fill-opacity="0.501961" points="152,71 159,86 160,52" />
<polygon fill="#696f7d" fill-opacity="0.501961" points="163,174 153,185 173,207" />
<polygon fill="#6c4a26" fill-opacity="0.501961" points="29,110 16,107 19,98" />
<polygon fill="#decdb3" fill-opacity="0.501961" points="194,153 159,207 208,207" />
<polygon fill="#948068" fill-opacity="0.501961" points="170,102 168,83 193,105" />
<polygon fill="#7a5d3d" fill-opacity="0.501961" points="48,92 37,76 47,81" />
<polygon fill="#3e2d18" fill-opacity="0.501961" points="16,115 25,108 26,119" />
<polygon fill="#918b89" fill-opacity="0.501961" points="158,154 154,134 153,146" />
<polygon fill="#486467" fill-opacity="0.501961" points="207,113 201,114 206,115" />
<polygon fill="#dbc283" fill-opacity="0.501961" points="98,145 84,147 93,142" />
<polygon fill="#16100a" fill-opacity="0.501961" points="51,67 44,62 52,58" />
<polygon fill="#906d47" fill-opacity="0.501961" points="47,69 62,76 55,82" />
<polygon fill="#0a0907" fill-opacity="0.501961" points="203,157 219,163 207,162" />
<polygon fill="#e8dac4" fill-opacity="0.501961" points="-16,147 25,154 7,142" />
<polygon fill="#4f3721" fill-opacity="0.501961" points="20,101 39,118 26,88" />
<polygon fill="#dba87a" fill-opacity="0.501961" points="127,95 136,110 131,87" />
<polygon fill="#7b5b45" fill-opacity="0.501961" points="46,37 55,44 75,41" />
<polygon fill="#dcdce2" fill-opacity="0.501961" points="137,45 120,34 159,33" />
<polygon fill="#562c13" fill-opacity="0.501961" points="70,89 73,85 71,80" />
<polygon fill="#635953" fill-opacity="0.501961" points="227,115 231,118 228,120" />
<polygon fill="#7d796b" fill-opacity="0.501961" points="18,100 18,93 -2,94" />
<polygon fill="#867965" fill-opacity="0.501961" points="14,88 16,70 21,81" />
<polygon fill="#7d7526" fill-opacity="0.501961" points="93,151 84,147 87,151" />
<polygon fill="#833d1d" fill-opacity="0.501961" points="108,107 98,104 113,114" />
<polygon fill="#a58871" fill-opacity="0.501961" points="74,47 84,48 86,56" />
<polygon fill="#6e6770" fill-opacity="0.501961" points="225,139 202,150 235,144" />
<polygon fill="#8f908f" fill-opacity="0.501961" points="179,89 191,75 193,101" />
<polygon fill="#8c7e70" fill-opacity="0.501961" points="13,44 17,65 19,42" />
<polygon fill="#bbab9c" fill-opacity="0.501961" points="222,132 213,142 219,140" />
<polygon fill="#c8793c" fill-opacity="0.501961" points="247,136 249,132 246,132" />
<polygon fill="#9c9ba2" fill-opacity="0.501961" points="230,83 221,105 218,97" />
<polygon fill="#000000" fill-opacity="0.501961" points="28,196 34,188 52,194" />
<polygon fill="#919096" fill-opacity="0.501961" points="246,159 240,158 237,149" />
<polygon fill="#d6cdad" fill-opacity="0.501961" points="198,118 209,115 208,120" />
<polygon fill="#c19558" fill-opacity="0.501961" points="209,118 199,118 205,124" />
<polygon fill="#060304" fill-opacity="0.501961" points="68,207 78,187 32,207" />
<polygon fill="#d7dce3" fill-opacity="0.501961" points="151,-16 89,2 229,10" />
<polygon fill="#010000" fill-opacity="0.501961" points="82,148 81,135 78,137" />
<polygon fill="#6b3e1b" fill-opacity="0.501961" points="84,150 87,158 86,147" />
<polygon fill="#7c7671" fill-opacity="0.501961" points="248,125 258,115 257,126" />
<polygon fill="#e2b593" fill-opacity="0.501961" points="91,111 98,111 93,105" />
<polygon fill="#d2c9c6" fill-opacity="0.501961" points="160,131 163,136 162,124" />
<polygon fill="#bab0a5" fill-opacity="0.501961" points="159,46 166,36 164,57" />
<polygon fill="#68513b" fill-opacity="0.501961" points="174,110 179,129 172,128" />
<polygon fill="#cab8a3" fill-opacity="0.501961" points="140,109 141,105 151,108" />
<polygon fill="#bec4cf" fill-opacity="0.501961" points="124,18 78,9 93,50" />
<polygon fill="#ddcfb4" fill-opacity="0.501961" points="3,207 29,182 -16,184" />
<polygon fill="#e4c6b4" fill-opacity="0.501961" points="71,46 69,51 80,42" />
<polygon fill="#403733" fill-opacity="0.501961" points="231,156 234,164 208,158" />
<polygon fill="#9a6645" fill-opacity="0.501961" points="76,113 95,108 86,107" />
<polygon fill="#b89d90" fill-opacity="0.501961" points="121,112 122,129 114,127" />
<polygon fill="#9298a1" fill-opacity="0.501961" points="16,55 6,68 12,75" />
<polygon fill="#afae48" fill-opacity="0.501961" points="107,150 112,153 115,146" />
<polygon fill="#89765b" fill-opacity="0.501961" points="79,61 95,69 97,60" />
<polygon fill="#94979b" fill-opacity="0.501961" points="85,55 85,65 76,74" />
<polygon fill="#150e04" fill-opacity="0.501961" points="59,115 25,128 39,117" />
<polygon fill="#9b9e5e" fill-opacity="0.501961" points="95,131 85,128 103,128" />
<polygon fill="#535968" fill-opacity="0.501961" points="220,89 220,76 216,90" />
<polygon fill="#92643c" fill-opacity="0.501961" points="62,118 69,107 73,115" />
<polygon fill="#301e0f" fill-opacity="0.501961" points="48,87 65,85 55,91" />
<polygon fill="#9d9997" fill-opacity="0.501961" points="20,84 33,68 35,49" />
<polygon fill="#827166" fill-opacity="0.501961" points="196,126 199,108 192,112" />
<polygon fill="#f5d7af" fill-opacity="0.501961" points="96,102 97,105 89,104" />
<polygon fill="#6f5332" fill-opacity="0.501961" points="34,135 35,127 42,124" />
<polygon fill="#c7bfbd" fill-opacity="0.501961" points="158,152 156,135 169,153" />
<polygon fill="#f9d5bc" fill-opacity="0.501961" points="119,119 128,112 126,126" />
<polygon fill="#ac987e" fill-opacity="0.501961" points="212,37 208,45 212,56" />
<polygon fill="#c0b7b0" fill-opacity="0.501961" points="161,162 158,172 152,164" />
<polygon fill="#716b4f" fill-opacity="0.501961" points="154,85 151,97 165,96" />
<polygon fill="#462e16" fill-opacity="0.501961" points="85,178 70,181 83,173" />
<polygon fill="#eeddc4" fill-opacity="0.501961" points="195,167 184,155 197,157" />
<polygon fill="#613b2d" fill-opacity="0.501961" points="133,111 136,116 132,116" />
<polygon fill="#baab9a" fill-opacity="0.501961" points="189,120 192,118 189,110" />
<polygon fill="#4e453b" fill-opacity="0.501961" points="134,207 145,204 142,173" />
<polygon fill="#2a1c10" fill-opacity="0.501961" points="54,107 45,102 41,90" />
</g>
</svg>