<svg xmlns="http://www.w3.org/2000/svg" version="1.1" width="1024" height="768">
<rect x="0" y="0" width="1024" height="768" fill="#988d82" />
<g transform="scale(4.000000) translate(0.5 0.5)">
<polygon fill="#110000" fill-opacity="0.501961" points="67,32 -11,125 92,207" />
<polygon fill="#f0ffff" fill-opacity="0.501961" points="-16,0 146,77 271,-1" />
<polygon fill="#000006" fill-opacity="0.501961" points="195,119 209,207 249,175" />
<polygon fill="#190200" fill-opacity="0.501961" points="15,104 100,122 37,207" />
<polygon fill="#d2d8eb" fill-opacity="0.501961" points="-16,23 249,-16 271,57" />
<polygon fill="#fee9cb" fill-opacity="0.501961" points="192,207 201,164 100,92" />
<polygon fill="#ffffd1" fill-opacity="0.501961" points="6,127 38,207 -16,185" />
<polygon fill="#ffffd8" fill-opacity="0.501961" points="108,192 64,207 110,149" />
<polygon fill="#362000" fill-opacity="0.501961" points="81,207 28,197 46,24" />
<polygon fill="#4e2e16" fill-opacity="0.501961" points="223,78 185,29 207,97" />
<polygon fill="#a68c70" fill-opacity="0.501961" points="203,34 26,71 182,130" />
<polygon fill="#252023" fill-opacity="0.501961" points="135,197 159,207 149,138" />
<polygon fill="#2b3145" fill-opacity="0.501961" points="259,130 244,97 201,207" />
<polygon fill="#c2cad8" fill-opacity="0.501961" points="94,-16 25,58 -16,3" />
<polygon fill="#916637" fill-opacity="0.501961" points="112,106 123,167 36,87" />
<polygon fill="#8c7959" fill-opacity="0.501961" points="240,158 148,63 172,152" />
<polygon fill="#cdbdae" fill-opacity="0.501961" points="73,139 163,108 171,135" />
<polygon fill="#baa084" fill-opacity="0.501961" points="54,23 160,87 65,61" />
<polygon fill="#ffffde" fill-opacity="0.501961" points="248,165 271,141 252,207" />
<polygon fill="#49220d" fill-opacity="0.501961" points="44,71 77,40 41,38" />
<polygon fill="#19181c" fill-opacity="0.501961" points="247,160 217,200 198,156" />
<polygon fill="#f3e3b7" fill-opacity="0.501961" points="192,129 205,203 158,207" />
<polygon fill="#bebdc1" fill-opacity="0.501961" points="271,75 189,99 207,115" />
<polygon fill="#dfe4ef" fill-opacity="0.501961" points="271,-11 271,52 157,0" />
<polygon fill="#edd49e" fill-opacity="0.501961" points="84,195 93,133 117,170" />
<polygon fill="#8b7b51" fill-opacity="0.501961" points="21,120 18,66 -16,149" />
<polygon fill="#d8bda4" fill-opacity="0.501961" points="116,115 148,118 146,173" />
<polygon fill="#2c1e08" fill-opacity="0.501961" points="70,207 11,138 34,78" />
<polygon fill="#ffffe3" fill-opacity="0.501961" points="27,151 23,169 17,151" />
<polygon fill="#4e4949" fill-opacity="0.501961" points="162,170 108,190 167,191" />
<polygon fill="#b0c1d8" fill-opacity="0.501961" points="112,71 153,53 66,9" />
<polygon fill="#ba8f6f" fill-opacity="0.501961" points="147,101 33,129 172,52" />
<polygon fill="#392925" fill-opacity="0.501961" points="211,98 189,60 225,89" />
<polygon fill="#4d300c" fill-opacity="0.501961" points="88,180 85,120 54,111" />
<polygon fill="#63503d" fill-opacity="0.501961" points="148,87 179,133 202,128" />
<polygon fill="#b5aca1" fill-opacity="0.501961" points="145,53 186,25 271,61" />
<polygon fill="#8a94a0" fill-opacity="0.501961" points="219,60 254,158 211,125" />
<polygon fill="#fff3d0" fill-opacity="0.501961" points="125,131 132,92 119,113" />
<polygon fill="#b9b44f" fill-opacity="0.501961" points="170,152 207,151 175,130" />
<polygon fill="#5e3a19" fill-opacity="0.501961" points="59,58 84,106 14,116" />
<polygon fill="#8b7a57" fill-opacity="0.501961" points="123,153 84,28 84,155" />
<polygon fill="#9c9e9c" fill-opacity="0.501961" points="44,70 -16,98 19,31" />
<polygon fill="#8b4329" fill-opacity="0.501961" points="133,82 138,124 145,85" />
<polygon fill="#525768" fill-opacity="0.501961" points="227,189 253,207 241,138" />
<polygon fill="#dab091" fill-opacity="0.501961" points="119,93 85,96 71,115" />
<polygon fill="#b5b0b3" fill-opacity="0.501961" points="175,141 155,175 145,87" />
<polygon fill="#f6d3b8" fill-opacity="0.501961" points="130,83 155,80 133,67" />
<polygon fill="#2b2a34" fill-opacity="0.501961" points="239,89 253,130 241,124" />
<polygon fill="#ffffff" fill-opacity="0.501961" points="219,67 221,62 208,55" />
<polygon fill="#25180d" fill-opacity="0.501961" points="71,207 50,140 24,167" />
<polygon fill="#bbbfc6" fill-opacity="0.501961" points="131,32 -12,-3 2,35" />
<polygon fill="#704d3c" fill-opacity="0.501961" points="114,115 95,87 108,147" />
<polygon fill="#eebda8" fill-opacity="0.501961" points="64,52 77,38 80,65" />
<polygon fill="#1c1005" fill-opacity="0.501961" points="93,122 17,138 33,165" />
<polygon fill="#d5cc85" fill-opacity="0.501961" points="90,181 87,140 107,122" />
<polygon fill="#4f4134" fill-opacity="0.501961" points="109,173 120,178 119,207" />
<polygon fill="#a5adbe" fill-opacity="0.501961" points="263,113 271,21 239,88" />
<polygon fill="#fffadc" fill-opacity="0.501961" points="193,99 193,108 208,91" />
<polygon fill="#427384" fill-opacity="0.501961" points="212,106 210,120 239,111" />
<polygon fill="#141214" fill-opacity="0.501961" points="155,175 146,172 148,149" />
<polygon fill="#805723" fill-opacity="0.501961" points="71,173 88,186 77,135" />
<polygon fill="#b67851" fill-opacity="0.501961" points="75,80 69,39 56,84" />
<polygon fill="#75717e" fill-opacity="0.501961" points="253,158 194,154 271,122" />
<polygon fill="#e9d6c0" fill-opacity="0.501961" points="174,207 198,149 163,168" />
<polygon fill="#501802" fill-opacity="0.501961" points="136,116 130,109 146,114" />
<polygon fill="#ffe0b0" fill-opacity="0.501961" points="112,87 114,104 103,104" />
<polygon fill="#916b3b" fill-opacity="0.501961" points="13,83 52,88 41,72" />
<polygon fill="#d1d5e0" fill-opacity="0.501961" points="144,53 155,-2 40,-16" />
<polygon fill="#000000" fill-opacity="0.501961" points="80,102 72,93 73,108" />
<polygon fill="#b5a18b" fill-opacity="0.501961" points="122,137 145,131 147,182" />
<polygon fill="#d0b99d" fill-opacity="0.501961" points="209,90 213,124 195,123" />
<polygon fill="#503a20" fill-opacity="0.501961" points="2,134 55,137 78,116" />
<polygon fill="#000000" fill-opacity="0.501961" points="194,70 203,58 198,58" />
<polygon fill="#e9ceb1" fill-opacity="0.501961" points="-16,120 25,156 22,207" />
<polygon fill="#4b5051" fill-opacity="0.501961" points="207,193 198,159 211,170" />
<polygon fill="#a09687" fill-opacity="0.501961" points="133,59 203,43 176,100" />
<polygon fill="#f1dab9" fill-opacity="0.501961" points="189,137 165,132 175,139" />
<polygon fill="#a26c46" fill-opacity="0.501961" points="75,39 55,32 38,40" />
<polygon fill="#d5ccc3" fill-opacity="0.501961" points="155,106 123,137 169,113" />
<polygon fill="#776e6d" fill-opacity="0.501961" points="164,146 173,139 163,124" />
<polygon fill="#e0cab2" fill-opacity="0.501961" points="115,146 79,191 104,207" />
<polygon fill="#b9aaa2" fill-opacity="0.501961" points="238,119 215,146 219,117" />
<polygon fill="#010100" fill-opacity="0.501961" points="248,207 218,203 211,172" />
<polygon fill="#646242" fill-opacity="0.501961" points="154,77 152,102 169,113" />
<polygon fill="#2e1103" fill-opacity="0.501961" points="216,72 212,87 197,80" />
<polygon fill="#f1dcce" fill-opacity="0.501961" points="88,156 91,172 111,159" />
<polygon fill="#938d82" fill-opacity="0.501961" points="-3,45 16,112 24,31" />
<polygon fill="#eef4e7" fill-opacity="0.501961" points="8,87 -16,104 -16,76" />
<polygon fill="#422815" fill-opacity="0.501961" points="48,83 65,65 40,45" />
<polygon fill="#f4bea3" fill-opacity="0.501961" points="95,97 97,114 90,120" />
<polygon fill="#ac8050" fill-opacity="0.501961" points="59,85 43,63 66,79" />
<polygon fill="#ab9279" fill-opacity="0.501961" points="138,131 111,171 131,188" />
<polygon fill="#bcb6b3" fill-opacity="0.501961" points="223,103 241,115 238,85" />
<polygon fill="#38353d" fill-opacity="0.501961" points="206,153 231,142 235,149" />
<polygon fill="#827c5e" fill-opacity="0.501961" points="102,106 102,56 81,47" />
<polygon fill="#180700" fill-opacity="0.501961" points="214,69 202,56 215,64" />
<polygon fill="#755b49" fill-opacity="0.501961" points="97,134 62,109 105,120" />
<polygon fill="#0f0400" fill-opacity="0.501961" points="79,135 86,148 84,165" />
<polygon fill="#afae44" fill-opacity="0.501961" points="115,152 87,151 88,135" />
<polygon fill="#ddbf9f" fill-opacity="0.501961" points="153,101 152,109 127,110" />
<polygon fill="#999542" fill-opacity="0.501961" points="194,137 194,150 163,156" />
<polygon fill="#a4a8ad" fill-opacity="0.501961" points="16,67 43,77 28,35" />
<polygon fill="#5d553f" fill-opacity="0.501961" points="119,107 114,99 126,98" />
<polygon fill="#d48b5a" fill-opacity="0.501961" points="200,78 209,72 202,62" />
<polygon fill="#100c06" fill-opacity="0.501961" points="54,106 52,118 37,86" />
<polygon fill="#c8cdd8" fill-opacity="0.501961" points="203,44 174,6 271,20" />
<polygon fill="#1f1000" fill-opacity="0.501961" points="17,123 44,161 13,144" />
<polygon fill="#6e5941" fill-opacity="0.501961" points="190,135 188,95 170,130" />
<polygon fill="#7f5c36" fill-opacity="0.501961" points="75,109 62,124 44,86" />
<polygon fill="#1f1c1f" fill-opacity="0.501961" points="250,129 243,115 242,136" />
<polygon fill="#9b8b78" fill-opacity="0.501961" points="252,90 236,35 216,72" />
<polygon fill="#877a6f" fill-opacity="0.501961" points="211,115 171,116 154,84" />
<polygon fill="#42363f" fill-opacity="0.501961" points="219,135 196,134 203,149" />
<polygon fill="#884f2c" fill-opacity="0.501961" points="249,160 227,160 242,170" />
<polygon fill="#332514" fill-opacity="0.501961" points="84,196 30,190 45,158" />
<polygon fill="#5c4c40" fill-opacity="0.501961" points="162,176 124,201 136,173" />
<polygon fill="#bdc3ce" fill-opacity="0.501961" points="108,6 26,12 141,67" />
<polygon fill="#ad5538" fill-opacity="0.501961" points="200,134 195,118 211,129" />
<polygon fill="#a7a38d" fill-opacity="0.501961" points="130,53 122,102 106,77" />
<polygon fill="#d4d1d0" fill-opacity="0.501961" points="244,84 254,97 224,84" />
<polygon fill="#9cabb4" fill-opacity="0.501961" points="83,89 70,73 83,71" />
<polygon fill="#d9c2a4" fill-opacity="0.501961" points="33,207 27,171 -16,173" />
<polygon fill="#544b36" fill-opacity="0.501961" points="7,97 -16,121 12,129" />
<polygon fill="#ebd3b4" fill-opacity="0.501961" points="247,166 253,207 271,170" />
<polygon fill="#746969" fill-opacity="0.501961" points="194,109 195,124 205,98" />
<polygon fill="#d7beb1" fill-opacity="0.501961" points="198,153 193,147 208,152" />
<polygon fill="#e6d4bc" fill-opacity="0.501961" points="195,157 210,207 167,159" />
<polygon fill="#898688" fill-opacity="0.501961" points="271,121 233,150 247,163" />
<polygon fill="#614e39" fill-opacity="0.501961" points="118,153 104,145 116,136" />
<polygon fill="#b5a07b" fill-opacity="0.501961" points="221,50 188,42 168,67" />
<polygon fill="#5e411b" fill-opacity="0.501961" points="13,126 33,114 23,82" />
<polygon fill="#682610" fill-opacity="0.501961" points="103,106 111,108 113,122" />
<polygon fill="#8e8c8a" fill-opacity="0.501961" points="175,72 192,122 194,62" />
<polygon fill="#1e2028" fill-opacity="0.501961" points="208,159 238,156 211,185" />
<polygon fill="#2d1b12" fill-opacity="0.501961" points="40,49 51,71 53,38" />
<polygon fill="#babbbd" fill-opacity="0.501961" points="221,43 214,62 225,85" />
<polygon fill="#8e5237" fill-opacity="0.501961" points="133,117 136,121 148,109" />
<polygon fill="#ffe8d0" fill-opacity="0.501961" points="118,108 133,122 128,103" />
<polygon fill="#b0a366" fill-opacity="0.501961" points="117,161 83,146 87,125" />
<polygon fill="#ffe2cf" fill-opacity="0.501961" points="75,60 75,50 81,56" />
<polygon fill="#b06d48" fill-opacity="0.501961" points="89,105 72,80 85,120" />
<polygon fill="#27170b" fill-opacity="0.501961" points="64,148 91,119 28,140" />
<polygon fill="#a8a04c" fill-opacity="0.501961" points="11,128 9,135 -16,127" />
<polygon fill="#efe2d6" fill-opacity="0.501961" points="205,101 210,116 209,93" />
<polygon fill="#a99378" fill-opacity="0.501961" points="42,56 21,71 44,78" />
<polygon fill="#0a0600" fill-opacity="0.501961" points="49,87 49,74 59,90" />
<polygon fill="#5d4f44" fill-opacity="0.501961" points="148,133 146,140 148,145" />
<polygon fill="#684924" fill-opacity="0.501961" points="87,180 68,190 75,132" />
<polygon fill="#565c6e" fill-opacity="0.501961" points="213,95 221,94 221,71" />
<polygon fill="#7d7162" fill-opacity="0.501961" points="246,82 224,62 227,83" />
<polygon fill="#3c302f" fill-opacity="0.501961" points="245,153 248,159 254,159" />
<polygon fill="#b8b0ae" fill-opacity="0.501961" points="168,164 149,134 155,175" />
<polygon fill="#717581" fill-opacity="0.501961" points="264,114 239,90 271,157" />
<polygon fill="#bac1ca" fill-opacity="0.501961" points="40,44 -16,9 51,16" />
<polygon fill="#8f7459" fill-opacity="0.501961" points="145,109 142,115 154,114" />
<polygon fill="#120100" fill-opacity="0.501961" points="66,83 57,88 67,89" />
<polygon fill="#e1cfb2" fill-opacity="0.501961" points="94,207 78,186 109,175" />
<polygon fill="#257193" fill-opacity="0.501961" points="232,119 217,114 227,107" />
<polygon fill="#e8c28f" fill-opacity="0.501961" points="107,106 102,91 114,87" />
<polygon fill="#060301" fill-opacity="0.501961" points="51,105 35,124 56,115" />
<polygon fill="#74523d" fill-opacity="0.501961" points="61,57 46,37 73,42" />
<polygon fill="#9c8975" fill-opacity="0.501961" points="136,146 133,188 121,187" />
<polygon fill="#8a877c" fill-opacity="0.501961" points="99,69 124,105 128,93" />
<polygon fill="#110f13" fill-opacity="0.501961" points="148,170 148,148 152,160" />
<polygon fill="#e8d8bd" fill-opacity="0.501961" points="22,160 7,135 -16,140" />
<polygon fill="#596780" fill-opacity="0.501961" points="164,177 144,185 172,207" />
<polygon fill="#d99260" fill-opacity="0.501961" points="133,84 127,93 133,106" />
<polygon fill="#a49887" fill-opacity="0.501961" points="199,91 191,72 216,100" />
<polygon fill="#837866" fill-opacity="0.501961" points="-16,121 18,74 22,96" />
<polygon fill="#9fbad3" fill-opacity="0.501961" points="102,51 110,66 142,49" />
<polygon fill="#d3cbc3" fill-opacity="0.501961" points="150,135 151,95 159,117" />
<polygon fill="#000000" fill-opacity="0.501961" points="82,207 30,186 30,207" />
<polygon fill="#45301a" fill-opacity="0.501961" points="18,102 35,78 47,101" />
<polygon fill="#c1c9d8" fill-opacity="0.501961" points="183,18 153,20 182,46" />
<polygon fill="#3b2716" fill-opacity="0.501961" points="93,132 64,135 58,126" />
<polygon fill="#a99989" fill-opacity="0.501961" points="197,57 214,36 217,55" />
<polygon fill="#935431" fill-opacity="0.501961" points="78,69 70,71 61,53" />
<polygon fill="#aca09b" fill-opacity="0.501961" points="271,83 231,28 222,57" />
<polygon fill="#14171f" fill-opacity="0.501961" points="197,154 238,169 216,171" />
<polygon fill="#cfac84" fill-opacity="0.501961" points="68,33 41,36 45,28" />
<polygon fill="#c7af9a" fill-opacity="0.501961" points="120,110 128,174 133,140" />
<polygon fill="#d1d5dd" fill-opacity="0.501961" points="99,41 141,51 178,-13" />
<polygon fill="#382216" fill-opacity="0.501961" points="217,77 204,72 209,91" />
<polygon fill="#958e8d" fill-opacity="0.501961" points="151,138 158,155 155,129" />
<polygon fill="#6c522e" fill-opacity="0.501961" points="51,130 55,118 29,128" />
<polygon fill="#45607f" fill-opacity="0.501961" points="248,192 226,174 248,180" />
<polygon fill="#fedcb8" fill-opacity="0.501961" points="150,78 129,73 129,79" />
<polygon fill="#8e8179" fill-opacity="0.501961" points="133,164 129,139 137,131" />
<polygon fill="#7f7c73" fill-opacity="0.501961" points="103,96 86,96 82,56" />
<polygon fill="#8e96aa" fill-opacity="0.501961" points="232,155 220,155 240,147" />
<polygon fill="#baaa8f" fill-opacity="0.501961" points="113,76 145,73 122,57" />
<polygon fill="#b4a689" fill-opacity="0.501961" points="183,33 192,67 194,31" />
<polygon fill="#a18f7a" fill-opacity="0.501961" points="115,179 104,196 109,176" />
<polygon fill="#d6dce5" fill-opacity="0.501961" points="271,-9 271,89 225,-11" />
<polygon fill="#dfccb9" fill-opacity="0.501961" points="214,93 220,105 214,102" />
<polygon fill="#7e6f61" fill-opacity="0.501961" points="200,89 178,121 176,106" />
<polygon fill="#e4c19b" fill-opacity="0.501961" points="84,101 96,99 80,94" />
<polygon fill="#dfd0b5" fill-opacity="0.501961" points="4,141 27,155 19,173" />
<polygon fill="#cb9371" fill-opacity="0.501961" points="151,88 139,89 149,102" />
<polygon fill="#d7cdc2" fill-opacity="0.501961" points="148,129 129,120 146,143" />
<polygon fill="#9eb5d4" fill-opacity="0.501961" points="19,62 27,67 29,51" />
<polygon fill="#504f54" fill-opacity="0.501961" points="163,178 141,188 164,168" />
<polygon fill="#dec5a9" fill-opacity="0.501961" points="122,135 134,145 130,99" />
<polygon fill="#af764c" fill-opacity="0.501961" points="72,71 69,92 64,61" />
<polygon fill="#2d1b0e" fill-opacity="0.501961" points="78,96 61,91 75,104" />
<polygon fill="#b96f51" fill-opacity="0.501961" points="100,101 115,113 114,104" />
<polygon fill="#9b593c" fill-opacity="0.501961" points="148,90 132,92 138,108" />
<polygon fill="#323138" fill-opacity="0.501961" points="133,85 136,88 144,85" />
<polygon fill="#dabeb1" fill-opacity="0.501961" points="69,59 84,56 69,47" />
<polygon fill="#bea995" fill-opacity="0.501961" points="194,108 190,93 189,123" />
<polygon fill="#bbb3b0" fill-opacity="0.501961" points="151,60 145,41 162,43" />
<polygon fill="#2b1806" fill-opacity="0.501961" points="10,138 44,147 17,149" />
<polygon fill="#605835" fill-opacity="0.501961" points="153,93 155,105 161,103" />
<polygon fill="#ced0d8" fill-opacity="0.501961" points="29,-16 143,1 -16,20" />
<polygon fill="#aca097" fill-opacity="0.501961" points="220,120 229,128 212,147" />
<polygon fill="#030108" fill-opacity="0.501961" points="197,61 195,68 198,74" />
<polygon fill="#6b5233" fill-opacity="0.501961" points="89,171 84,183 75,166" />
<polygon fill="#ead5c7" fill-opacity="0.501961" points="189,137 196,129 195,133" />
<polygon fill="#bead98" fill-opacity="0.501961" points="132,175 146,128 146,162" />
<polygon fill="#352e28" fill-opacity="0.501961" points="114,175 119,181 119,189" />
<polygon fill="#c8b9a7" fill-opacity="0.501961" points="174,152 181,157 197,153" />
<polygon fill="#695543" fill-opacity="0.501961" points="80,120 103,128 104,117" />
<polygon fill="#ad9987" fill-opacity="0.501961" points="149,62 147,99 171,35" />
<polygon fill="#2a0902" fill-opacity="0.501961" points="205,67 209,64 213,68" />
<polygon fill="#7f6850" fill-opacity="0.501961" points="132,169 134,181 149,186" />
<polygon fill="#998975" fill-opacity="0.501961" points="189,54 167,115 166,85" />
<polygon fill="#e3b99f" fill-opacity="0.501961" points="70,113 76,112 82,103" />
<polygon fill="#ad9e71" fill-opacity="0.501961" points="98,51 71,46 107,64" />
<polygon fill="#ffe8c7" fill-opacity="0.501961" points="122,115 125,132 129,99" />
<polygon fill="#9a8f7c" fill-opacity="0.501961" points="-7,51 22,33 29,53" />
<polygon fill="#9f744c" fill-opacity="0.501961" points="61,91 81,119 68,110" />
<polygon fill="#ddccb2" fill-opacity="0.501961" points="164,155 224,207 170,207" />
<polygon fill="#acac4b" fill-opacity="0.501961" points="178,150 189,139 171,137" />
<polygon fill="#150c01" fill-opacity="0.501961" points="72,134 71,150 24,154" />
<polygon fill="#83746d" fill-opacity="0.501961" points="214,106 222,107 211,129" />
<polygon fill="#d0b38b" fill-opacity="0.501961" points="130,100 133,106 142,106" />
<polygon fill="#aabdca" fill-opacity="0.501961" points="9,78 -13,77 -2,86" />
<polygon fill="#b9b2b3" fill-opacity="0.501961" points="171,147 150,150 164,169" />
<polygon fill="#d9d7d9" fill-opacity="0.501961" points="241,86 224,85 226,90" />
<polygon fill="#362818" fill-opacity="0.501961" points="38,156 77,146 51,195" />
<polygon fill="#99886b" fill-opacity="0.501961" points="251,92 218,60 233,60" />
<polygon fill="#b19186" fill-opacity="0.501961" points="121,112 114,131 122,139" />
<polygon fill="#e4a975" fill-opacity="0.501961" points="197,67 204,65 204,62" />
<polygon fill="#291a0d" fill-opacity="0.501961" points="196,139 203,140 205,135" />
<polygon fill="#c38866" fill-opacity="0.501961" points="212,74 210,68 202,72" />
<polygon fill="#9fa7b3" fill-opacity="0.501961" points="158,53 132,73 130,57" />
<polygon fill="#d6a876" fill-opacity="0.501961" points="83,88 85,99 73,79" />
<polygon fill="#d3c0a2" fill-opacity="0.501961" points="-16,157 28,172 24,187" />
<polygon fill="#e0c4b1" fill-opacity="0.501961" points="85,136 86,133 97,136" />
<polygon fill="#757481" fill-opacity="0.501961" points="225,145 240,106 242,139" />
<polygon fill="#4d3f2d" fill-opacity="0.501961" points="140,185 151,201 88,202" />
<polygon fill="#b6b2b2" fill-opacity="0.501961" points="266,149 242,149 256,153" />
<polygon fill="#9c675a" fill-opacity="0.501961" points="73,120 92,117 86,102" />
<polygon fill="#8e6330" fill-opacity="0.501961" points="18,98 20,118 10,130" />
<polygon fill="#7b6351" fill-opacity="0.501961" points="84,128 98,133 83,134" />
<polygon fill="#321006" fill-opacity="0.501961" points="199,68 203,67 196,74" />
<polygon fill="#b5b9c2" fill-opacity="0.501961" points="93,27 101,52 49,19" />
<polygon fill="#635f68" fill-opacity="0.501961" points="209,130 217,134 207,157" />
<polygon fill="#d9dee6" fill-opacity="0.501961" points="188,15 101,0 271,-16" />
<polygon fill="#86552c" fill-opacity="0.501961" points="84,135 83,147 88,154" />
<polygon fill="#dfceb3" fill-opacity="0.501961" points="-16,185 26,207 29,183" />
<polygon fill="#9c9285" fill-opacity="0.501961" points="40,41 36,74 32,47" />
<polygon fill="#dbbd8f" fill-opacity="0.501961" points="199,117 209,116 214,130" />
<polygon fill="#af987f" fill-opacity="0.501961" points="133,161 121,130 120,186" />
<polygon fill="#ffe7ca" fill-opacity="0.501961" points="88,106 96,104 95,102" />
<polygon fill="#bfa38c" fill-opacity="0.501961" points="107,126 106,115 100,132" />
<polygon fill="#694a26" fill-opacity="0.501961" points="23,83 42,82 28,76" />
<polygon fill="#e0ceb4" fill-opacity="0.501961" points="89,157 105,198 111,156" />
<polygon fill="#3e3c44" fill-opacity="0.501961" points="243,146 227,188 225,170" />
<polygon fill="#3d2e1d" fill-opacity="0.501961" points="30,120 39,92 17,116" />
<polygon fill="#552d02" fill-opacity="0.501961" points="25,167 26,171 32,162" />
<polygon fill="#6c5734" fill-opacity="0.501961" points="189,133 187,110 176,134" />
<polygon fill="#dccbc7" fill-opacity="0.501961" points="110,152 99,152 106,154" />
<polygon fill="#b07356" fill-opacity="0.501961" points="131,112 137,123 140,120" />
<polygon fill="#efdec6" fill-opacity="0.501961" points="180,136 193,135 187,138" />
<polygon fill="#26150c" fill-opacity="0.501961" points="207,62 201,57 196,61" />
<polygon fill="#704d38" fill-opacity="0.501961" points="240,159 218,160 245,168" />
<polygon fill="#af7632" fill-opacity="0.501961" points="177,133 174,128 169,134" />
<polygon fill="#f9e3d4" fill-opacity="0.501961" points="193,105 198,107 197,96" />
<polygon fill="#796a6a" fill-opacity="0.501961" points="119,147 110,162 121,162" />
<polygon fill="#2c2e39" fill-opacity="0.501961" points="148,162 155,178 152,191" />
<polygon fill="#1a0a00" fill-opacity="0.501961" points="13,128 9,134 19,127" />
<polygon fill="#e8e8e2" fill-opacity="0.501961" points="213,58 219,71 218,61" />
<polygon fill="#120a03" fill-opacity="0.501961" points="84,168 81,161 84,158" />
<polygon fill="#bbc2cb" fill-opacity="0.501961" points="8,42 24,9 6,2" />
<polygon fill="#7c684e" fill-opacity="0.501961" points="123,102 114,90 118,107" />
<polygon fill="#443017" fill-opacity="0.501961" points="76,174 87,182 85,176" />
<polygon fill="#6f3c26" fill-opacity="0.501961" points="111,121 116,116 105,104" />
<polygon fill="#efddc4" fill-opacity="0.501961" points="167,159 171,171 188,156" />
<polygon fill="#6c3c24" fill-opacity="0.501961" points="53,71 66,75 63,62" />
<polygon fill="#5f3f20" fill-opacity="0.501961" points="58,116 74,109 58,106" />
<polygon fill="#9d983d" fill-opacity="0.501961" points="115,152 113,147 96,150" />
<polygon fill="#c2c8d2" fill-opacity="0.501961" points="235,20 164,23 220,42" />
<polygon fill="#93563a" fill-opacity="0.501961" points="210,129 192,143 204,119" />
<polygon fill="#302b29" fill-opacity="0.501961" points="198,79 194,68 207,85" />
<polygon fill="#aa937a" fill-opacity="0.501961" points="82,172 82,168 79,175" />
<polygon fill="#decaaf" fill-opacity="0.501961" points="257,201 246,166 271,146" />
<polygon fill="#72684b" fill-opacity="0.501961" points="167,115 161,83 152,85" />
<polygon fill="#dac6ad" fill-opacity="0.501961" points="136,152 141,115 151,119" />
<polygon fill="#9a9289" fill-opacity="0.501961" points="224,111 209,92 210,111" />
<polygon fill="#71664d" fill-opacity="0.501961" points="106,112 103,129 98,105" />
<polygon fill="#aeb6c1" fill-opacity="0.501961" points="26,28 28,53 54,24" />
<polygon fill="#8f97a5" fill-opacity="0.501961" points="240,81 271,76 263,106" />
<polygon fill="#c9baa8" fill-opacity="0.501961" points="98,137 100,129 106,128" />
<polygon fill="#9b8f86" fill-opacity="0.501961" points="255,137 247,134 242,161" />
<polygon fill="#f9e4c2" fill-opacity="0.501961" points="110,89 112,103 114,89" />
<polygon fill="#949392" fill-opacity="0.501961" points="195,68 167,83 196,90" />
<polygon fill="#1d1613" fill-opacity="0.501961" points="73,110 80,102 71,99" />
<polygon fill="#000000" fill-opacity="0.501961" points="70,190 77,188 67,207" />
<polygon fill="#978170" fill-opacity="0.501961" points="184,101 198,113 199,128" />
<polygon fill="#3c2f1d" fill-opacity="0.501961" points="3,121 9,127 -7,124" />
<polygon fill="#c6b3af" fill-opacity="0.501961" points="81,73 75,63 82,68" />
<polygon fill="#bec0c4" fill-opacity="0.501961" points="271,52 262,66 226,26" />
<polygon fill="#7f8192" fill-opacity="0.501961" points="228,157 212,156 223,152" />
<polygon fill="#968a7d" fill-opacity="0.501961" points="164,161 172,155 173,146" />
<polygon fill="#62605a" fill-opacity="0.501961" points="197,160 203,166 203,174" />
<polygon fill="#c68864" fill-opacity="0.501961" points="139,78 145,83 127,83" />
<polygon fill="#929270" fill-opacity="0.501961" points="85,132 93,129 87,124" />
<polygon fill="#6f6c77" fill-opacity="0.501961" points="234,142 206,150 236,130" />
<polygon fill="#675c5c" fill-opacity="0.501961" points="167,140 164,144 164,130" />
<polygon fill="#e3c3b5" fill-opacity="0.501961" points="83,108 81,105 79,109" />
<polygon fill="#977349" fill-opacity="0.501961" points="55,83 48,68 55,75" />
<polygon fill="#308bb1" fill-opacity="0.501961" points="216,112 224,115 232,109" />
<polygon fill="#916d56" fill-opacity="0.501961" points="51,36 75,38 56,43" />
<polygon fill="#9a938e" fill-opacity="0.501961" points="36,41 19,85 43,60" />
<polygon fill="#857c7d" fill-opacity="0.501961" points="158,132 159,124 162,139" />
<polygon fill="#2a1608" fill-opacity="0.501961" points="46,44 50,70 41,54" />
<polygon fill="#3e271a" fill-opacity="0.501961" points="212,96 205,73 212,80" />
<polygon fill="#4b4951" fill-opacity="0.501961" points="239,146 229,152 228,143" />
<polygon fill="#050000" fill-opacity="0.501961" points="75,133 81,133 82,143" />
<polygon fill="#735e56" fill-opacity="0.501961" points="104,140 113,146 112,117" />
<polygon fill="#563b1d" fill-opacity="0.501961" points="83,173 66,191 59,175" />
<polygon fill="#81776d" fill-opacity="0.501961" points="184,74 187,61 189,88" />
<polygon fill="#9e8e82" fill-opacity="0.501961" points="240,46 252,71 233,67" />
<polygon fill="#e5c88a" fill-opacity="0.501961" points="100,144 88,144 87,148" />
<polygon fill="#8e7f60" fill-opacity="0.501961" points="79,57 114,80 101,60" />
<polygon fill="#867454" fill-opacity="0.501961" points="99,95 100,85 80,96" />
<polygon fill="#9a9c45" fill-opacity="0.501961" points="184,142 170,151 197,151" />
<polygon fill="#9c6829" fill-opacity="0.501961" points="48,77 42,76 42,66" />
<polygon fill="#ccd0d8" fill-opacity="0.501961" points="70,-7 164,20 158,46" />
<polygon fill="#929097" fill-opacity="0.501961" points="222,87 218,99 235,92" />
<polygon fill="#313d4e" fill-opacity="0.501961" points="241,176 216,176 244,167" />
<polygon fill="#a2886f" fill-opacity="0.501961" points="151,104 151,114 146,114" />
<polygon fill="#542716" fill-opacity="0.501961" points="138,112 132,110 134,116" />
<polygon fill="#8a816f" fill-opacity="0.501961" points="22,72 7,87 13,118" />
<polygon fill="#78452d" fill-opacity="0.501961" points="206,80 215,74 200,77" />
<polygon fill="#afa090" fill-opacity="0.501961" points="124,137 132,174 134,135" />
<polygon fill="#0e0c0a" fill-opacity="0.501961" points="220,192 229,186 214,176" />
<polygon fill="#824c23" fill-opacity="0.501961" points="72,83 72,87 81,91" />
<polygon fill="#6e4c27" fill-opacity="0.501961" points="82,169 77,133 69,178" />
<polygon fill="#8b857b" fill-opacity="0.501961" points="81,66 87,40 94,94" />
<polygon fill="#ddccb1" fill-opacity="0.501961" points="196,154 202,191 167,195" />
<polygon fill="#b1a18f" fill-opacity="0.501961" points="144,172 145,153 134,172" />
<polygon fill="#c8b48f" fill-opacity="0.501961" points="10,139 -16,146 -16,138" />
<polygon fill="#cda08b" fill-opacity="0.501961" points="150,88 131,88 141,91" />
<polygon fill="#dbcaad" fill-opacity="0.501961" points="83,183 66,207 107,179" />
<polygon fill="#765e46" fill-opacity="0.501961" points="116,101 123,106 125,102" />
<polygon fill="#c2b9b3" fill-opacity="0.501961" points="149,138 156,172 164,161" />
<polygon fill="#baaca1" fill-opacity="0.501961" points="232,123 219,119 210,131" />
<polygon fill="#9f8c79" fill-opacity="0.501961" points="153,77 159,48 169,98" />
<polygon fill="#332111" fill-opacity="0.501961" points="81,135 77,124 41,130" />
<polygon fill="#979392" fill-opacity="0.501961" points="8,72 25,75 1,30" />
<polygon fill="#966843" fill-opacity="0.501961" points="70,87 71,96 66,87" />
<polygon fill="#868d32" fill-opacity="0.501961" points="99,151 88,150 104,147" />
<polygon fill="#a99a8a" fill-opacity="0.501961" points="190,64 194,52 215,46" />
<polygon fill="#655955" fill-opacity="0.501961" points="201,149 221,150 195,141" />
<polygon fill="#e2e7ee" fill-opacity="0.501961" points="252,7 189,-1 271,-16" />
<polygon fill="#5c7379" fill-opacity="0.501961" points="208,115 197,115 206,112" />
<polygon fill="#715533" fill-opacity="0.501961" points="35,126 51,121 34,133" />
<polygon fill="#e7b8a1" fill-opacity="0.501961" points="98,117 96,114 88,116" />
<polygon fill="#cdb89e" fill-opacity="0.501961" points="97,179 90,172 85,188" />
<polygon fill="#755f53" fill-opacity="0.501961" points="169,122 185,114 166,112" />
<polygon fill="#543819" fill-opacity="0.501961" points="31,185 29,176 48,188" />
<polygon fill="#cdb5aa" fill-opacity="0.501961" points="114,125 118,113 121,118" />
<polygon fill="#b2adab" fill-opacity="0.501961" points="163,112 147,106 170,128" />
<polygon fill="#896c5a" fill-opacity="0.501961" points="232,112 227,119 233,119" />
<polygon fill="#cab8a6" fill-opacity="0.501961" points="191,129 192,125 190,125" />
<polygon fill="#b4aa9b" fill-opacity="0.501961" points="169,69 196,34 186,28" />
<polygon fill="#c3af9c" fill-opacity="0.501961" points="195,149 203,154 208,151" />
<polygon fill="#a8956e" fill-opacity="0.501961" points="225,190 236,199 224,202" />
<polygon fill="#995834" fill-opacity="0.501961" points="79,117 88,117 95,112" />
<polygon fill="#e2d0be" fill-opacity="0.501961" points="203,104 204,113 207,108" />
<polygon fill="#e7d1bc" fill-opacity="0.501961" points="86,99 96,96 95,100" />
<polygon fill="#ab9269" fill-opacity="0.501961" points="170,69 175,81 192,47" />
<polygon fill="#856134" fill-opacity="0.501961" points="37,76 24,90 29,79" />
<polygon fill="#b9917e" fill-opacity="0.501961" points="65,53 70,46 79,69" />
<polygon fill="#7b7173" fill-opacity="0.501961" points="192,111 205,100 201,108" />
<polygon fill="#a69d8e" fill-opacity="0.501961" points="128,93 101,79 127,79" />
<polygon fill="#e5d9c7" fill-opacity="0.501961" points="152,105 148,112 159,108" />
<polygon fill="#b2ad81" fill-opacity="0.501961" points="90,131 91,129 97,130" />
<polygon fill="#4f566d" fill-opacity="0.501961" points="241,142 247,133 241,124" />
<polygon fill="#8d7c6b" fill-opacity="0.501961" points="17,62 14,38 19,48" />
<polygon fill="#ad8151" fill-opacity="0.501961" points="74,90 87,97 78,97" />
<polygon fill="#965430" fill-opacity="0.501961" points="91,102 84,101 82,107" />
<polygon fill="#201e21" fill-opacity="0.501961" points="241,116 243,109 244,123" />
<polygon fill="#ecccb8" fill-opacity="0.501961" points="138,76 146,83 148,73" />
<polygon fill="#816d56" fill-opacity="0.501961" points="144,192 146,181 142,173" />
<polygon fill="#a8b242" fill-opacity="0.501961" points="87,140 104,143 98,137" />
<polygon fill="#7e5118" fill-opacity="0.501961" points="28,164 27,157 24,169" />
<polygon fill="#e5d8c2" fill-opacity="0.501961" points="-16,154 24,153 2,144" />
<polygon fill="#1d222c" fill-opacity="0.501961" points="213,172 240,170 218,158" />
<polygon fill="#627181" fill-opacity="0.501961" points="246,184 228,207 232,186" />
<polygon fill="#efd7c4" fill-opacity="0.501961" points="202,99 191,103 203,93" />
<polygon fill="#160c06" fill-opacity="0.501961" points="213,81 205,86 202,81" />
<polygon fill="#dfb979" fill-opacity="0.501961" points="30,75 39,72 39,75" />
<polygon fill="#a66439" fill-opacity="0.501961" points="233,163 237,167 239,160" />
<polygon fill="#c2c9d3" fill-opacity="0.501961" points="180,22 147,23 185,45" />
<polygon fill="#d7cda3" fill-opacity="0.501961" points="208,116 198,118 211,122" />
<polygon fill="#1f160b" fill-opacity="0.501961" points="45,199 60,177 70,207" />
<polygon fill="#cca468" fill-opacity="0.501961" points="199,123 204,118 212,123" />
<polygon fill="#dce6ff" fill-opacity="0.501961" points="138,126 136,128 134,122" />
<polygon fill="#bac2ce" fill-opacity="0.501961" points="188,22 206,49 210,38" />
<polygon fill="#b5a89e" fill-opacity="0.501961" points="146,39 158,50 150,71" />
<polygon fill="#9aa9b9" fill-opacity="0.501961" points="22,44 17,64 32,63" />
<polygon fill="#493c2f" fill-opacity="0.501961" points="115,144 117,139 117,147" />
<polygon fill="#8b7b6e" fill-opacity="0.501961" points="181,107 179,127 175,106" />
<polygon fill="#2b1b0c" fill-opacity="0.501961" points="64,166 51,141 59,120" />
<polygon fill="#98908e" fill-opacity="0.501961" points="160,156 155,144 152,146" />
<polygon fill="#8d7d66" fill-opacity="0.501961" points="4,53 -5,91 -14,10" />
<polygon fill="#453a31" fill-opacity="0.501961" points="210,60 216,65 215,72" />
<polygon fill="#897968" fill-opacity="0.501961" points="192,100 178,90 188,114" />
<polygon fill="#3b2d24" fill-opacity="0.501961" points="197,137 197,132 208,144" />
<polygon fill="#64656c" fill-opacity="0.501961" points="254,109 244,103 247,119" />
<polygon fill="#6b6971" fill-opacity="0.501961" points="211,127 213,107 217,115" />
<polygon fill="#d2cccb" fill-opacity="0.501961" points="155,130 161,110 153,114" />
<polygon fill="#393a2a" fill-opacity="0.501961" points="195,97 194,95 195,92" />
<polygon fill="#2d1c13" fill-opacity="0.501961" points="198,60 198,69 195,61" />
<polygon fill="#d29d80" fill-opacity="0.501961" points="116,105 107,101 104,106" />
<polygon fill="#7d6a56" fill-opacity="0.501961" points="135,144 133,154 136,157" />
<polygon fill="#2f2f34" fill-opacity="0.501961" points="237,156 229,168 222,157" />
<polygon fill="#76645b" fill-opacity="0.501961" points="134,140 136,145 136,135" />
<polygon fill="#725433" fill-opacity="0.501961" points="30,110 17,99 19,107" />
<polygon fill="#b1b7b5" fill-opacity="0.501961" points="116,77 118,62 110,69" />
<polygon fill="#010000" fill-opacity="0.501961" points="78,123 83,129 83,123" />
<polygon fill="#baa382" fill-opacity="0.501961" points="128,59 128,83 113,77" />
<polygon fill="#b07f6c" fill-opacity="0.501961" points="82,45 77,52 75,48" />
<polygon fill="#645b45" fill-opacity="0.501961" points="11,101 -9,109 10,110" />
<polygon fill="#7a5a32" fill-opacity="0.501961" points="83,130 82,144 88,150" />
<polygon fill="#894732" fill-opacity="0.501961" points="137,84 136,104 140,95" />
<polygon fill="#dab593" fill-opacity="0.501961" points="151,102 150,87 146,88" />
<polygon fill="#909298" fill-opacity="0.501961" points="249,162 237,151 242,160" />
<polygon fill="#47444f" fill-opacity="0.501961" points="243,96 244,100 239,104" />
<polygon fill="#bdae6b" fill-opacity="0.501961" points="199,146 171,137 189,137" />
<polygon fill="#957d6f" fill-opacity="0.501961" points="107,156 99,153 115,154" />
<polygon fill="#eecbae" fill-opacity="0.501961" points="96,101 90,105 95,106" />
<polygon fill="#969ea3" fill-opacity="0.501961" points="217,81 217,72 219,77" />
<polygon fill="#cd9a75" fill-opacity="0.501961" points="78,38 70,34 65,36" />
<polygon fill="#ac9579" fill-opacity="0.501961" points="122,188 120,159 131,184" />
<polygon fill="#4c5f78" fill-opacity="0.501961" points="237,188 245,169 247,180" />
<polygon fill="#482b19" fill-opacity="0.501961" points="72,91 78,102 80,98" />
<polygon fill="#746b59" fill-opacity="0.501961" points="1,95 10,91 22,96" />
<polygon fill="#a79f99" fill-opacity="0.501961" points="168,33 170,54 159,72" />
<polygon fill="#dccbb9" fill-opacity="0.501961" points="170,134 183,136 165,138" />
<polygon fill="#999b9d" fill-opacity="0.501961" points="186,92 177,96 185,74" />
<polygon fill="#2b1b0b" fill-opacity="0.501961" points="44,166 42,185 25,152" />
<polygon fill="#ada090" fill-opacity="0.501961" points="208,43 219,59 213,35" />
<polygon fill="#cfbca5" fill-opacity="0.501961" points="135,142 123,128 132,115" />
<polygon fill="#472f1c" fill-opacity="0.501961" points="83,132 79,123 59,121" />
<polygon fill="#29190a" fill-opacity="0.501961" points="32,133 33,151 13,145" />
<polygon fill="#595b63" fill-opacity="0.501961" points="215,77 221,82 217,97" />
<polygon fill="#9a6c43" fill-opacity="0.501961" points="64,119 74,110 68,106" />
<polygon fill="#aaa9b2" fill-opacity="0.501961" points="245,46 270,67 271,115" />
<polygon fill="#0e0801" fill-opacity="0.501961" points="49,115 28,120 41,123" />
<polygon fill="#8e6551" fill-opacity="0.501961" points="130,108 133,106 130,104" />
<polygon fill="#170f03" fill-opacity="0.501961" points="47,77 55,83 48,73" />
<polygon fill="#7d7770" fill-opacity="0.501961" points="266,127 249,125 255,118" />
<polygon fill="#807254" fill-opacity="0.501961" points="162,79 150,92 157,103" />
<polygon fill="#b57547" fill-opacity="0.501961" points="132,92 130,78 128,83" />
<polygon fill="#968979" fill-opacity="0.501961" points="110,190 103,195 113,180" />
<polygon fill="#171613" fill-opacity="0.501961" points="221,165 205,163 198,154" />
<polygon fill="#a59d93" fill-opacity="0.501961" points="167,155 164,176 161,169" />
<polygon fill="#fdf4dc" fill-opacity="0.501961" points="5,88 -16,89 -16,81" />
<polygon fill="#f2e1cb" fill-opacity="0.501961" points="176,161 196,161 197,154" />
<polygon fill="#ada59e" fill-opacity="0.501961" points="217,140 237,110 232,129" />
<polygon fill="#918783" fill-opacity="0.501961" points="231,132 229,141 222,128" />
<polygon fill="#5c3d3b" fill-opacity="0.501961" points="9,133 10,135 5,133" />
<polygon fill="#fff4d7" fill-opacity="0.501961" points="129,110 129,103 121,107" />
<polygon fill="#fff1e3" fill-opacity="0.501961" points="208,110 207,102 209,104" />
<polygon fill="#4d3528" fill-opacity="0.501961" points="69,44 49,44 47,60" />
<polygon fill="#977e75" fill-opacity="0.501961" points="121,127 122,142 113,138" />
<polygon fill="#49341e" fill-opacity="0.501961" points="20,99 40,121 31,83" />
<polygon fill="#406272" fill-opacity="0.501961" points="221,106 225,107 223,109" />
<polygon fill="#b4b5ba" fill-opacity="0.501961" points="249,101 248,92 242,89" />
<polygon fill="#a1b9cd" fill-opacity="0.501961" points="131,64 141,71 132,55" />
<polygon fill="#bec3cd" fill-opacity="0.501961" points="15,6 101,43 128,21" />
<polygon fill="#897544" fill-opacity="0.501961" points="191,134 186,125 176,130" />
<polygon fill="#dbdde3" fill-opacity="0.501961" points="124,41 123,30 161,36" />
<polygon fill="#5e3019" fill-opacity="0.501961" points="240,170 245,163 240,164" />
<polygon fill="#9d8e80" fill-opacity="0.501961" points="159,69 170,56 168,104" />
<polygon fill="#97644d" fill-opacity="0.501961" points="146,100 142,87 137,105" />
<polygon fill="#8c5c2f" fill-opacity="0.501961" points="39,57 40,46 42,56" />
<polygon fill="#b2aaa7" fill-opacity="0.501961" points="215,107 237,96 226,93" />
<polygon fill="#362e22" fill-opacity="0.501961" points="255,128 249,127 256,126" />
<polygon fill="#ccb899" fill-opacity="0.501961" points="26,179 -9,170 -2,184" />
<polygon fill="#b5aeac" fill-opacity="0.501961" points="236,32 234,57 241,46" />
<polygon fill="#5b5152" fill-opacity="0.501961" points="246,151 253,156 238,151" />
<polygon fill="#a89989" fill-opacity="0.501961" points="7,32 -16,23 10,52" />
<polygon fill="#8b6231" fill-opacity="0.501961" points="28,86 17,95 19,99" />
<polygon fill="#c1a896" fill-opacity="0.501961" points="121,139 116,126 119,112" />
<polygon fill="#8d8278" fill-opacity="0.501961" points="243,85 246,70 229,83" />
</g>
</svg>